<svg width="1440" height="1024" viewBox="0 0 1440 1024" fill="none" xmlns="http://www.w3.org/2000/svg">
<rect width="1440" height="1024" fill="#004844"/>
<path d="M204.349 163.721C201.713 163.721 199.081 163.983 196.497 164.506C194.549 154.781 188.249 146.486 179.405 141.996C170.562 137.506 160.147 137.317 151.146 141.484C143 119.046 118.207 107.46 95.7689 115.606C73.3308 123.752 61.7457 148.547 69.8915 170.983C50.2362 171.605 34.7102 187.874 35.0041 207.536C35.2998 227.2 51.3081 242.994 70.974 243.025H204.349C226.247 243.025 244.001 225.273 244.001 203.373C244.001 181.474 226.247 163.721 204.349 163.721V163.721Z" fill="#A3D4F7"/>
<path d="M1288.35 902.721C1285.71 902.721 1283.08 902.983 1280.5 903.506C1278.55 893.781 1272.25 885.486 1263.4 880.996C1254.56 876.506 1244.15 876.317 1235.15 880.484C1227 858.046 1202.21 846.46 1179.77 854.606C1157.33 862.752 1145.75 887.547 1153.89 909.983C1134.24 910.605 1118.71 926.874 1119 946.536C1119.3 966.2 1135.31 981.994 1154.97 982.025H1288.35C1310.25 982.025 1328 964.273 1328 942.373C1328 920.474 1310.25 902.721 1288.35 902.721V902.721Z" fill="#A3D4F7"/>
<path d="M1375.35 726.721C1372.71 726.721 1370.08 726.983 1367.5 727.506C1365.55 717.781 1359.25 709.486 1350.4 704.996C1341.56 700.506 1331.15 700.317 1322.15 704.484C1314 682.046 1289.21 670.46 1266.77 678.606C1244.33 686.752 1232.75 711.547 1240.89 733.983C1221.24 734.605 1205.71 750.874 1206 770.536C1206.3 790.2 1222.31 805.994 1241.97 806.025H1375.35C1397.25 806.025 1415 788.273 1415 766.373C1415 744.474 1397.25 726.721 1375.35 726.721V726.721Z" fill="#A3D4F7"/>
<path d="M953.349 383.721C950.713 383.721 948.081 383.983 945.497 384.506C943.549 374.781 937.249 366.486 928.405 361.996C919.562 357.506 909.147 357.317 900.146 361.484C892 339.046 867.207 327.46 844.769 335.606C822.331 343.752 810.746 368.547 818.892 390.983C799.236 391.605 783.71 407.874 784.004 427.536C784.3 447.2 800.308 462.994 819.974 463.025H953.349C975.247 463.025 993.001 445.273 993.001 423.373C993.001 401.474 975.247 383.721 953.349 383.721V383.721Z" fill="#A3D4F7"/>
<path d="M836.349 902.721C833.713 902.721 831.081 902.983 828.497 903.506C826.549 893.781 820.249 885.486 811.405 880.996C802.562 876.506 792.147 876.317 783.146 880.484C775 858.046 750.207 846.46 727.769 854.606C705.331 862.752 693.746 887.547 701.892 909.983C682.236 910.605 666.71 926.874 667.004 946.536C667.3 966.2 683.308 981.994 702.974 982.025H836.349C858.247 982.025 876.001 964.273 876.001 942.373C876.001 920.474 858.247 902.721 836.349 902.721V902.721Z" fill="#A3D4F7"/>
<path d="M479.349 633.721C476.713 633.721 474.081 633.983 471.497 634.506C469.549 624.781 463.249 616.486 454.405 611.996C445.562 607.506 435.147 607.317 426.146 611.484C418 589.046 393.207 577.46 370.769 585.606C348.331 593.752 336.746 618.547 344.892 640.983C325.236 641.605 309.71 657.874 310.004 677.536C310.3 697.2 326.308 712.994 345.974 713.025H479.349C501.247 713.025 519.001 695.273 519.001 673.373C519.001 651.474 501.247 633.721 479.349 633.721V633.721Z" fill="#A3D4F7"/>
<path d="M740.349 524.721C737.713 524.721 735.081 524.983 732.497 525.506C730.549 515.781 724.249 507.486 715.405 502.996C706.562 498.506 696.147 498.317 687.146 502.484C679 480.046 654.207 468.46 631.769 476.606C609.331 484.752 597.746 509.547 605.892 531.983C586.236 532.605 570.71 548.874 571.004 568.536C571.3 588.2 587.308 603.994 606.974 604.025H740.349C762.247 604.025 780.001 586.273 780.001 564.373C780.001 542.474 762.247 524.721 740.349 524.721V524.721Z" fill="#A3D4F7"/>
<path d="M763.349 199.721C760.713 199.721 758.081 199.983 755.497 200.506C753.549 190.781 747.249 182.486 738.405 177.996C729.562 173.506 719.147 173.317 710.146 177.484C702 155.046 677.207 143.46 654.769 151.606C632.331 159.752 620.746 184.547 628.892 206.983C609.236 207.605 593.71 223.874 594.004 243.536C594.3 263.2 610.308 278.994 629.974 279.025H763.349C785.247 279.025 803.001 261.273 803.001 239.373C803.001 217.474 785.247 199.721 763.349 199.721V199.721Z" fill="#A3D4F7"/>
<path d="M867.349 60.7211C864.713 60.7211 862.081 60.9834 859.497 61.5061C857.549 51.7814 851.249 43.486 842.405 38.9959C833.562 34.5058 823.147 34.3175 814.146 38.4837C806 16.0456 781.207 4.46047 758.769 12.6063C736.331 20.7522 724.746 45.5471 732.892 67.9834C713.236 68.6047 697.71 84.8736 698.004 104.536C698.3 124.2 714.308 139.994 733.974 140.025H867.349C889.247 140.025 907.001 122.273 907.001 100.373C907.001 78.4737 889.247 60.7211 867.349 60.7211V60.7211Z" fill="#A3D4F7"/>
<path d="M1385.35 69.7211C1382.71 69.7211 1380.08 69.9834 1377.5 70.5061C1375.55 60.7814 1369.25 52.486 1360.4 47.9959C1351.56 43.5058 1341.15 43.3175 1332.15 47.4837C1324 25.0456 1299.21 13.4605 1276.77 21.6063C1254.33 29.7522 1242.75 54.5471 1250.89 76.9834C1231.24 77.6047 1215.71 93.8736 1216 113.536C1216.3 133.2 1232.31 148.994 1251.97 149.025H1385.35C1407.25 149.025 1425 131.273 1425 109.373C1425 87.4737 1407.25 69.7211 1385.35 69.7211V69.7211Z" fill="#A3D4F7"/>
<path d="M744.461 400.934C744.461 422.009 727.337 439.132 706.262 439.132H530.198C509.123 439.132 492 422.009 492 400.934C492 379.859 509.123 362.736 530.198 362.736C532.394 362.736 534.589 362.955 536.784 363.394C545.566 331.782 578.495 313.341 610.108 322.342C611.645 322.781 613.181 323.22 614.498 323.878C643.477 304.34 682.553 311.804 702.091 340.782C706.702 347.588 709.995 355.271 711.531 363.394C730.63 366.028 744.461 382.054 744.461 400.934V400.934Z" fill="#45AEEF"/>
<path d="M507.461 505.934C507.461 527.009 490.337 544.132 469.262 544.132H293.198C272.123 544.132 255 527.009 255 505.934C255 484.859 272.123 467.736 293.198 467.736C295.394 467.736 297.589 467.955 299.784 468.394C308.566 436.782 341.495 418.341 373.108 427.342C374.645 427.781 376.181 428.22 377.498 428.878C406.477 409.34 445.553 416.804 465.091 445.782C469.702 452.588 472.995 460.271 474.531 468.394C493.63 471.028 507.461 487.054 507.461 505.934V505.934Z" fill="#45AEEF"/>
<path d="M562.461 162.934C562.461 184.009 545.337 201.132 524.262 201.132H348.198C327.123 201.132 310 184.009 310 162.934C310 141.859 327.123 124.736 348.198 124.736C350.394 124.736 352.589 124.955 354.784 125.394C363.566 93.7816 396.495 75.341 428.108 84.3418C429.645 84.7808 431.181 85.2199 432.498 85.8785C461.477 66.3402 500.553 73.8043 520.091 102.782C524.702 109.588 527.995 117.271 529.531 125.394C548.63 128.028 562.461 144.054 562.461 162.934V162.934Z" fill="#45AEEF"/>
<path d="M846.461 710.934C846.461 732.009 829.337 749.132 808.262 749.132H632.198C611.123 749.132 594 732.009 594 710.934C594 689.859 611.123 672.736 632.198 672.736C634.394 672.736 636.589 672.955 638.784 673.394C647.566 641.782 680.495 623.341 712.108 632.342C713.645 632.781 715.181 633.22 716.498 633.878C745.477 614.34 784.553 621.804 804.091 650.782C808.702 657.588 811.995 665.271 813.531 673.394C832.63 676.028 846.461 692.054 846.461 710.934V710.934Z" fill="#45AEEF"/>
<path d="M300.461 846.934C300.461 868.009 283.337 885.132 262.262 885.132H86.1984C65.1234 885.132 48 868.009 48 846.934C48 825.859 65.1234 808.736 86.1984 808.736C88.3937 808.736 90.5891 808.955 92.7844 809.394C101.566 777.782 134.495 759.341 166.108 768.342C167.645 768.781 169.181 769.22 170.498 769.878C199.477 750.34 238.553 757.804 258.091 786.782C262.702 793.588 265.995 801.271 267.531 809.394C286.63 812.028 300.461 828.054 300.461 846.934V846.934Z" fill="#45AEEF"/>
<path d="M1425.46 416.934C1425.46 438.009 1408.34 455.132 1387.26 455.132H1211.2C1190.12 455.132 1173 438.009 1173 416.934C1173 395.859 1190.12 378.736 1211.2 378.736C1213.39 378.736 1215.59 378.955 1217.78 379.394C1226.57 347.782 1259.5 329.341 1291.11 338.342C1292.64 338.781 1294.18 339.22 1295.5 339.878C1324.48 320.34 1363.55 327.804 1383.09 356.782C1387.7 363.588 1390.99 371.271 1392.53 379.394C1411.63 382.028 1425.46 398.054 1425.46 416.934V416.934Z" fill="#45AEEF"/>
<path d="M1106.46 217.934C1106.46 239.009 1089.34 256.132 1068.26 256.132H892.198C871.123 256.132 854 239.009 854 217.934C854 196.859 871.123 179.736 892.198 179.736C894.394 179.736 896.589 179.955 898.784 180.394C907.566 148.782 940.495 130.341 972.108 139.342C973.645 139.781 975.181 140.22 976.498 140.878C1005.48 121.34 1044.55 128.804 1064.09 157.782C1068.7 164.588 1071.99 172.271 1073.53 180.394C1092.63 183.028 1106.46 199.054 1106.46 217.934V217.934Z" fill="#45AEEF"/>
<path d="M1195.46 727.934C1195.46 749.009 1178.34 766.132 1157.26 766.132H981.198C960.123 766.132 943 749.009 943 727.934C943 706.859 960.123 689.736 981.198 689.736C983.394 689.736 985.589 689.955 987.784 690.394C996.566 658.782 1029.5 640.341 1061.11 649.342C1062.64 649.781 1064.18 650.22 1065.5 650.878C1094.48 631.34 1133.55 638.804 1153.09 667.782C1157.7 674.588 1160.99 682.271 1162.53 690.394C1181.63 693.028 1195.46 709.054 1195.46 727.934V727.934Z" fill="#45AEEF"/>
<path d="M1311.46 573.934C1311.46 595.009 1294.34 612.132 1273.26 612.132H1097.2C1076.12 612.132 1059 595.009 1059 573.934C1059 552.859 1076.12 535.736 1097.2 535.736C1099.39 535.736 1101.59 535.955 1103.78 536.394C1112.57 504.782 1145.5 486.341 1177.11 495.342C1178.64 495.781 1180.18 496.22 1181.5 496.878C1210.48 477.34 1249.55 484.804 1269.09 513.782C1273.7 520.588 1276.99 528.271 1278.53 536.394C1297.63 539.028 1311.46 555.054 1311.46 573.934V573.934Z" fill="#45AEEF"/>
<path d="M254.87 675.764C254.87 690.912 242.576 703.425 227.209 703.425H99.6609C84.5133 703.425 72 691.131 72 675.764C72 660.616 84.2937 648.103 99.6609 648.103C101.198 648.103 102.734 648.323 104.271 648.542C110.857 625.711 134.566 612.319 157.617 618.686C158.715 618.905 159.812 619.344 160.91 619.784C181.766 605.734 210.305 611.222 224.355 632.077C227.648 637.126 230.063 642.615 231.16 648.542C244.771 650.518 254.87 662.153 254.87 675.764Z" fill="#72BDF6"/>
<path d="M346.87 74.764C346.87 89.9116 334.576 102.425 319.209 102.425H191.661C176.513 102.425 164 90.1312 164 74.764C164 59.6163 176.294 47.103 191.661 47.103C193.198 47.103 194.734 47.3226 196.271 47.5421C202.857 24.7109 226.566 11.3194 249.617 17.6859C250.715 17.9054 251.812 18.3444 252.91 18.7835C273.766 4.73351 302.305 10.2218 316.355 31.0773C319.648 36.1265 322.063 41.6148 323.16 47.5421C336.771 49.5179 346.87 61.153 346.87 74.764Z" fill="#72BDF6"/>
<path d="M569.87 948.764C569.87 963.912 557.576 976.425 542.209 976.425H414.661C399.513 976.425 387 964.131 387 948.764C387 933.616 399.294 921.103 414.661 921.103C416.198 921.103 417.734 921.323 419.271 921.542C425.857 898.711 449.566 885.319 472.617 891.686C473.715 891.905 474.812 892.344 475.91 892.784C496.766 878.734 525.305 884.222 539.355 905.077C542.648 910.126 545.063 915.615 546.16 921.542C559.771 923.518 569.87 935.153 569.87 948.764Z" fill="#72BDF6"/>
<path d="M299.87 961.764C299.87 976.912 287.576 989.425 272.209 989.425H144.661C129.513 989.425 117 977.131 117 961.764C117 946.616 129.294 934.103 144.661 934.103C146.198 934.103 147.734 934.323 149.271 934.542C155.857 911.711 179.566 898.319 202.617 904.686C203.715 904.905 204.812 905.344 205.91 905.784C226.766 891.734 255.305 897.222 269.355 918.077C272.648 923.126 275.063 928.615 276.16 934.542C289.771 936.518 299.87 948.153 299.87 961.764Z" fill="#72BDF6"/>
<path d="M529.87 292.764C529.87 307.912 517.576 320.425 502.209 320.425H374.661C359.513 320.425 347 308.131 347 292.764C347 277.616 359.294 265.103 374.661 265.103C376.198 265.103 377.734 265.323 379.271 265.542C385.857 242.711 409.566 229.319 432.617 235.686C433.715 235.905 434.812 236.344 435.91 236.784C456.766 222.734 485.305 228.222 499.355 249.077C502.648 254.126 505.063 259.615 506.16 265.542C519.771 267.518 529.87 279.153 529.87 292.764Z" fill="#72BDF6"/>
<path d="M288.87 350.764C288.87 365.912 276.576 378.425 261.209 378.425H133.661C118.513 378.425 106 366.131 106 350.764C106 335.616 118.294 323.103 133.661 323.103C135.198 323.103 136.734 323.323 138.271 323.542C144.857 300.711 168.566 287.319 191.617 293.686C192.715 293.905 193.812 294.344 194.91 294.784C215.766 280.734 244.305 286.222 258.355 307.077C261.648 312.126 264.063 317.615 265.16 323.542C278.771 325.518 288.87 337.153 288.87 350.764Z" fill="#72BDF6"/>
<path d="M1015.87 576.764C1015.87 591.912 1003.58 604.425 988.209 604.425H860.661C845.513 604.425 833 592.131 833 576.764C833 561.616 845.294 549.103 860.661 549.103C862.198 549.103 863.734 549.323 865.271 549.542C871.857 526.711 895.566 513.319 918.617 519.686C919.715 519.905 920.812 520.344 921.91 520.784C942.766 506.734 971.305 512.222 985.355 533.077C988.648 538.126 991.063 543.615 992.16 549.542C1005.77 551.518 1015.87 563.153 1015.87 576.764Z" fill="#72BDF6"/>
<path d="M1084.87 885.764C1084.87 900.912 1072.58 913.425 1057.21 913.425H929.661C914.513 913.425 902 901.131 902 885.764C902 870.616 914.294 858.103 929.661 858.103C931.198 858.103 932.734 858.323 934.271 858.542C940.857 835.711 964.566 822.319 987.617 828.686C988.715 828.905 989.812 829.344 990.91 829.784C1011.77 815.734 1040.3 821.222 1054.35 842.077C1057.65 847.126 1060.06 852.615 1061.16 858.542C1074.77 860.518 1084.87 872.153 1084.87 885.764Z" fill="#72BDF6"/>
<path d="M583.87 804.764C583.87 819.912 571.576 832.425 556.209 832.425H428.661C413.513 832.425 401 820.131 401 804.764C401 789.616 413.294 777.103 428.661 777.103C430.198 777.103 431.734 777.323 433.271 777.542C439.857 754.711 463.566 741.319 486.617 747.686C487.715 747.905 488.812 748.344 489.91 748.784C510.766 734.734 539.305 740.222 553.355 761.077C556.648 766.126 559.063 771.615 560.16 777.542C573.771 779.518 583.87 791.153 583.87 804.764Z" fill="#72BDF6"/>
<path d="M201.87 518.764C201.87 533.912 189.576 546.425 174.209 546.425H46.6609C31.5133 546.425 19 534.131 19 518.764C19 503.616 31.2937 491.103 46.6609 491.103C48.1977 491.103 49.7344 491.323 51.2711 491.542C57.857 468.711 81.5664 455.319 104.617 461.686C105.715 461.905 106.812 462.344 107.91 462.784C128.766 448.734 157.305 454.222 171.355 475.077C174.648 480.126 177.063 485.615 178.16 491.542C191.771 493.518 201.87 505.153 201.87 518.764Z" fill="#72BDF6"/>
<path d="M1190.87 350.764C1190.87 365.912 1178.58 378.425 1163.21 378.425H1035.66C1020.51 378.425 1008 366.131 1008 350.764C1008 335.616 1020.29 323.103 1035.66 323.103C1037.2 323.103 1038.73 323.323 1040.27 323.542C1046.86 300.711 1070.57 287.319 1093.62 293.686C1094.71 293.905 1095.81 294.344 1096.91 294.784C1117.77 280.734 1146.3 286.222 1160.35 307.077C1163.65 312.126 1166.06 317.615 1167.16 323.542C1180.77 325.518 1190.87 337.153 1190.87 350.764Z" fill="#72BDF6"/>
<path d="M1197.87 102.764C1197.87 117.912 1185.58 130.425 1170.21 130.425H1042.66C1027.51 130.425 1015 118.131 1015 102.764C1015 87.6163 1027.29 75.103 1042.66 75.103C1044.2 75.103 1045.73 75.3226 1047.27 75.5421C1053.86 52.7109 1077.57 39.3194 1100.62 45.6859C1101.71 45.9054 1102.81 46.3444 1103.91 46.7835C1124.77 32.7335 1153.3 38.2218 1167.35 59.0773C1170.65 64.1265 1173.06 69.6148 1174.16 75.5421C1187.77 77.5179 1197.87 89.153 1197.87 102.764Z" fill="#72BDF6"/>
<path d="M1402.87 241.764C1402.87 256.912 1390.58 269.425 1375.21 269.425H1247.66C1232.51 269.425 1220 257.131 1220 241.764C1220 226.616 1232.29 214.103 1247.66 214.103C1249.2 214.103 1250.73 214.323 1252.27 214.542C1258.86 191.711 1282.57 178.319 1305.62 184.686C1306.71 184.905 1307.81 185.344 1308.91 185.784C1329.77 171.734 1358.3 177.222 1372.35 198.077C1375.65 203.126 1378.06 208.615 1379.16 214.542C1392.77 216.518 1402.87 228.153 1402.87 241.764Z" fill="#72BDF6"/>
</svg>
