<svg width="1440" height="1024" viewBox="0 0 1440 1024" fill="none" xmlns="http://www.w3.org/2000/svg">
<g clip-path="url(#clip0)">
<rect width="1440" height="1024" fill="#194B56"/>
<rect y="854" width="1440" height="170" fill="#093759"/>
<g clip-path="url(#clip1)">
<path d="M254.316 66.114C253.123 66.114 251.928 66.15 250.734 66.222C240.938 43.079 217.434 27.391 191.513 27.391C156.178 27.391 127.431 55.569 127.431 90.204C127.431 90.325 127.431 90.447 127.432 90.569C103.732 92.352 85 111.846 85 135.552C85 160.428 105.625 180.665 130.977 180.665H254.317C286.526 180.665 312.731 154.972 312.731 123.39C312.731 91.808 286.526 66.114 254.316 66.114ZM254.316 165.665H130.977C113.896 165.665 100 152.156 100 135.552C100 118.947 113.896 105.437 130.977 105.437C132.031 105.437 133.203 105.516 134.664 105.687C136.981 105.961 139.288 105.136 140.912 103.465C142.537 101.793 143.291 99.461 142.955 97.155C142.608 94.775 142.432 92.436 142.432 90.204C142.432 63.84 164.45 42.391 191.514 42.391C213.054 42.391 232.393 56.426 238.541 76.523C239.643 80.123 243.244 82.354 246.953 81.725C249.373 81.32 251.85 81.114 254.316 81.114C278.254 81.114 297.73 100.079 297.73 123.389C297.73 146.7 278.255 165.665 254.316 165.665Z" fill="white"/>
<path d="M132.55 192.049L111.064 213.535C108.135 216.465 108.135 221.213 111.064 224.142C112.528 225.606 114.448 226.338 116.367 226.338C118.286 226.338 120.206 225.606 121.67 224.142L143.156 202.656C146.085 199.726 146.085 194.978 143.156 192.049C140.228 189.121 135.479 189.121 132.55 192.049Z" fill="white"/>
<path d="M178.386 192.05L156.902 213.536C153.973 216.465 153.974 221.214 156.903 224.142C158.368 225.606 160.287 226.338 162.206 226.338C164.125 226.338 166.045 225.606 167.51 224.141L188.994 202.655C191.923 199.726 191.922 194.977 188.993 192.049C186.063 189.121 181.314 189.12 178.386 192.05Z" fill="white"/>
<path d="M224.222 192.05L202.738 213.536C199.809 216.465 199.81 221.214 202.739 224.142C204.204 225.606 206.123 226.338 208.042 226.338C209.961 226.338 211.881 225.606 213.346 224.141L234.83 202.655C237.759 199.726 237.758 194.977 234.829 192.049C231.899 189.121 227.15 189.12 224.222 192.05Z" fill="white"/>
<path d="M270.06 192.049L248.574 213.535C245.645 216.465 245.645 221.213 248.574 224.142C250.038 225.606 251.958 226.338 253.877 226.338C255.796 226.338 257.716 225.606 259.18 224.142L280.666 202.656C283.595 199.726 283.595 194.978 280.666 192.049C277.738 189.121 272.989 189.121 270.06 192.049Z" fill="white"/>
</g>
<path d="M89.6828 238.196L68.1967 259.682C65.2678 262.612 65.2678 267.36 68.1967 270.289C69.6607 271.753 71.5808 272.485 73.4998 272.485C75.4188 272.485 77.3387 271.753 78.8027 270.289L100.289 248.803C103.218 245.873 103.218 241.125 100.289 238.196C97.3607 235.268 92.6118 235.268 89.6828 238.196Z" fill="white"/>
<path d="M135.519 238.197L114.035 259.683C111.106 262.612 111.107 267.361 114.036 270.289C115.501 271.753 117.42 272.485 119.339 272.485C121.258 272.485 123.178 271.753 124.643 270.288L146.127 248.802C149.056 245.873 149.055 241.124 146.126 238.196C143.196 235.268 138.447 235.267 135.519 238.197Z" fill="white"/>
<path d="M181.355 238.197L159.871 259.683C156.942 262.612 156.943 267.361 159.872 270.289C161.337 271.753 163.256 272.485 165.175 272.485C167.094 272.485 169.014 271.753 170.479 270.288L191.963 248.802C194.892 245.873 194.891 241.124 191.962 238.196C189.032 235.268 184.283 235.267 181.355 238.197Z" fill="white"/>
<path d="M227.193 238.196L205.707 259.682C202.778 262.612 202.778 267.36 205.707 270.289C207.171 271.753 209.091 272.485 211.01 272.485C212.929 272.485 214.849 271.753 216.313 270.289L237.799 248.803C240.728 245.873 240.728 241.125 237.799 238.196C234.871 235.268 230.122 235.268 227.193 238.196Z" fill="white"/>
<g clip-path="url(#clip2)">
<path d="M592.316 66.114C591.123 66.114 589.928 66.15 588.734 66.222C578.938 43.079 555.434 27.391 529.513 27.391C494.178 27.391 465.431 55.569 465.431 90.204C465.431 90.325 465.431 90.447 465.432 90.569C441.732 92.352 423 111.846 423 135.552C423 160.428 443.625 180.665 468.977 180.665H592.317C624.526 180.665 650.731 154.972 650.731 123.39C650.731 91.808 624.526 66.114 592.316 66.114ZM592.316 165.665H468.977C451.896 165.665 438 152.156 438 135.552C438 118.947 451.896 105.437 468.977 105.437C470.031 105.437 471.203 105.516 472.664 105.687C474.981 105.961 477.288 105.136 478.912 103.465C480.537 101.793 481.291 99.461 480.955 97.155C480.608 94.775 480.432 92.436 480.432 90.204C480.432 63.84 502.45 42.391 529.514 42.391C551.054 42.391 570.393 56.426 576.541 76.523C577.643 80.123 581.244 82.354 584.953 81.725C587.373 81.32 589.85 81.114 592.316 81.114C616.254 81.114 635.73 100.079 635.73 123.389C635.73 146.7 616.255 165.665 592.316 165.665Z" fill="white"/>
<path d="M470.55 192.049L449.064 213.535C446.135 216.465 446.135 221.213 449.064 224.142C450.528 225.606 452.448 226.338 454.367 226.338C456.286 226.338 458.206 225.606 459.67 224.142L481.156 202.656C484.085 199.726 484.085 194.978 481.156 192.049C478.228 189.121 473.479 189.121 470.55 192.049Z" fill="white"/>
<path d="M516.386 192.05L494.902 213.536C491.973 216.465 491.974 221.214 494.903 224.142C496.368 225.606 498.287 226.338 500.206 226.338C502.125 226.338 504.045 225.606 505.51 224.141L526.994 202.655C529.923 199.726 529.922 194.977 526.993 192.049C524.063 189.121 519.314 189.12 516.386 192.05Z" fill="white"/>
<path d="M562.222 192.05L540.738 213.536C537.809 216.465 537.81 221.214 540.739 224.142C542.204 225.606 544.123 226.338 546.042 226.338C547.961 226.338 549.881 225.606 551.346 224.141L572.83 202.655C575.759 199.726 575.758 194.977 572.829 192.049C569.899 189.121 565.15 189.12 562.222 192.05Z" fill="white"/>
<path d="M608.06 192.049L586.574 213.535C583.645 216.465 583.645 221.213 586.574 224.142C588.038 225.606 589.958 226.338 591.877 226.338C593.796 226.338 595.716 225.606 597.18 224.142L618.666 202.656C621.595 199.726 621.595 194.978 618.666 192.049C615.738 189.121 610.989 189.121 608.06 192.049Z" fill="white"/>
</g>
<path d="M427.683 238.196L406.197 259.682C403.268 262.612 403.268 267.36 406.197 270.289C407.661 271.753 409.581 272.485 411.5 272.485C413.419 272.485 415.339 271.753 416.803 270.289L438.289 248.803C441.218 245.873 441.218 241.125 438.289 238.196C435.361 235.268 430.612 235.268 427.683 238.196Z" fill="white"/>
<path d="M473.519 238.197L452.035 259.683C449.106 262.612 449.107 267.361 452.036 270.289C453.501 271.753 455.42 272.485 457.339 272.485C459.258 272.485 461.178 271.753 462.643 270.288L484.127 248.802C487.056 245.873 487.055 241.124 484.126 238.196C481.196 235.268 476.447 235.267 473.519 238.197Z" fill="white"/>
<path d="M519.355 238.197L497.871 259.683C494.942 262.612 494.943 267.361 497.872 270.289C499.337 271.753 501.256 272.485 503.175 272.485C505.094 272.485 507.014 271.753 508.479 270.288L529.963 248.802C532.892 245.873 532.891 241.124 529.962 238.196C527.032 235.268 522.283 235.267 519.355 238.197Z" fill="white"/>
<path d="M565.193 238.196L543.707 259.682C540.778 262.612 540.778 267.36 543.707 270.289C545.171 271.753 547.091 272.485 549.01 272.485C550.929 272.485 552.849 271.753 554.313 270.289L575.799 248.803C578.728 245.873 578.728 241.125 575.799 238.196C572.871 235.268 568.122 235.268 565.193 238.196Z" fill="white"/>
<g clip-path="url(#clip3)">
<path d="M937.316 66.114C936.123 66.114 934.928 66.15 933.734 66.222C923.938 43.079 900.434 27.391 874.513 27.391C839.178 27.391 810.431 55.569 810.431 90.204C810.431 90.325 810.431 90.447 810.432 90.569C786.732 92.352 768 111.846 768 135.552C768 160.428 788.625 180.665 813.977 180.665H937.317C969.526 180.665 995.731 154.972 995.731 123.39C995.731 91.808 969.526 66.114 937.316 66.114ZM937.316 165.665H813.977C796.896 165.665 783 152.156 783 135.552C783 118.947 796.896 105.437 813.977 105.437C815.031 105.437 816.203 105.516 817.664 105.687C819.981 105.961 822.288 105.136 823.912 103.465C825.537 101.793 826.291 99.461 825.955 97.155C825.608 94.775 825.432 92.436 825.432 90.204C825.432 63.84 847.45 42.391 874.514 42.391C896.054 42.391 915.393 56.426 921.541 76.523C922.643 80.123 926.244 82.354 929.953 81.725C932.373 81.32 934.85 81.114 937.316 81.114C961.254 81.114 980.73 100.079 980.73 123.389C980.73 146.7 961.255 165.665 937.316 165.665Z" fill="white"/>
<path d="M815.55 192.049L794.064 213.535C791.135 216.465 791.135 221.213 794.064 224.142C795.528 225.606 797.448 226.338 799.367 226.338C801.286 226.338 803.206 225.606 804.67 224.142L826.156 202.656C829.085 199.726 829.085 194.978 826.156 192.049C823.228 189.121 818.479 189.121 815.55 192.049Z" fill="white"/>
<path d="M861.386 192.05L839.902 213.536C836.973 216.465 836.974 221.214 839.903 224.142C841.368 225.606 843.287 226.338 845.206 226.338C847.125 226.338 849.045 225.606 850.51 224.141L871.994 202.655C874.923 199.726 874.922 194.977 871.993 192.049C869.063 189.121 864.314 189.12 861.386 192.05Z" fill="white"/>
<path d="M907.222 192.05L885.738 213.536C882.809 216.465 882.81 221.214 885.739 224.142C887.204 225.606 889.123 226.338 891.042 226.338C892.961 226.338 894.881 225.606 896.346 224.141L917.83 202.655C920.759 199.726 920.758 194.977 917.829 192.049C914.899 189.121 910.15 189.12 907.222 192.05Z" fill="white"/>
<path d="M953.06 192.049L931.574 213.535C928.645 216.465 928.645 221.213 931.574 224.142C933.038 225.606 934.958 226.338 936.877 226.338C938.796 226.338 940.716 225.606 942.18 224.142L963.666 202.656C966.595 199.726 966.595 194.978 963.666 192.049C960.738 189.121 955.989 189.121 953.06 192.049Z" fill="white"/>
</g>
<path d="M772.683 238.196L751.197 259.682C748.268 262.612 748.268 267.36 751.197 270.289C752.661 271.753 754.581 272.485 756.5 272.485C758.419 272.485 760.339 271.753 761.803 270.289L783.289 248.803C786.218 245.873 786.218 241.125 783.289 238.196C780.361 235.268 775.612 235.268 772.683 238.196Z" fill="white"/>
<path d="M818.519 238.197L797.035 259.683C794.106 262.612 794.107 267.361 797.036 270.289C798.501 271.753 800.42 272.485 802.339 272.485C804.258 272.485 806.178 271.753 807.643 270.288L829.127 248.802C832.056 245.873 832.055 241.124 829.126 238.196C826.196 235.268 821.447 235.267 818.519 238.197Z" fill="white"/>
<path d="M864.355 238.197L842.871 259.683C839.942 262.612 839.943 267.361 842.872 270.289C844.337 271.753 846.256 272.485 848.175 272.485C850.094 272.485 852.014 271.753 853.479 270.288L874.963 248.802C877.892 245.873 877.891 241.124 874.962 238.196C872.032 235.268 867.283 235.267 864.355 238.197Z" fill="white"/>
<path d="M910.193 238.196L888.707 259.682C885.778 262.612 885.778 267.36 888.707 270.289C890.171 271.753 892.091 272.485 894.01 272.485C895.929 272.485 897.849 271.753 899.313 270.289L920.799 248.803C923.728 245.873 923.728 241.125 920.799 238.196C917.871 235.268 913.122 235.268 910.193 238.196Z" fill="white"/>
<g clip-path="url(#clip4)">
<path d="M1276.32 66.114C1275.12 66.114 1273.93 66.15 1272.73 66.222C1262.94 43.079 1239.43 27.391 1213.51 27.391C1178.18 27.391 1149.43 55.569 1149.43 90.204C1149.43 90.325 1149.43 90.447 1149.43 90.569C1125.73 92.352 1107 111.846 1107 135.552C1107 160.428 1127.63 180.665 1152.98 180.665H1276.32C1308.53 180.665 1334.73 154.972 1334.73 123.39C1334.73 91.808 1308.53 66.114 1276.32 66.114ZM1276.32 165.665H1152.98C1135.9 165.665 1122 152.156 1122 135.552C1122 118.947 1135.9 105.437 1152.98 105.437C1154.03 105.437 1155.2 105.516 1156.66 105.687C1158.98 105.961 1161.29 105.136 1162.91 103.465C1164.54 101.793 1165.29 99.461 1164.96 97.155C1164.61 94.775 1164.43 92.436 1164.43 90.204C1164.43 63.84 1186.45 42.391 1213.51 42.391C1235.05 42.391 1254.39 56.426 1260.54 76.523C1261.64 80.123 1265.24 82.354 1268.95 81.725C1271.37 81.32 1273.85 81.114 1276.32 81.114C1300.25 81.114 1319.73 100.079 1319.73 123.389C1319.73 146.7 1300.25 165.665 1276.32 165.665Z" fill="white"/>
<path d="M1154.55 192.049L1133.06 213.535C1130.13 216.465 1130.13 221.213 1133.06 224.142C1134.53 225.606 1136.45 226.338 1138.37 226.338C1140.29 226.338 1142.21 225.606 1143.67 224.142L1165.16 202.656C1168.08 199.726 1168.08 194.978 1165.16 192.049C1162.23 189.121 1157.48 189.121 1154.55 192.049Z" fill="white"/>
<path d="M1200.39 192.05L1178.9 213.536C1175.97 216.465 1175.97 221.214 1178.9 224.142C1180.37 225.606 1182.29 226.338 1184.21 226.338C1186.13 226.338 1188.05 225.606 1189.51 224.141L1210.99 202.655C1213.92 199.726 1213.92 194.977 1210.99 192.049C1208.06 189.121 1203.31 189.12 1200.39 192.05Z" fill="white"/>
<path d="M1246.22 192.05L1224.74 213.536C1221.81 216.465 1221.81 221.214 1224.74 224.142C1226.2 225.606 1228.12 226.338 1230.04 226.338C1231.96 226.338 1233.88 225.606 1235.35 224.141L1256.83 202.655C1259.76 199.726 1259.76 194.977 1256.83 192.049C1253.9 189.121 1249.15 189.12 1246.22 192.05Z" fill="white"/>
<path d="M1292.06 192.049L1270.57 213.535C1267.64 216.465 1267.64 221.213 1270.57 224.142C1272.04 225.606 1273.96 226.338 1275.88 226.338C1277.8 226.338 1279.72 225.606 1281.18 224.142L1302.67 202.656C1305.59 199.726 1305.59 194.978 1302.67 192.049C1299.74 189.121 1294.99 189.121 1292.06 192.049Z" fill="white"/>
</g>
<path d="M1111.68 238.196L1090.2 259.682C1087.27 262.612 1087.27 267.36 1090.2 270.289C1091.66 271.753 1093.58 272.485 1095.5 272.485C1097.42 272.485 1099.34 271.753 1100.8 270.289L1122.29 248.803C1125.22 245.873 1125.22 241.125 1122.29 238.196C1119.36 235.268 1114.61 235.268 1111.68 238.196Z" fill="white"/>
<path d="M1157.52 238.197L1136.03 259.683C1133.11 262.612 1133.11 267.361 1136.04 270.289C1137.5 271.753 1139.42 272.485 1141.34 272.485C1143.26 272.485 1145.18 271.753 1146.64 270.288L1168.13 248.802C1171.06 245.873 1171.05 241.124 1168.13 238.196C1165.2 235.268 1160.45 235.267 1157.52 238.197Z" fill="white"/>
<path d="M1203.35 238.197L1181.87 259.683C1178.94 262.612 1178.94 267.361 1181.87 270.289C1183.34 271.753 1185.26 272.485 1187.17 272.485C1189.09 272.485 1191.01 271.753 1192.48 270.288L1213.96 248.802C1216.89 245.873 1216.89 241.124 1213.96 238.196C1211.03 235.268 1206.28 235.267 1203.35 238.197Z" fill="white"/>
<path d="M1249.19 238.196L1227.71 259.682C1224.78 262.612 1224.78 267.36 1227.71 270.289C1229.17 271.753 1231.09 272.485 1233.01 272.485C1234.93 272.485 1236.85 271.753 1238.31 270.289L1259.8 248.803C1262.73 245.873 1262.73 241.125 1259.8 238.196C1256.87 235.268 1252.12 235.268 1249.19 238.196Z" fill="white"/>
<path d="M1305.84 847.109H1222.55L1219.79 838.822C1219.55 838.109 1219.09 837.489 1218.48 837.05C1217.87 836.611 1217.14 836.375 1216.39 836.375H1205.66V750.5H1209.23C1210.18 750.5 1211.09 750.123 1211.76 749.452C1212.44 748.781 1212.81 747.871 1212.81 746.922C1212.81 745.973 1212.44 745.063 1211.76 744.392C1211.09 743.721 1210.18 743.344 1209.23 743.344H1198.5V682.516C1198.51 675.875 1201.15 669.509 1205.84 664.813C1210.54 660.117 1216.91 657.476 1223.55 657.469H1233.83V661.047C1233.83 661.996 1234.21 662.906 1234.88 663.577C1235.55 664.248 1236.46 664.625 1237.41 664.625H1237.72C1238.56 669.627 1241.15 674.168 1245.02 677.443C1248.9 680.718 1253.81 682.515 1258.88 682.515C1263.95 682.515 1268.86 680.718 1272.74 677.443C1276.61 674.168 1279.2 669.627 1280.05 664.625H1280.35C1281.3 664.625 1282.21 664.248 1282.88 663.577C1283.55 662.906 1283.93 661.996 1283.93 661.047V650.312C1283.93 649.364 1283.55 648.453 1282.88 647.782C1282.21 647.111 1281.3 646.734 1280.35 646.734H1237.41C1236.46 646.734 1235.55 647.111 1234.88 647.782C1234.21 648.453 1233.83 649.364 1233.83 650.312H1223.55C1217.63 650.318 1211.83 651.952 1206.78 655.035C1201.73 658.119 1197.63 662.532 1194.92 667.792C1192.21 662.532 1188.11 658.119 1183.06 655.035C1178.01 651.952 1172.21 650.318 1166.3 650.312H1156.01C1156.01 649.364 1155.63 648.453 1154.96 647.782C1154.29 647.111 1153.38 646.734 1152.43 646.734H1109.49C1108.55 646.734 1107.64 647.111 1106.96 647.782C1106.29 648.453 1105.92 649.364 1105.92 650.312V661.047C1105.92 661.996 1106.29 662.906 1106.96 663.577C1107.64 664.248 1108.55 664.625 1109.49 664.625H1109.8C1110.64 669.627 1113.23 674.168 1117.11 677.443C1120.98 680.718 1125.89 682.515 1130.96 682.515C1136.04 682.515 1140.94 680.718 1144.82 677.443C1148.69 674.168 1151.28 669.627 1152.13 664.625H1152.43C1153.38 664.625 1154.29 664.248 1154.96 663.577C1155.63 662.906 1156.01 661.996 1156.01 661.047V657.469H1166.3C1172.94 657.476 1179.3 660.117 1184 664.813C1188.7 669.509 1191.34 675.875 1191.34 682.516V743.344H1180.61C1179.66 743.344 1178.75 743.721 1178.08 744.392C1177.41 745.063 1177.03 745.973 1177.03 746.922C1177.03 747.871 1177.41 748.781 1178.08 749.452C1178.75 750.123 1179.66 750.5 1180.61 750.5H1184.19V836.375H1173.45C1172.7 836.375 1171.97 836.611 1171.36 837.05C1170.75 837.489 1170.3 838.109 1170.06 838.822L1167.29 847.109H1091.16C1090.21 847.109 1089.3 847.486 1088.63 848.157C1087.96 848.828 1087.58 849.739 1087.58 850.688C1087.58 851.636 1087.96 852.547 1088.63 853.218C1089.3 853.889 1090.21 854.266 1091.16 854.266H1305.84C1306.79 854.266 1307.7 853.889 1308.37 853.218C1309.04 852.547 1309.42 851.636 1309.42 850.688C1309.42 849.739 1309.04 848.828 1308.37 848.157C1307.7 847.486 1306.79 847.109 1305.84 847.109ZM1258.88 675.359C1255.71 675.356 1252.63 674.3 1250.12 672.357C1247.61 670.415 1245.82 667.696 1245.02 664.625H1272.74C1271.94 667.696 1270.15 670.415 1267.64 672.357C1265.13 674.3 1262.05 675.356 1258.88 675.359ZM1240.99 653.891H1276.77V657.469H1240.99V653.891ZM1130.96 675.359C1127.79 675.356 1124.71 674.3 1122.2 672.357C1119.69 670.415 1117.9 667.696 1117.1 664.625H1144.82C1144.03 667.696 1142.23 670.415 1139.72 672.357C1137.22 674.3 1134.14 675.356 1130.96 675.359V675.359ZM1148.85 657.469H1113.07V653.891H1148.85V657.469ZM1191.34 750.5H1198.5V754.078H1191.34V750.5ZM1191.34 761.234H1198.5V825.641H1191.34V761.234ZM1191.34 832.797H1198.5V836.375H1191.34V832.797ZM1174.84 847.109L1176.03 843.531H1213.81L1215 847.109H1174.84Z" fill="#00C9D6"/>
<path d="M1110.39 686.963L1100.96 696.385C1099.68 697.67 1099.68 699.753 1100.96 701.037C1101.61 701.679 1102.45 702 1103.29 702C1104.13 702 1104.97 701.679 1105.61 701.037L1115.04 691.615C1116.32 690.33 1116.32 688.247 1115.04 686.963C1113.75 685.679 1111.67 685.679 1110.39 686.963Z" fill="#FAFF05"/>
<path d="M1150.33 692.583L1160.34 701.371C1161.71 702.569 1163.79 702.433 1164.99 701.067C1165.58 700.385 1165.85 699.524 1165.8 698.684C1165.74 697.844 1165.37 697.025 1164.68 696.426L1154.67 687.639C1153.3 686.441 1151.22 686.577 1150.02 687.942C1148.83 689.307 1148.96 691.386 1150.33 692.583Z" fill="#FAFF05"/>
<path d="M1128.94 694.69L1129.1 708.014C1129.13 709.831 1130.62 711.285 1132.43 711.264C1133.34 711.253 1134.16 710.875 1134.75 710.273C1135.33 709.67 1135.69 708.844 1135.68 707.936L1135.52 694.612C1135.5 692.795 1134.01 691.34 1132.19 691.362C1130.38 691.384 1128.92 692.874 1128.94 694.69Z" fill="#FAFF05"/>
<path d="M1239.39 686.963L1229.96 696.385C1228.68 697.67 1228.68 699.753 1229.96 701.037C1230.61 701.679 1231.45 702 1232.29 702C1233.13 702 1233.97 701.679 1234.61 701.037L1244.04 691.615C1245.32 690.33 1245.32 688.247 1244.04 686.963C1242.75 685.679 1240.67 685.679 1239.39 686.963Z" fill="#FAFF05"/>
<path d="M1279.33 692.583L1289.34 701.371C1290.71 702.569 1292.79 702.433 1293.99 701.067C1294.58 700.385 1294.85 699.524 1294.8 698.684C1294.74 697.844 1294.37 697.025 1293.68 696.426L1283.67 687.639C1282.3 686.441 1280.22 686.577 1279.02 687.942C1277.83 689.307 1277.96 691.386 1279.33 692.583Z" fill="#FAFF05"/>
<path d="M1257.94 694.69L1258.1 708.014C1258.13 709.831 1259.62 711.285 1261.43 711.264C1262.34 711.253 1263.16 710.875 1263.75 710.273C1264.33 709.67 1264.69 708.844 1264.68 707.936L1264.52 694.612C1264.5 692.795 1263.01 691.34 1261.19 691.362C1259.38 691.384 1257.92 692.874 1257.94 694.69Z" fill="#FAFF05"/>
<path d="M826.844 847.109H743.549L740.785 838.822C740.548 838.109 740.092 837.489 739.483 837.05C738.874 836.611 738.142 836.375 737.391 836.375H726.656V750.5H730.234C731.183 750.5 732.093 750.123 732.764 749.452C733.436 748.781 733.812 747.871 733.812 746.922C733.812 745.973 733.436 745.063 732.764 744.392C732.093 743.721 731.183 743.344 730.234 743.344H719.5V682.516C719.507 675.875 722.149 669.509 726.844 664.813C731.54 660.117 737.906 657.476 744.547 657.469H754.834V661.047C754.834 661.996 755.211 662.906 755.882 663.577C756.553 664.248 757.463 664.625 758.412 664.625H758.716C759.561 669.627 762.15 674.168 766.024 677.443C769.899 680.718 774.808 682.515 779.881 682.515C784.954 682.515 789.863 680.718 793.737 677.443C797.612 674.168 800.201 669.627 801.045 664.625H801.35C802.299 664.625 803.209 664.248 803.88 663.577C804.551 662.906 804.928 661.996 804.928 661.047V650.312C804.928 649.364 804.551 648.453 803.88 647.782C803.209 647.111 802.299 646.734 801.35 646.734H758.412C757.463 646.734 756.553 647.111 755.882 647.782C755.211 648.453 754.834 649.364 754.834 650.312H744.547C738.631 650.318 732.831 651.952 727.782 655.035C722.733 658.119 718.63 662.532 715.922 667.792C713.214 662.532 709.111 658.119 704.062 655.035C699.013 651.952 693.213 650.318 687.297 650.312H677.01C677.01 649.364 676.633 648.453 675.962 647.782C675.291 647.111 674.381 646.734 673.432 646.734H630.494C629.545 646.734 628.635 647.111 627.964 647.782C627.293 648.453 626.916 649.364 626.916 650.312V661.047C626.916 661.996 627.293 662.906 627.964 663.577C628.635 664.248 629.545 664.625 630.494 664.625H630.798C631.643 669.627 634.232 674.168 638.107 677.443C641.981 680.718 646.89 682.515 651.963 682.515C657.036 682.515 661.945 680.718 665.819 677.443C669.694 674.168 672.283 669.627 673.128 664.625H673.432C674.381 664.625 675.291 664.248 675.962 663.577C676.633 662.906 677.01 661.996 677.01 661.047V657.469H687.297C693.937 657.476 700.304 660.117 705 664.813C709.695 669.509 712.336 675.875 712.344 682.516V743.344H701.609C700.66 743.344 699.75 743.721 699.079 744.392C698.408 745.063 698.031 745.973 698.031 746.922C698.031 747.871 698.408 748.781 699.079 749.452C699.75 750.123 700.66 750.5 701.609 750.5H705.188V836.375H694.453C693.702 836.375 692.97 836.611 692.361 837.05C691.752 837.489 691.296 838.109 691.058 838.822L688.294 847.109H612.156C611.207 847.109 610.297 847.486 609.626 848.157C608.955 848.828 608.578 849.739 608.578 850.688C608.578 851.636 608.955 852.547 609.626 853.218C610.297 853.889 611.207 854.266 612.156 854.266H826.844C827.793 854.266 828.703 853.889 829.374 853.218C830.045 852.547 830.422 851.636 830.422 850.688C830.422 849.739 830.045 848.828 829.374 848.157C828.703 847.486 827.793 847.109 826.844 847.109ZM779.881 675.359C776.708 675.356 773.627 674.3 771.119 672.357C768.611 670.415 766.817 667.696 766.02 664.625H793.742C792.944 667.696 791.151 670.415 788.643 672.357C786.135 674.3 783.053 675.356 779.881 675.359ZM761.99 653.891H797.771V657.469H761.99V653.891ZM651.963 675.359C648.791 675.356 645.709 674.3 643.201 672.357C640.693 670.415 638.9 667.696 638.102 664.625H665.824C665.026 667.696 663.233 670.415 660.725 672.357C658.217 674.3 655.135 675.356 651.963 675.359V675.359ZM669.854 657.469H634.072V653.891H669.854V657.469ZM712.344 750.5H719.5V754.078H712.344V750.5ZM712.344 761.234H719.5V825.641H712.344V761.234ZM712.344 832.797H719.5V836.375H712.344V832.797ZM695.84 847.109L697.034 843.531H734.81L736.004 847.109H695.84Z" fill="#00C9D6"/>
<path d="M629.386 682.963L619.963 692.385C618.679 693.67 618.679 695.753 619.963 697.037C620.605 697.679 621.447 698 622.289 698C623.13 698 623.972 697.679 624.614 697.037L634.037 687.615C635.321 686.33 635.321 684.247 634.037 682.963C632.753 681.679 630.67 681.679 629.386 682.963Z" fill="#FAFF05"/>
<path d="M669.327 688.583L679.344 697.371C680.71 698.569 682.788 698.433 683.986 697.067C684.585 696.385 684.85 695.524 684.795 694.684C684.74 693.844 684.365 693.025 683.683 692.426L673.666 683.639C672.3 682.441 670.222 682.577 669.024 683.942C667.826 685.307 667.962 687.386 669.327 688.583Z" fill="#FAFF05"/>
<path d="M647.944 690.69L648.104 704.014C648.126 705.831 649.616 707.285 651.432 707.264C652.34 707.253 653.158 706.875 653.746 706.273C654.334 705.67 654.692 704.844 654.681 703.936L654.522 690.612C654.5 688.795 653.01 687.34 651.193 687.362C649.378 687.384 647.923 688.874 647.944 690.69Z" fill="#FAFF05"/>
<path d="M759.386 686.963L749.963 696.385C748.679 697.67 748.679 699.753 749.963 701.037C750.605 701.679 751.447 702 752.289 702C753.13 702 753.972 701.679 754.614 701.037L764.037 691.615C765.321 690.33 765.321 688.247 764.037 686.963C762.753 685.679 760.67 685.679 759.386 686.963Z" fill="#FAFF05"/>
<path d="M799.327 692.583L809.344 701.371C810.71 702.569 812.788 702.433 813.986 701.067C814.585 700.385 814.85 699.524 814.795 698.684C814.74 697.844 814.365 697.025 813.683 696.426L803.666 687.639C802.3 686.441 800.222 686.577 799.024 687.942C797.826 689.307 797.962 691.386 799.327 692.583Z" fill="#FAFF05"/>
<path d="M777.944 694.69L778.104 708.014C778.126 709.831 779.616 711.285 781.432 711.264C782.34 711.253 783.158 710.875 783.746 710.273C784.334 709.67 784.692 708.844 784.681 707.936L784.522 694.612C784.5 692.795 783.01 691.34 781.193 691.362C779.378 691.384 777.923 692.874 777.944 694.69Z" fill="#FAFF05"/>
<path d="M347.844 847.109H264.549L261.785 838.822C261.548 838.109 261.092 837.489 260.483 837.05C259.874 836.611 259.142 836.375 258.391 836.375H247.656V750.5H251.234C252.183 750.5 253.093 750.123 253.764 749.452C254.436 748.781 254.812 747.871 254.812 746.922C254.812 745.973 254.436 745.063 253.764 744.392C253.093 743.721 252.183 743.344 251.234 743.344H240.5V682.516C240.507 675.875 243.149 669.509 247.844 664.813C252.54 660.117 258.906 657.476 265.547 657.469H275.834V661.047C275.834 661.996 276.211 662.906 276.882 663.577C277.553 664.248 278.463 664.625 279.412 664.625H279.716C280.561 669.627 283.15 674.168 287.024 677.443C290.899 680.718 295.808 682.515 300.881 682.515C305.954 682.515 310.863 680.718 314.737 677.443C318.612 674.168 321.201 669.627 322.045 664.625H322.35C323.299 664.625 324.209 664.248 324.88 663.577C325.551 662.906 325.928 661.996 325.928 661.047V650.312C325.928 649.364 325.551 648.453 324.88 647.782C324.209 647.111 323.299 646.734 322.35 646.734H279.412C278.463 646.734 277.553 647.111 276.882 647.782C276.211 648.453 275.834 649.364 275.834 650.312H265.547C259.631 650.318 253.831 651.952 248.782 655.035C243.733 658.119 239.63 662.532 236.922 667.792C234.214 662.532 230.111 658.119 225.062 655.035C220.013 651.952 214.213 650.318 208.297 650.312H198.01C198.01 649.364 197.633 648.453 196.962 647.782C196.291 647.111 195.381 646.734 194.432 646.734H151.494C150.545 646.734 149.635 647.111 148.964 647.782C148.293 648.453 147.916 649.364 147.916 650.312V661.047C147.916 661.996 148.293 662.906 148.964 663.577C149.635 664.248 150.545 664.625 151.494 664.625H151.798C152.643 669.627 155.232 674.168 159.107 677.443C162.981 680.718 167.89 682.515 172.963 682.515C178.036 682.515 182.945 680.718 186.819 677.443C190.694 674.168 193.283 669.627 194.128 664.625H194.432C195.381 664.625 196.291 664.248 196.962 663.577C197.633 662.906 198.01 661.996 198.01 661.047V657.469H208.297C214.937 657.476 221.304 660.117 226 664.813C230.695 669.509 233.336 675.875 233.344 682.516V743.344H222.609C221.66 743.344 220.75 743.721 220.079 744.392C219.408 745.063 219.031 745.973 219.031 746.922C219.031 747.871 219.408 748.781 220.079 749.452C220.75 750.123 221.66 750.5 222.609 750.5H226.188V836.375H215.453C214.702 836.375 213.97 836.611 213.361 837.05C212.752 837.489 212.296 838.109 212.058 838.822L209.294 847.109H133.156C132.207 847.109 131.297 847.486 130.626 848.157C129.955 848.828 129.578 849.739 129.578 850.688C129.578 851.636 129.955 852.547 130.626 853.218C131.297 853.889 132.207 854.266 133.156 854.266H347.844C348.793 854.266 349.703 853.889 350.374 853.218C351.045 852.547 351.422 851.636 351.422 850.688C351.422 849.739 351.045 848.828 350.374 848.157C349.703 847.486 348.793 847.109 347.844 847.109ZM300.881 675.359C297.708 675.356 294.627 674.3 292.119 672.357C289.611 670.415 287.817 667.696 287.02 664.625H314.742C313.944 667.696 312.151 670.415 309.643 672.357C307.135 674.3 304.053 675.356 300.881 675.359ZM282.99 653.891H318.771V657.469H282.99V653.891ZM172.963 675.359C169.791 675.356 166.709 674.3 164.201 672.357C161.693 670.415 159.9 667.696 159.102 664.625H186.824C186.026 667.696 184.233 670.415 181.725 672.357C179.217 674.3 176.135 675.356 172.963 675.359V675.359ZM190.854 657.469H155.072V653.891H190.854V657.469ZM233.344 750.5H240.5V754.078H233.344V750.5ZM233.344 761.234H240.5V825.641H233.344V761.234ZM233.344 832.797H240.5V836.375H233.344V832.797ZM216.84 847.109L218.034 843.531H255.81L257.004 847.109H216.84Z" fill="#00C9D6"/>
<path d="M150.386 682.963L140.963 692.385C139.679 693.67 139.679 695.753 140.963 697.037C141.605 697.679 142.447 698 143.289 698C144.13 698 144.972 697.679 145.614 697.037L155.037 687.615C156.321 686.33 156.321 684.247 155.037 682.963C153.753 681.679 151.67 681.679 150.386 682.963Z" fill="#FAFF05"/>
<path d="M190.327 688.583L200.344 697.371C201.71 698.569 203.788 698.433 204.986 697.067C205.585 696.385 205.85 695.524 205.795 694.684C205.74 693.844 205.365 693.025 204.683 692.426L194.666 683.639C193.3 682.441 191.222 682.577 190.024 683.942C188.826 685.307 188.962 687.386 190.327 688.583Z" fill="#FAFF05"/>
<path d="M168.944 690.69L169.104 704.014C169.126 705.831 170.616 707.285 172.432 707.264C173.34 707.253 174.158 706.875 174.746 706.273C175.334 705.67 175.692 704.844 175.681 703.936L175.522 690.612C175.5 688.795 174.01 687.34 172.193 687.362C170.378 687.384 168.923 688.874 168.944 690.69Z" fill="#FAFF05"/>
<path d="M280.386 686.963L270.963 696.385C269.679 697.67 269.679 699.753 270.963 701.037C271.605 701.679 272.447 702 273.289 702C274.13 702 274.972 701.679 275.614 701.037L285.037 691.615C286.321 690.33 286.321 688.247 285.037 686.963C283.753 685.679 281.67 685.679 280.386 686.963Z" fill="#FAFF05"/>
<path d="M320.327 692.583L330.344 701.371C331.71 702.569 333.788 702.433 334.986 701.067C335.585 700.385 335.85 699.524 335.795 698.684C335.74 697.844 335.365 697.025 334.683 696.426L324.666 687.639C323.3 686.441 321.222 686.577 320.024 687.942C318.826 689.307 318.962 691.386 320.327 692.583Z" fill="#FAFF05"/>
<path d="M298.944 694.69L299.104 708.014C299.126 709.831 300.616 711.285 302.432 711.264C303.34 711.253 304.158 710.875 304.746 710.273C305.334 709.67 305.692 708.844 305.681 707.936L305.522 694.612C305.5 692.795 304.01 691.34 302.193 691.362C300.378 691.384 298.923 692.874 298.944 694.69Z" fill="#FAFF05"/>
<rect x="41" y="927" width="178" height="24" rx="12" fill="#DBA6A6"/>
<rect x="527" y="927" width="178" height="24" rx="12" fill="#DBA6A6"/>
<rect x="1013" y="927" width="178" height="24" rx="12" fill="#DBA6A6"/>
<rect x="248" y="927" width="64" height="24" rx="12" fill="#DBA6A6"/>
<rect x="341" y="927" width="64" height="24" rx="12" fill="#DBA6A6"/>
<rect x="920" y="927" width="64" height="24" rx="12" fill="#DBA6A6"/>
<rect x="1406" y="927" width="64" height="24" rx="12" fill="#DBA6A6"/>
<rect x="1313" y="927" width="64" height="24" rx="12" fill="#DBA6A6"/>
<rect x="1220" y="927" width="64" height="24" rx="12" fill="#DBA6A6"/>
<rect x="434" y="927" width="64" height="24" rx="12" fill="#DBA6A6"/>
<rect x="827" y="927" width="64" height="24" rx="12" fill="#DBA6A6"/>
<rect x="734" y="927" width="64" height="24" rx="12" fill="#DBA6A6"/>
<rect x="-14" y="927" width="26" height="24" rx="12" fill="#DBA6A6"/>
</g>
<defs>
<clipPath id="clip0">
<rect width="1440" height="1024" fill="white"/>
</clipPath>
<clipPath id="clip1">
<rect width="227.73" height="227.73" fill="white" transform="translate(85 13)"/>
</clipPath>
<clipPath id="clip2">
<rect width="227.73" height="227.73" fill="white" transform="translate(423 13)"/>
</clipPath>
<clipPath id="clip3">
<rect width="227.73" height="227.73" fill="white" transform="translate(768 13)"/>
</clipPath>
<clipPath id="clip4">
<rect width="227.73" height="227.73" fill="white" transform="translate(1107 13)"/>
</clipPath>
</defs>
</svg>
