<svg width="1440" height="1024" viewBox="0 0 1440 1024" fill="none" xmlns="http://www.w3.org/2000/svg">
<rect width="1440" height="1024" fill="#A43939"/>
<rect y="854" width="1440" height="170" fill="#4D0000"/>
<g clip-path="url(#clip0)">
<path d="M916 665.741L1028 732.941V854H948L916 665.741Z" fill="black"/>
<path d="M564 854H484V732.941L596 665.741L564 854Z" fill="black"/>
<path d="M756 310H740V342H708V374H740V438H756L772 358L756 310Z" fill="#936DE3"/>
<path d="M772 342V310H756V438H772V374H804V342H772Z" fill="#7B3FDC"/>
<path d="M756 617.509C683.341 617.49 610.845 617.486 628 617.555V509.766L756 418.338L884 552.846L756 617.509Z" fill="#327735"/>
<path d="M756 418.337V617.509C812.875 617.524 869.849 617.549 884 617.555V509.766L756 418.337Z" fill="#013406"/>
<path d="M564 774V635.697L756 548.424L948 758L756 854L564 774Z" fill="#3D9B52"/>
<path d="M948 774V635.697L756 548.424V854L948 774Z" fill="#327735"/>
<path d="M932 470H900C900 452.355 885.645 438 868 438V406C887.094 406 904.263 414.406 916 427.711C927.737 414.406 944.906 406 964 406V438C946.355 438 932 452.355 932 470Z" fill="#327735"/>
<path d="M996 374H964C964 356.355 949.645 342 932 342V310C951.094 310 968.263 318.406 980 331.711C991.737 318.406 1008.91 310 1028 310V342C1010.36 342 996 356.355 996 374Z" fill="#327735"/>
<path d="M612 470H580C580 452.355 565.645 438 548 438V406C567.094 406 584.263 414.406 596 427.711C607.737 414.406 624.906 406 644 406V438C626.355 438 612 452.355 612 470Z" fill="#3D9B52"/>
<path d="M548 374H516C516 356.355 501.645 342 484 342V310C503.094 310 520.263 318.406 532 331.711C543.737 318.406 560.906 310 580 310V342C562.355 342 548 356.355 548 374Z" fill="#3D9B52"/>
<path d="M804 774H819.999H948V854H819.999L804 774Z" fill="#013406"/>
<path d="M692 854H564V774H692H708L692 854Z" fill="#327735"/>
<path d="M756 854H692V710C692 674.654 720.654 646 756 646L820 758L756 854Z" fill="#936DE3"/>
<path d="M756 646V854H820V710C820 674.654 791.346 646 756 646Z" fill="#7B3FDC"/>
</g>
<g clip-path="url(#clip1)">
<path d="M781.91 801.196L794.118 797.48C802.778 794.835 812.287 795.705 820.207 799.825C826.491 803.111 833.533 804.736 840.576 804.736C847.618 804.736 854.66 803.102 860.944 799.825C868.855 795.696 878.355 794.835 887.033 797.471L899.241 801.187C901.68 801.89 904.268 800.642 905.044 798.341C905.821 796.03 904.481 793.561 902.05 792.815L889.833 789.098C878.761 785.742 866.618 786.841 856.499 792.121C846.675 797.234 834.476 797.234 824.652 792.121C814.524 786.849 802.371 785.751 791.309 789.107L779.101 792.823C776.661 793.57 775.321 796.039 776.107 798.349C776.874 800.642 779.452 801.89 781.91 801.196Z" fill="#E9F8FF"/>
<path d="M902.05 819.179L889.833 815.463C878.761 812.116 866.618 813.214 856.499 818.485C846.675 823.598 834.476 823.598 824.652 818.485C814.524 813.214 802.371 812.116 791.309 815.463L779.101 819.179C776.661 819.926 775.321 822.395 776.107 824.705C776.874 827.007 779.452 828.263 781.91 827.552L794.118 823.836C802.778 821.209 812.287 822.061 820.207 826.181C826.491 829.467 833.533 831.092 840.575 831.092C847.618 831.092 854.66 829.458 860.944 826.181C868.855 822.061 878.355 821.191 887.033 823.827L899.241 827.543C901.68 828.263 904.268 826.989 905.044 824.697C905.83 822.395 904.49 819.926 902.05 819.179Z" fill="#E9F8FF"/>
<path d="M902.05 845.535L889.833 841.819C878.761 838.472 866.618 839.57 856.498 844.841C846.675 849.954 834.476 849.954 824.652 844.841C814.523 839.57 802.371 838.472 791.309 841.819L779.101 845.535C776.67 846.282 775.33 848.751 776.106 851.061C776.874 853.372 779.452 854.611 781.91 853.908L794.118 850.192C802.777 847.556 812.287 848.417 820.207 852.546C826.491 855.823 833.524 857.457 840.575 857.457C847.627 857.457 854.659 855.823 860.944 852.546C868.854 848.417 878.355 847.556 887.032 850.192L899.241 853.908C901.68 854.611 904.268 853.363 905.044 851.061C905.83 848.751 904.49 846.282 902.05 845.535Z" fill="#E9F8FF"/>
<path d="M902.05 871.891L889.833 868.175C878.761 864.819 866.618 865.926 856.498 871.197C846.675 876.31 834.476 876.31 824.652 871.197C814.523 865.926 802.371 864.819 791.309 868.175L779.101 871.891C776.67 872.638 775.33 875.107 776.106 877.417C776.874 879.719 779.452 880.975 781.91 880.264L794.118 876.548C802.777 873.912 812.287 874.773 820.207 878.902C826.491 882.179 833.524 883.813 840.575 883.813C847.627 883.813 854.659 882.179 860.944 878.902C868.854 874.773 878.355 873.912 887.032 876.548L899.241 880.264C901.68 880.984 904.268 879.719 905.044 877.417C905.83 875.107 904.49 872.638 902.05 871.891Z" fill="#E9F8FF"/>
</g>
<g clip-path="url(#clip2)">
<path d="M902.882 801.196L915.09 797.48C923.749 794.835 933.259 795.705 941.179 799.825C947.463 803.111 954.505 804.736 961.547 804.736C968.589 804.736 975.631 803.102 981.915 799.825C989.826 795.696 999.327 794.835 1008 797.471L1020.21 801.187C1022.65 801.89 1025.24 800.642 1026.02 798.341C1026.79 796.03 1025.45 793.561 1023.02 792.815L1010.8 789.098C999.733 785.742 987.59 786.841 977.47 792.121C967.647 797.234 955.448 797.234 945.624 792.121C935.495 786.849 923.343 785.751 912.281 789.107L900.073 792.823C897.633 793.57 896.293 796.039 897.078 798.349C897.845 800.642 900.424 801.89 902.882 801.196Z" fill="#E9F8FF"/>
<path d="M1023.02 819.179L1010.8 815.463C999.733 812.116 987.59 813.214 977.47 818.485C967.647 823.598 955.448 823.598 945.624 818.485C935.495 813.214 923.343 812.116 912.281 815.463L900.073 819.179C897.633 819.926 896.293 822.395 897.078 824.705C897.845 827.007 900.424 828.263 902.882 827.552L915.09 823.836C923.749 821.209 933.259 822.061 941.179 826.181C947.463 829.467 954.505 831.092 961.547 831.092C968.589 831.092 975.631 829.458 981.915 826.181C989.826 822.061 999.327 821.191 1008 823.827L1020.21 827.543C1022.65 828.263 1025.24 826.989 1026.02 824.697C1026.8 822.395 1025.46 819.926 1023.02 819.179Z" fill="#E9F8FF"/>
<path d="M1023.02 845.535L1010.8 841.819C999.733 838.472 987.59 839.57 977.47 844.841C967.646 849.954 955.448 849.954 945.624 844.841C935.495 839.57 923.343 838.472 912.28 841.819L900.072 845.535C897.642 846.282 896.302 848.751 897.078 851.061C897.845 853.372 900.424 854.611 902.882 853.908L915.09 850.192C923.749 847.556 933.259 848.417 941.179 852.546C947.463 855.823 954.496 857.457 961.547 857.457C968.598 857.457 975.631 855.823 981.915 852.546C989.826 848.417 999.326 847.556 1008 850.192L1020.21 853.908C1022.65 854.611 1025.24 853.363 1026.02 851.061C1026.8 848.751 1025.46 846.282 1023.02 845.535Z" fill="#E9F8FF"/>
<path d="M1023.02 871.891L1010.8 868.175C999.733 864.819 987.59 865.926 977.47 871.197C967.646 876.31 955.448 876.31 945.624 871.197C935.495 865.926 923.343 864.819 912.28 868.175L900.072 871.891C897.642 872.638 896.302 875.107 897.078 877.417C897.845 879.719 900.424 880.975 902.882 880.264L915.09 876.548C923.749 873.912 933.259 874.773 941.179 878.902C947.463 882.179 954.496 883.813 961.547 883.813C968.598 883.813 975.631 882.179 981.915 878.902C989.826 874.773 999.326 873.912 1008 876.548L1020.21 880.264C1022.65 880.984 1025.24 879.719 1026.02 877.417C1026.8 875.107 1025.46 872.638 1023.02 871.891Z" fill="#E9F8FF"/>
</g>
<g clip-path="url(#clip3)">
<path d="M539.967 801.196L552.175 797.48C560.834 794.835 570.344 795.705 578.264 799.825C584.548 803.111 591.59 804.736 598.632 804.736C605.674 804.736 612.716 803.102 619 799.825C626.911 795.696 636.411 794.835 645.089 797.471L657.297 801.187C659.737 801.89 662.325 800.642 663.101 798.341C663.877 796.03 662.537 793.561 660.107 792.815L647.889 789.098C636.818 785.742 624.675 786.841 614.555 792.121C604.732 797.234 592.533 797.234 582.709 792.121C572.58 786.849 560.428 785.751 549.366 789.107L537.158 792.823C534.718 793.57 533.378 796.039 534.163 798.349C534.93 800.642 537.509 801.89 539.967 801.196Z" fill="#E9F8FF"/>
<path d="M660.107 819.179L647.889 815.463C636.818 812.116 624.675 813.214 614.555 818.485C604.732 823.598 592.533 823.598 582.709 818.485C572.58 813.214 560.428 812.116 549.366 815.463L537.158 819.179C534.718 819.926 533.378 822.395 534.163 824.705C534.93 827.007 537.509 828.263 539.967 827.552L552.175 823.836C560.834 821.209 570.344 822.061 578.264 826.181C584.548 829.467 591.59 831.092 598.632 831.092C605.674 831.092 612.716 829.458 619 826.181C626.911 822.061 636.411 821.191 645.089 823.827L657.297 827.543C659.737 828.263 662.325 826.989 663.101 824.697C663.887 822.395 662.547 819.926 660.107 819.179Z" fill="#E9F8FF"/>
<path d="M660.107 845.535L647.889 841.819C636.818 838.472 624.675 839.57 614.555 844.841C604.731 849.954 592.533 849.954 582.709 844.841C572.58 839.57 560.427 838.472 549.365 841.819L537.157 845.535C534.727 846.282 533.387 848.751 534.163 851.061C534.93 853.372 537.508 854.611 539.967 853.908L552.175 850.192C560.834 847.556 570.344 848.417 578.264 852.546C584.548 855.823 591.581 857.457 598.632 857.457C605.683 857.457 612.716 855.823 619 852.546C626.911 848.417 636.411 847.556 645.089 850.192L657.297 853.908C659.737 854.611 662.324 853.363 663.101 851.061C663.886 848.751 662.546 846.282 660.107 845.535Z" fill="#E9F8FF"/>
<path d="M660.107 871.891L647.889 868.175C636.818 864.819 624.675 865.926 614.555 871.197C604.731 876.31 592.533 876.31 582.709 871.197C572.58 865.926 560.427 864.819 549.365 868.175L537.157 871.891C534.727 872.638 533.387 875.107 534.163 877.417C534.93 879.719 537.508 880.975 539.967 880.264L552.175 876.548C560.834 873.912 570.344 874.773 578.264 878.902C584.548 882.179 591.581 883.813 598.632 883.813C605.683 883.813 612.716 882.179 619 878.902C626.911 874.773 636.411 873.912 645.089 876.548L657.297 880.264C659.737 880.984 662.324 879.719 663.101 877.417C663.886 875.107 662.546 872.638 660.107 871.891Z" fill="#E9F8FF"/>
</g>
<g clip-path="url(#clip4)">
<path d="M660.939 801.196L673.147 797.48C681.806 794.835 691.316 795.705 699.236 799.825C705.52 803.111 712.562 804.736 719.604 804.736C726.646 804.736 733.688 803.102 739.972 799.825C747.883 795.696 757.383 794.835 766.061 797.471L778.269 801.187C780.709 801.89 783.296 800.642 784.073 798.341C784.849 796.03 783.509 793.561 781.078 792.815L768.861 789.098C757.79 785.742 745.646 786.841 735.527 792.121C725.703 797.234 713.504 797.234 703.681 792.121C693.552 786.849 681.399 785.751 670.337 789.107L658.129 792.823C655.689 793.57 654.349 796.039 655.135 798.349C655.902 800.642 658.48 801.89 660.939 801.196Z" fill="#E9F8FF"/>
<path d="M781.078 819.179L768.861 815.463C757.79 812.116 745.646 813.214 735.527 818.485C725.703 823.598 713.504 823.598 703.681 818.485C693.552 813.214 681.399 812.116 670.337 815.463L658.129 819.179C655.689 819.926 654.349 822.395 655.135 824.705C655.902 827.007 658.48 828.263 660.939 827.552L673.147 823.836C681.806 821.209 691.316 822.061 699.236 826.181C705.52 829.467 712.562 831.092 719.604 831.092C726.646 831.092 733.688 829.458 739.972 826.181C747.883 822.061 757.383 821.191 766.061 823.827L778.269 827.543C780.709 828.263 783.296 826.989 784.073 824.697C784.858 822.395 783.518 819.926 781.078 819.179Z" fill="#E9F8FF"/>
<path d="M781.078 845.535L768.861 841.819C757.79 838.472 745.646 839.57 735.527 844.841C725.703 849.954 713.504 849.954 703.681 844.841C693.552 839.57 681.399 838.472 670.337 841.819L658.129 845.535C655.699 846.282 654.358 848.751 655.135 851.061C655.902 853.372 658.48 854.611 660.938 853.908L673.147 850.192C681.806 847.556 691.315 848.417 699.235 852.546C705.52 855.823 712.552 857.457 719.604 857.457C726.655 857.457 733.688 855.823 739.972 852.546C747.883 848.417 757.383 847.556 766.061 850.192L778.269 853.908C780.709 854.611 783.296 853.363 784.073 851.061C784.858 848.751 783.518 846.282 781.078 845.535Z" fill="#E9F8FF"/>
<path d="M781.078 871.891L768.861 868.175C757.79 864.819 745.646 865.926 735.527 871.197C725.703 876.31 713.504 876.31 703.681 871.197C693.552 865.926 681.399 864.819 670.337 868.175L658.129 871.891C655.699 872.638 654.358 875.107 655.135 877.417C655.902 879.719 658.48 880.975 660.938 880.264L673.147 876.548C681.806 873.912 691.315 874.773 699.235 878.902C705.52 882.179 712.552 883.813 719.604 883.813C726.655 883.813 733.688 882.179 739.972 878.902C747.883 874.773 757.383 873.912 766.061 876.548L778.269 880.264C780.709 880.984 783.296 879.719 784.073 877.417C784.858 875.107 783.518 872.638 781.078 871.891Z" fill="#E9F8FF"/>
</g>
<g clip-path="url(#clip5)">
<path d="M1141.67 801.196L1153.88 797.48C1162.54 794.835 1172.05 795.705 1179.97 799.825C1186.25 803.111 1193.29 804.736 1200.33 804.736C1207.38 804.736 1214.42 803.102 1220.7 799.825C1228.61 795.696 1238.11 794.835 1246.79 797.471L1259 801.187C1261.44 801.89 1264.03 800.642 1264.8 798.341C1265.58 796.03 1264.24 793.561 1261.81 792.815L1249.59 789.098C1238.52 785.742 1226.38 786.841 1216.26 792.121C1206.43 797.234 1194.24 797.234 1184.41 792.121C1174.28 786.849 1162.13 785.751 1151.07 789.107L1138.86 792.823C1136.42 793.57 1135.08 796.039 1135.87 798.349C1136.63 800.642 1139.21 801.89 1141.67 801.196Z" fill="#E9F8FF"/>
<path d="M1261.81 819.179L1249.59 815.463C1238.52 812.116 1226.38 813.214 1216.26 818.485C1206.43 823.598 1194.24 823.598 1184.41 818.485C1174.28 813.214 1162.13 812.116 1151.07 815.463L1138.86 819.179C1136.42 819.926 1135.08 822.395 1135.87 824.705C1136.63 827.007 1139.21 828.263 1141.67 827.552L1153.88 823.836C1162.54 821.209 1172.05 822.061 1179.97 826.181C1186.25 829.467 1193.29 831.092 1200.33 831.092C1207.38 831.092 1214.42 829.458 1220.7 826.181C1228.61 822.061 1238.11 821.191 1246.79 823.827L1259 827.543C1261.44 828.263 1264.03 826.989 1264.8 824.697C1265.59 822.395 1264.25 819.926 1261.81 819.179Z" fill="#E9F8FF"/>
<path d="M1261.81 845.535L1249.59 841.819C1238.52 838.472 1226.38 839.57 1216.26 844.841C1206.43 849.954 1194.24 849.954 1184.41 844.841C1174.28 839.57 1162.13 838.472 1151.07 841.819L1138.86 845.535C1136.43 846.282 1135.09 848.751 1135.87 851.061C1136.63 853.372 1139.21 854.611 1141.67 853.908L1153.88 850.192C1162.54 847.556 1172.05 848.417 1179.97 852.546C1186.25 855.823 1193.28 857.457 1200.33 857.457C1207.39 857.457 1214.42 855.823 1220.7 852.546C1228.61 848.417 1238.11 847.556 1246.79 850.192L1259 853.908C1261.44 854.611 1264.03 853.363 1264.8 851.061C1265.59 848.751 1264.25 846.282 1261.81 845.535Z" fill="#E9F8FF"/>
<path d="M1261.81 871.891L1249.59 868.175C1238.52 864.819 1226.38 865.926 1216.26 871.197C1206.43 876.31 1194.24 876.31 1184.41 871.197C1174.28 865.926 1162.13 864.819 1151.07 868.175L1138.86 871.891C1136.43 872.638 1135.09 875.107 1135.87 877.417C1136.63 879.719 1139.21 880.975 1141.67 880.264L1153.88 876.548C1162.54 873.912 1172.05 874.773 1179.97 878.902C1186.25 882.179 1193.28 883.813 1200.33 883.813C1207.39 883.813 1214.42 882.179 1220.7 878.902C1228.61 874.773 1238.11 873.912 1246.79 876.548L1259 880.264C1261.44 880.984 1264.03 879.719 1264.8 877.417C1265.59 875.107 1264.25 872.638 1261.81 871.891Z" fill="#E9F8FF"/>
</g>
<g clip-path="url(#clip6)">
<path d="M1262.64 801.196L1274.85 797.48C1283.51 794.835 1293.02 795.705 1300.94 799.825C1307.22 803.111 1314.26 804.736 1321.31 804.736C1328.35 804.736 1335.39 803.102 1341.67 799.825C1349.59 795.696 1359.09 794.835 1367.76 797.471L1379.97 801.187C1382.41 801.89 1385 800.642 1385.78 798.341C1386.55 796.03 1385.21 793.561 1382.78 792.815L1370.56 789.098C1359.49 785.742 1347.35 786.841 1337.23 792.121C1327.41 797.234 1315.21 797.234 1305.38 792.121C1295.25 786.849 1283.1 785.751 1272.04 789.107L1259.83 792.823C1257.39 793.57 1256.05 796.039 1256.84 798.349C1257.6 800.642 1260.18 801.89 1262.64 801.196Z" fill="#E9F8FF"/>
<path d="M1382.78 819.179L1370.56 815.463C1359.49 812.116 1347.35 813.214 1337.23 818.485C1327.41 823.598 1315.21 823.598 1305.38 818.485C1295.25 813.214 1283.1 812.116 1272.04 815.463L1259.83 819.179C1257.39 819.926 1256.05 822.395 1256.84 824.705C1257.6 827.007 1260.18 828.263 1262.64 827.552L1274.85 823.836C1283.51 821.209 1293.02 822.061 1300.94 826.181C1307.22 829.467 1314.26 831.092 1321.31 831.092C1328.35 831.092 1335.39 829.458 1341.67 826.181C1349.59 822.061 1359.09 821.191 1367.76 823.827L1379.97 827.543C1382.41 828.263 1385 826.989 1385.78 824.697C1386.56 822.395 1385.22 819.926 1382.78 819.179Z" fill="#E9F8FF"/>
<path d="M1382.78 845.535L1370.56 841.819C1359.49 838.472 1347.35 839.57 1337.23 844.841C1327.41 849.954 1315.21 849.954 1305.38 844.841C1295.25 839.57 1283.1 838.472 1272.04 841.819L1259.83 845.535C1257.4 846.282 1256.06 848.751 1256.84 851.061C1257.6 853.372 1260.18 854.611 1262.64 853.908L1274.85 850.192C1283.51 847.556 1293.02 848.417 1300.94 852.546C1307.22 855.823 1314.26 857.457 1321.31 857.457C1328.36 857.457 1335.39 855.823 1341.67 852.546C1349.59 848.417 1359.09 847.556 1367.76 850.192L1379.97 853.908C1382.41 854.611 1385 853.363 1385.78 851.061C1386.56 848.751 1385.22 846.282 1382.78 845.535Z" fill="#E9F8FF"/>
<path d="M1382.78 871.891L1370.56 868.175C1359.49 864.819 1347.35 865.926 1337.23 871.197C1327.41 876.31 1315.21 876.31 1305.38 871.197C1295.25 865.926 1283.1 864.819 1272.04 868.175L1259.83 871.891C1257.4 872.638 1256.06 875.107 1256.84 877.417C1257.6 879.719 1260.18 880.975 1262.64 880.264L1274.85 876.548C1283.51 873.912 1293.02 874.773 1300.94 878.902C1307.22 882.179 1314.26 883.813 1321.31 883.813C1328.36 883.813 1335.39 882.179 1341.67 878.902C1349.59 874.773 1359.09 873.912 1367.76 876.548L1379.97 880.264C1382.41 880.984 1385 879.719 1385.78 877.417C1386.56 875.107 1385.22 872.638 1382.78 871.891Z" fill="#E9F8FF"/>
</g>
<g clip-path="url(#clip7)">
<path d="M899.726 801.196L911.934 797.48C920.594 794.835 930.103 795.705 938.023 799.825C944.307 803.111 951.349 804.736 958.391 804.736C965.433 804.736 972.476 803.102 978.76 799.825C986.67 795.696 996.171 794.835 1004.85 797.471L1017.06 801.187C1019.5 801.89 1022.08 800.642 1022.86 798.341C1023.64 796.03 1022.3 793.561 1019.87 792.815L1007.65 789.098C996.577 785.742 984.434 786.841 974.315 792.121C964.491 797.234 952.292 797.234 942.468 792.121C932.34 786.849 920.187 785.751 909.125 789.107L896.917 792.823C894.477 793.57 893.137 796.039 893.923 798.349C894.69 800.642 897.268 801.89 899.726 801.196Z" fill="#E9F8FF"/>
<path d="M1019.87 819.179L1007.65 815.463C996.577 812.116 984.434 813.214 974.315 818.485C964.491 823.598 952.292 823.598 942.468 818.485C932.34 813.214 920.187 812.116 909.125 815.463L896.917 819.179C894.477 819.926 893.137 822.395 893.923 824.705C894.69 827.007 897.268 828.263 899.726 827.552L911.934 823.836C920.594 821.209 930.103 822.061 938.023 826.181C944.307 829.467 951.349 831.092 958.391 831.092C965.433 831.092 972.475 829.458 978.76 826.181C986.67 822.061 996.171 821.191 1004.85 823.827L1017.06 827.543C1019.5 828.263 1022.08 826.989 1022.86 824.697C1023.65 822.395 1022.31 819.926 1019.87 819.179Z" fill="#E9F8FF"/>
<path d="M1019.87 845.535L1007.65 841.819C996.577 838.472 984.434 839.57 974.314 844.841C964.491 849.954 952.292 849.954 942.468 844.841C932.339 839.57 920.187 838.472 909.125 841.819L896.917 845.535C894.486 846.282 893.146 848.751 893.922 851.061C894.689 853.372 897.268 854.611 899.726 853.908L911.934 850.192C920.593 847.556 930.103 848.417 938.023 852.546C944.307 855.823 951.34 857.457 958.391 857.457C965.443 857.457 972.475 855.823 978.76 852.546C986.67 848.417 996.171 847.556 1004.85 850.192L1017.06 853.908C1019.5 854.611 1022.08 853.363 1022.86 851.061C1023.65 848.751 1022.31 846.282 1019.87 845.535Z" fill="#E9F8FF"/>
<path d="M1019.87 871.891L1007.65 868.175C996.577 864.819 984.434 865.926 974.314 871.197C964.491 876.31 952.292 876.31 942.468 871.197C932.339 865.926 920.187 864.819 909.125 868.175L896.917 871.891C894.486 872.638 893.146 875.107 893.922 877.417C894.689 879.719 897.268 880.975 899.726 880.264L911.934 876.548C920.593 873.912 930.103 874.773 938.023 878.902C944.307 882.179 951.34 883.813 958.391 883.813C965.443 883.813 972.475 882.179 978.76 878.902C986.67 874.773 996.171 873.912 1004.85 876.548L1017.06 880.264C1019.5 880.984 1022.08 879.719 1022.86 877.417C1023.65 875.107 1022.31 872.638 1019.87 871.891Z" fill="#E9F8FF"/>
</g>
<g clip-path="url(#clip8)">
<path d="M1020.7 801.196L1032.91 797.48C1041.57 794.835 1051.07 795.705 1058.99 799.825C1065.28 803.111 1072.32 804.736 1079.36 804.736C1086.41 804.736 1093.45 803.102 1099.73 799.825C1107.64 795.696 1117.14 794.835 1125.82 797.471L1138.03 801.187C1140.47 801.89 1143.06 800.642 1143.83 798.341C1144.61 796.03 1143.27 793.561 1140.84 792.815L1128.62 789.098C1117.55 785.742 1105.41 786.841 1095.29 792.121C1085.46 797.234 1073.26 797.234 1063.44 792.121C1053.31 786.849 1041.16 785.751 1030.1 789.107L1017.89 792.823C1015.45 793.57 1014.11 796.039 1014.89 798.349C1015.66 800.642 1018.24 801.89 1020.7 801.196Z" fill="#E9F8FF"/>
<path d="M1140.84 819.179L1128.62 815.463C1117.55 812.116 1105.41 813.214 1095.29 818.485C1085.46 823.598 1073.26 823.598 1063.44 818.485C1053.31 813.214 1041.16 812.116 1030.1 815.463L1017.89 819.179C1015.45 819.926 1014.11 822.395 1014.89 824.705C1015.66 827.007 1018.24 828.263 1020.7 827.552L1032.91 823.836C1041.57 821.209 1051.07 822.061 1058.99 826.181C1065.28 829.467 1072.32 831.092 1079.36 831.092C1086.41 831.092 1093.45 829.458 1099.73 826.181C1107.64 822.061 1117.14 821.191 1125.82 823.827L1138.03 827.543C1140.47 828.263 1143.06 826.989 1143.83 824.697C1144.62 822.395 1143.28 819.926 1140.84 819.179Z" fill="#E9F8FF"/>
<path d="M1140.84 845.535L1128.62 841.819C1117.55 838.472 1105.41 839.57 1095.29 844.841C1085.46 849.954 1073.26 849.954 1063.44 844.841C1053.31 839.57 1041.16 838.472 1030.1 841.819L1017.89 845.535C1015.46 846.282 1014.12 848.751 1014.89 851.061C1015.66 853.372 1018.24 854.611 1020.7 853.908L1032.91 850.192C1041.57 847.556 1051.07 848.417 1058.99 852.546C1065.28 855.823 1072.31 857.457 1079.36 857.457C1086.41 857.457 1093.45 855.823 1099.73 852.546C1107.64 848.417 1117.14 847.556 1125.82 850.192L1138.03 853.908C1140.47 854.611 1143.06 853.363 1143.83 851.061C1144.62 848.751 1143.28 846.282 1140.84 845.535Z" fill="#E9F8FF"/>
<path d="M1140.84 871.891L1128.62 868.175C1117.55 864.819 1105.41 865.926 1095.29 871.197C1085.46 876.31 1073.26 876.31 1063.44 871.197C1053.31 865.926 1041.16 864.819 1030.1 868.175L1017.89 871.891C1015.46 872.638 1014.12 875.107 1014.89 877.417C1015.66 879.719 1018.24 880.975 1020.7 880.264L1032.91 876.548C1041.57 873.912 1051.07 874.773 1058.99 878.902C1065.28 882.179 1072.31 883.813 1079.36 883.813C1086.41 883.813 1093.45 882.179 1099.73 878.902C1107.64 874.773 1117.14 873.912 1125.82 876.548L1138.03 880.264C1140.47 880.984 1143.06 879.719 1143.83 877.417C1144.62 875.107 1143.28 872.638 1140.84 871.891Z" fill="#E9F8FF"/>
</g>
<g clip-path="url(#clip9)">
<path d="M296.972 801.196L309.18 797.48C317.839 794.835 327.349 795.705 335.269 799.825C341.553 803.111 348.595 804.736 355.637 804.736C362.679 804.736 369.721 803.102 376.005 799.825C383.916 795.696 393.416 794.835 402.094 797.471L414.302 801.187C416.742 801.89 419.329 800.642 420.106 798.341C420.882 796.03 419.542 793.561 417.112 792.815L404.894 789.098C393.823 785.742 381.68 786.841 371.56 792.121C361.736 797.234 349.537 797.234 339.714 792.121C329.585 786.849 317.432 785.751 306.37 789.107L294.162 792.823C291.723 793.57 290.383 796.039 291.168 798.349C291.935 800.642 294.513 801.89 296.972 801.196Z" fill="#E9F8FF"/>
<path d="M417.112 819.179L404.894 815.463C393.823 812.116 381.68 813.214 371.56 818.485C361.736 823.598 349.537 823.598 339.714 818.485C329.585 813.214 317.432 812.116 306.37 815.463L294.162 819.179C291.723 819.926 290.383 822.395 291.168 824.705C291.935 827.007 294.513 828.263 296.972 827.552L309.18 823.836C317.839 821.209 327.349 822.061 335.269 826.181C341.553 829.467 348.595 831.092 355.637 831.092C362.679 831.092 369.721 829.458 376.005 826.181C383.916 822.061 393.416 821.191 402.094 823.827L414.302 827.543C416.742 828.263 419.329 826.989 420.106 824.697C420.891 822.395 419.551 819.926 417.112 819.179Z" fill="#E9F8FF"/>
<path d="M417.111 845.535L404.894 841.819C393.823 838.472 381.679 839.57 371.56 844.841C361.736 849.954 349.537 849.954 339.714 844.841C329.585 839.57 317.432 838.472 306.37 841.819L294.162 845.535C291.732 846.282 290.392 848.751 291.168 851.061C291.935 853.372 294.513 854.611 296.971 853.908L309.18 850.192C317.839 847.556 327.348 848.417 335.268 852.546C341.553 855.823 348.585 857.457 355.637 857.457C362.688 857.457 369.721 855.823 376.005 852.546C383.916 848.417 393.416 847.556 402.094 850.192L414.302 853.908C416.742 854.611 419.329 853.363 420.106 851.061C420.891 848.751 419.551 846.282 417.111 845.535Z" fill="#E9F8FF"/>
<path d="M417.111 871.891L404.894 868.175C393.823 864.819 381.679 865.926 371.56 871.197C361.736 876.31 349.537 876.31 339.714 871.197C329.585 865.926 317.432 864.819 306.37 868.175L294.162 871.891C291.732 872.638 290.392 875.107 291.168 877.417C291.935 879.719 294.513 880.975 296.971 880.264L309.18 876.548C317.839 873.912 327.348 874.773 335.268 878.902C341.553 882.179 348.585 883.813 355.637 883.813C362.688 883.813 369.721 882.179 376.005 878.902C383.916 874.773 393.416 873.912 402.094 876.548L414.302 880.264C416.742 880.984 419.329 879.719 420.106 877.417C420.891 875.107 419.551 872.638 417.111 871.891Z" fill="#E9F8FF"/>
</g>
<g clip-path="url(#clip10)">
<path d="M417.943 801.196L430.151 797.48C438.811 794.835 448.32 795.705 456.24 799.825C462.525 803.111 469.567 804.736 476.609 804.736C483.651 804.736 490.693 803.102 496.977 799.825C504.888 795.696 514.388 794.835 523.066 797.471L535.274 801.187C537.714 801.89 540.301 800.642 541.077 798.341C541.854 796.03 540.514 793.561 538.083 792.815L525.866 789.098C514.795 785.742 502.651 786.841 492.532 792.121C482.708 797.234 470.509 797.234 460.685 792.121C450.557 786.849 438.404 785.751 427.342 789.107L415.134 792.823C412.694 793.57 411.354 796.039 412.14 798.349C412.907 800.642 415.485 801.89 417.943 801.196Z" fill="#E9F8FF"/>
<path d="M538.083 819.179L525.866 815.463C514.795 812.116 502.651 813.214 492.532 818.485C482.708 823.598 470.509 823.598 460.685 818.485C450.557 813.214 438.404 812.116 427.342 815.463L415.134 819.179C412.694 819.926 411.354 822.395 412.14 824.705C412.907 827.007 415.485 828.263 417.943 827.552L430.151 823.836C438.811 821.209 448.32 822.061 456.24 826.181C462.524 829.467 469.567 831.092 476.609 831.092C483.651 831.092 490.693 829.458 496.977 826.181C504.888 822.061 514.388 821.191 523.066 823.827L535.274 827.543C537.714 828.263 540.301 826.989 541.077 824.697C541.863 822.395 540.523 819.926 538.083 819.179Z" fill="#E9F8FF"/>
<path d="M538.083 845.535L525.866 841.819C514.794 838.472 502.651 839.57 492.531 844.841C482.708 849.954 470.509 849.954 460.685 844.841C450.556 839.57 438.404 838.472 427.342 841.819L415.134 845.535C412.703 846.282 411.363 848.751 412.139 851.061C412.907 853.372 415.485 854.611 417.943 853.908L430.151 850.192C438.811 847.556 448.32 848.417 456.24 852.546C462.524 855.823 469.557 857.457 476.608 857.457C483.66 857.457 490.692 855.823 496.977 852.546C504.887 848.417 514.388 847.556 523.065 850.192L535.274 853.908C537.713 854.611 540.301 853.363 541.077 851.061C541.863 848.751 540.523 846.282 538.083 845.535Z" fill="#E9F8FF"/>
<path d="M538.083 871.891L525.866 868.175C514.794 864.819 502.651 865.926 492.531 871.197C482.708 876.31 470.509 876.31 460.685 871.197C450.556 865.926 438.404 864.819 427.342 868.175L415.134 871.891C412.703 872.638 411.363 875.107 412.139 877.417C412.907 879.719 415.485 880.975 417.943 880.264L430.151 876.548C438.811 873.912 448.32 874.773 456.24 878.902C462.524 882.179 469.557 883.813 476.608 883.813C483.66 883.813 490.692 882.179 496.977 878.902C504.887 874.773 514.388 873.912 523.065 876.548L535.274 880.264C537.713 880.984 540.301 879.719 541.077 877.417C541.863 875.107 540.523 872.638 538.083 871.891Z" fill="#E9F8FF"/>
</g>
<g clip-path="url(#clip11)">
<path d="M55.0284 801.196L67.2364 797.48C75.8957 794.835 85.4052 795.705 93.3252 799.825C99.6095 803.111 106.652 804.736 113.694 804.736C120.736 804.736 127.778 803.102 134.062 799.825C141.973 795.696 151.473 794.835 160.151 797.471L172.359 801.187C174.799 801.89 177.386 800.642 178.162 798.341C178.939 796.03 177.599 793.561 175.168 792.815L162.951 789.098C151.88 785.742 139.736 786.841 129.617 792.121C119.793 797.234 107.594 797.234 97.7704 792.121C87.6417 786.849 75.4891 785.751 64.427 789.107L52.2189 792.823C49.7792 793.57 48.4391 796.039 49.2247 798.349C49.9917 800.642 52.5701 801.89 55.0284 801.196Z" fill="#E9F8FF"/>
<path d="M175.168 819.179L162.951 815.463C151.88 812.116 139.736 813.214 129.617 818.485C119.793 823.598 107.594 823.598 97.7704 818.485C87.6417 813.214 75.4891 812.116 64.427 815.463L52.2189 819.179C49.7792 819.926 48.4391 822.395 49.2247 824.705C49.9917 827.007 52.5701 828.263 55.0284 827.552L67.2364 823.836C75.8957 821.209 85.4052 822.061 93.3252 826.181C99.6095 829.467 106.651 831.092 113.694 831.092C120.736 831.092 127.778 829.458 134.062 826.181C141.973 822.061 151.473 821.191 160.151 823.827L172.359 827.543C174.798 828.263 177.386 826.989 178.162 824.697C178.948 822.395 177.608 819.926 175.168 819.179Z" fill="#E9F8FF"/>
<path d="M175.168 845.535L162.951 841.819C151.879 838.472 139.736 839.57 129.616 844.841C119.793 849.954 107.594 849.954 97.7702 844.841C87.6415 839.57 75.4889 838.472 64.4268 841.819L52.2187 845.535C49.7882 846.282 48.4482 848.751 49.2245 851.061C49.9915 853.372 52.5699 854.611 55.0282 853.908L67.2362 850.192C75.8955 847.556 85.405 848.417 93.325 852.546C99.6093 855.823 106.642 857.457 113.693 857.457C120.745 857.457 127.777 855.823 134.062 852.546C141.972 848.417 151.473 847.556 160.15 850.192L172.359 853.908C174.798 854.611 177.386 853.363 178.162 851.061C178.948 848.751 177.608 846.282 175.168 845.535Z" fill="#E9F8FF"/>
<path d="M175.168 871.891L162.951 868.175C151.879 864.819 139.736 865.926 129.616 871.197C119.793 876.31 107.594 876.31 97.7702 871.197C87.6415 865.926 75.4889 864.819 64.4268 868.175L52.2187 871.891C49.7882 872.638 48.4482 875.107 49.2245 877.417C49.9915 879.719 52.5699 880.975 55.0282 880.264L67.2362 876.548C75.8955 873.912 85.405 874.773 93.325 878.902C99.6093 882.179 106.642 883.813 113.693 883.813C120.745 883.813 127.777 882.179 134.062 878.902C141.972 874.773 151.473 873.912 160.15 876.548L172.359 880.264C174.798 880.984 177.386 879.719 178.162 877.417C178.948 875.107 177.608 872.638 175.168 871.891Z" fill="#E9F8FF"/>
</g>
<g clip-path="url(#clip12)">
<path d="M176 801.196L188.208 797.48C196.867 794.835 206.377 795.705 214.297 799.825C220.581 803.111 227.623 804.736 234.665 804.736C241.707 804.736 248.749 803.102 255.034 799.825C262.944 795.696 272.445 794.835 281.122 797.471L293.33 801.187C295.77 801.89 298.358 800.642 299.134 798.341C299.91 796.03 298.57 793.561 296.14 792.815L283.923 789.098C272.851 785.742 260.708 786.841 250.588 792.121C240.765 797.234 228.566 797.234 218.742 792.121C208.613 786.849 196.461 785.751 185.399 789.107L173.191 792.823C170.751 793.57 169.411 796.039 170.196 798.349C170.963 800.642 173.542 801.89 176 801.196Z" fill="#E9F8FF"/>
<path d="M296.14 819.179L283.923 815.463C272.851 812.116 260.708 813.214 250.588 818.485C240.765 823.598 228.566 823.598 218.742 818.485C208.613 813.214 196.461 812.116 185.399 815.463L173.191 819.179C170.751 819.926 169.411 822.395 170.196 824.705C170.963 827.007 173.542 828.263 176 827.552L188.208 823.836C196.867 821.209 206.377 822.061 214.297 826.181C220.581 829.467 227.623 831.092 234.665 831.092C241.707 831.092 248.749 829.458 255.034 826.181C262.944 822.061 272.445 821.191 281.122 823.827L293.33 827.543C295.77 828.263 298.358 826.989 299.134 824.697C299.92 822.395 298.58 819.926 296.14 819.179Z" fill="#E9F8FF"/>
<path d="M296.14 845.535L283.922 841.819C272.851 838.472 260.708 839.57 250.588 844.841C240.764 849.954 228.566 849.954 218.742 844.841C208.613 839.57 196.461 838.472 185.398 841.819L173.19 845.535C170.76 846.282 169.42 848.751 170.196 851.061C170.963 853.372 173.542 854.611 176 853.908L188.208 850.192C196.867 847.556 206.377 848.417 214.297 852.546C220.581 855.823 227.614 857.457 234.665 857.457C241.716 857.457 248.749 855.823 255.033 852.546C262.944 848.417 272.444 847.556 281.122 850.192L293.33 853.908C295.77 854.611 298.358 853.363 299.134 851.061C299.919 848.751 298.579 846.282 296.14 845.535Z" fill="#E9F8FF"/>
<path d="M296.14 871.891L283.922 868.175C272.851 864.819 260.708 865.926 250.588 871.197C240.764 876.31 228.566 876.31 218.742 871.197C208.613 865.926 196.461 864.819 185.398 868.175L173.19 871.891C170.76 872.638 169.42 875.107 170.196 877.417C170.963 879.719 173.542 880.975 176 880.264L188.208 876.548C196.867 873.912 206.377 874.773 214.297 878.902C220.581 882.179 227.614 883.813 234.665 883.813C241.716 883.813 248.749 882.179 255.033 878.902C262.944 874.773 272.444 873.912 281.122 876.548L293.33 880.264C295.77 880.984 298.358 879.719 299.134 877.417C299.919 875.107 298.579 872.638 296.14 871.891Z" fill="#E9F8FF"/>
</g>
<defs>
<clipPath id="clip0">
<rect width="544" height="544" fill="white" transform="translate(484 310)"/>
</clipPath>
<clipPath id="clip1">
<rect width="129.387" height="123" fill="white" transform="translate(775.882 774)"/>
</clipPath>
<clipPath id="clip2">
<rect width="129.387" height="123" fill="white" transform="translate(896.854 774)"/>
</clipPath>
<clipPath id="clip3">
<rect width="129.387" height="123" fill="white" transform="translate(533.939 774)"/>
</clipPath>
<clipPath id="clip4">
<rect width="129.387" height="123" fill="white" transform="translate(654.91 774)"/>
</clipPath>
<clipPath id="clip5">
<rect width="129.387" height="123" fill="white" transform="translate(1135.64 774)"/>
</clipPath>
<clipPath id="clip6">
<rect width="129.387" height="123" fill="white" transform="translate(1256.61 774)"/>
</clipPath>
<clipPath id="clip7">
<rect width="129.387" height="123" fill="white" transform="translate(893.698 774)"/>
</clipPath>
<clipPath id="clip8">
<rect width="129.387" height="123" fill="white" transform="translate(1014.67 774)"/>
</clipPath>
<clipPath id="clip9">
<rect width="129.387" height="123" fill="white" transform="translate(290.943 774)"/>
</clipPath>
<clipPath id="clip10">
<rect width="129.387" height="123" fill="white" transform="translate(411.915 774)"/>
</clipPath>
<clipPath id="clip11">
<rect width="129.387" height="123" fill="white" transform="translate(49 774)"/>
</clipPath>
<clipPath id="clip12">
<rect width="129.387" height="123" fill="white" transform="translate(169.972 774)"/>
</clipPath>
</defs>
</svg>
