<svg width="1440" height="1024" viewBox="0 0 1440 1024" fill="none" xmlns="http://www.w3.org/2000/svg">
<rect width="1440" height="1024" fill="#A49C8C"/>
<rect y="854" width="1440" height="170" fill="#5B4700"/>
<g clip-path="url(#clip0)">
<path d="M552 248C543.6 248 536.766 241.131 536.766 232.688C536.766 229.365 537.816 226.208 539.804 223.557L551.061 208.471C551.282 208.175 551.63 208 552 208C552.37 208 552.718 208.175 552.939 208.471L564.194 223.555C566.183 226.206 567.234 229.364 567.234 232.688C567.234 241.131 560.4 248 552 248ZM562.318 224.958L552 211.131C552 211.131 541.681 224.96 541.681 224.961C539.999 227.204 539.109 229.875 539.109 232.688C539.109 239.839 544.892 245.656 552 245.656C559.108 245.656 564.891 239.839 564.891 232.688C564.891 229.875 564.001 227.204 562.318 224.958Z" fill="url(#paint0_linear)"/>
</g>
<g clip-path="url(#clip1)">
<path d="M628 248C619.6 248 612.766 241.131 612.766 232.688C612.766 229.365 613.816 226.208 615.804 223.557L627.061 208.471C627.282 208.175 627.63 208 628 208C628.37 208 628.718 208.175 628.939 208.471L640.194 223.555C642.183 226.206 643.234 229.364 643.234 232.688C643.234 241.131 636.4 248 628 248ZM638.318 224.958L628 211.131C628 211.131 617.681 224.96 617.681 224.961C615.999 227.204 615.109 229.875 615.109 232.688C615.109 239.839 620.892 245.656 628 245.656C635.108 245.656 640.891 239.839 640.891 232.688C640.891 229.875 640.001 227.204 638.318 224.958Z" fill="url(#paint1_linear)"/>
</g>
<g clip-path="url(#clip2)">
<path d="M703 248C694.6 248 687.766 241.131 687.766 232.688C687.766 229.365 688.816 226.208 690.804 223.557L702.061 208.471C702.282 208.175 702.63 208 703 208C703.37 208 703.718 208.175 703.939 208.471L715.194 223.555C717.183 226.206 718.234 229.364 718.234 232.688C718.234 241.131 711.4 248 703 248ZM713.318 224.958L703 211.131C703 211.131 692.681 224.96 692.681 224.961C690.999 227.204 690.109 229.875 690.109 232.688C690.109 239.839 695.892 245.656 703 245.656C710.108 245.656 715.891 239.839 715.891 232.688C715.891 229.875 715.001 227.204 713.318 224.958Z" fill="url(#paint2_linear)"/>
</g>
<g clip-path="url(#clip3)">
<path d="M515 308C506.6 308 499.766 301.131 499.766 292.688C499.766 289.365 500.816 286.208 502.804 283.557L514.061 268.471C514.282 268.175 514.63 268 515 268C515.37 268 515.718 268.175 515.939 268.471L527.194 283.555C529.183 286.206 530.234 289.364 530.234 292.688C530.234 301.131 523.4 308 515 308ZM525.318 284.958L515 271.131C515 271.131 504.681 284.96 504.681 284.961C502.999 287.204 502.109 289.875 502.109 292.688C502.109 299.839 507.892 305.656 515 305.656C522.108 305.656 527.891 299.839 527.891 292.688C527.891 289.875 527.001 287.204 525.318 284.958Z" fill="url(#paint3_linear)"/>
</g>
<g clip-path="url(#clip4)">
<path d="M591 308C582.6 308 575.766 301.131 575.766 292.688C575.766 289.365 576.816 286.208 578.804 283.557L590.061 268.471C590.282 268.175 590.63 268 591 268C591.37 268 591.718 268.175 591.939 268.471L603.194 283.555C605.183 286.206 606.234 289.364 606.234 292.688C606.234 301.131 599.4 308 591 308ZM601.318 284.958L591 271.131C591 271.131 580.681 284.96 580.681 284.961C578.999 287.204 578.109 289.875 578.109 292.688C578.109 299.839 583.892 305.656 591 305.656C598.108 305.656 603.891 299.839 603.891 292.688C603.891 289.875 603.001 287.204 601.318 284.958Z" fill="url(#paint4_linear)"/>
</g>
<g clip-path="url(#clip5)">
<path d="M666 308C657.6 308 650.766 301.131 650.766 292.688C650.766 289.365 651.816 286.208 653.804 283.557L665.061 268.471C665.282 268.175 665.63 268 666 268C666.37 268 666.718 268.175 666.939 268.471L678.194 283.555C680.183 286.206 681.234 289.364 681.234 292.688C681.234 301.131 674.4 308 666 308ZM676.318 284.958L666 271.131C666 271.131 655.681 284.96 655.681 284.961C653.999 287.204 653.109 289.875 653.109 292.688C653.109 299.839 658.892 305.656 666 305.656C673.108 305.656 678.891 299.839 678.891 292.688C678.891 289.875 678.001 287.204 676.318 284.958Z" fill="url(#paint5_linear)"/>
</g>
<g clip-path="url(#clip6)">
<path d="M777 248C768.6 248 761.766 241.131 761.766 232.688C761.766 229.365 762.816 226.208 764.804 223.557L776.061 208.471C776.282 208.175 776.63 208 777 208C777.37 208 777.718 208.175 777.939 208.471L789.194 223.555C791.183 226.206 792.234 229.364 792.234 232.688C792.234 241.131 785.4 248 777 248ZM787.318 224.958L777 211.131C777 211.131 766.681 224.96 766.681 224.961C764.999 227.204 764.109 229.875 764.109 232.688C764.109 239.839 769.892 245.656 777 245.656C784.108 245.656 789.891 239.839 789.891 232.688C789.891 229.875 789.001 227.204 787.318 224.958Z" fill="url(#paint6_linear)"/>
</g>
<g clip-path="url(#clip7)">
<path d="M853 248C844.6 248 837.766 241.131 837.766 232.688C837.766 229.365 838.816 226.208 840.804 223.557L852.061 208.471C852.282 208.175 852.63 208 853 208C853.37 208 853.718 208.175 853.939 208.471L865.194 223.555C867.183 226.206 868.234 229.364 868.234 232.688C868.234 241.131 861.4 248 853 248ZM863.318 224.958L853 211.131C853 211.131 842.681 224.96 842.681 224.961C840.999 227.204 840.109 229.875 840.109 232.688C840.109 239.839 845.892 245.656 853 245.656C860.108 245.656 865.891 239.839 865.891 232.688C865.891 229.875 865.001 227.204 863.318 224.958Z" fill="url(#paint7_linear)"/>
</g>
<g clip-path="url(#clip8)">
<path d="M928 248C919.6 248 912.766 241.131 912.766 232.688C912.766 229.365 913.816 226.208 915.804 223.557L927.061 208.471C927.282 208.175 927.63 208 928 208C928.37 208 928.718 208.175 928.939 208.471L940.194 223.555C942.183 226.206 943.234 229.364 943.234 232.688C943.234 241.131 936.4 248 928 248ZM938.318 224.958L928 211.131C928 211.131 917.681 224.96 917.681 224.961C915.999 227.204 915.109 229.875 915.109 232.688C915.109 239.839 920.892 245.656 928 245.656C935.108 245.656 940.891 239.839 940.891 232.688C940.891 229.875 940.001 227.204 938.318 224.958Z" fill="url(#paint8_linear)"/>
</g>
<g clip-path="url(#clip9)">
<path d="M740 308C731.6 308 724.766 301.131 724.766 292.688C724.766 289.365 725.816 286.208 727.804 283.557L739.061 268.471C739.282 268.175 739.63 268 740 268C740.37 268 740.718 268.175 740.939 268.471L752.194 283.555C754.183 286.206 755.234 289.364 755.234 292.688C755.234 301.131 748.4 308 740 308ZM750.318 284.958L740 271.131C740 271.131 729.681 284.96 729.681 284.961C727.999 287.204 727.109 289.875 727.109 292.688C727.109 299.839 732.892 305.656 740 305.656C747.108 305.656 752.891 299.839 752.891 292.688C752.891 289.875 752.001 287.204 750.318 284.958Z" fill="url(#paint9_linear)"/>
</g>
<g clip-path="url(#clip10)">
<path d="M816 308C807.6 308 800.766 301.131 800.766 292.688C800.766 289.365 801.816 286.208 803.804 283.557L815.061 268.471C815.282 268.175 815.63 268 816 268C816.37 268 816.718 268.175 816.939 268.471L828.194 283.555C830.183 286.206 831.234 289.364 831.234 292.688C831.234 301.131 824.4 308 816 308ZM826.318 284.958L816 271.131C816 271.131 805.681 284.96 805.681 284.961C803.999 287.204 803.109 289.875 803.109 292.688C803.109 299.839 808.892 305.656 816 305.656C823.108 305.656 828.891 299.839 828.891 292.688C828.891 289.875 828.001 287.204 826.318 284.958Z" fill="url(#paint10_linear)"/>
</g>
<g clip-path="url(#clip11)">
<path d="M891 308C882.6 308 875.766 301.131 875.766 292.688C875.766 289.365 876.816 286.208 878.804 283.557L890.061 268.471C890.282 268.175 890.63 268 891 268C891.37 268 891.718 268.175 891.939 268.471L903.194 283.555C905.183 286.206 906.234 289.364 906.234 292.688C906.234 301.131 899.4 308 891 308ZM901.318 284.958L891 271.131C891 271.131 880.681 284.96 880.681 284.961C878.999 287.204 878.109 289.875 878.109 292.688C878.109 299.839 883.892 305.656 891 305.656C898.108 305.656 903.891 299.839 903.891 292.688C903.891 289.875 903.001 287.204 901.318 284.958Z" fill="url(#paint11_linear)"/>
</g>
<g clip-path="url(#clip12)">
<path d="M560 368C551.6 368 544.766 361.131 544.766 352.688C544.766 349.365 545.816 346.208 547.804 343.557L559.061 328.471C559.282 328.175 559.63 328 560 328C560.37 328 560.718 328.175 560.939 328.471L572.194 343.555C574.183 346.206 575.234 349.364 575.234 352.688C575.234 361.131 568.4 368 560 368ZM570.318 344.958L560 331.131C560 331.131 549.681 344.96 549.681 344.961C547.999 347.204 547.109 349.875 547.109 352.688C547.109 359.839 552.892 365.656 560 365.656C567.108 365.656 572.891 359.839 572.891 352.688C572.891 349.875 572.001 347.204 570.318 344.958Z" fill="url(#paint12_linear)"/>
</g>
<g clip-path="url(#clip13)">
<path d="M636 368C627.6 368 620.766 361.131 620.766 352.688C620.766 349.365 621.816 346.208 623.804 343.557L635.061 328.471C635.282 328.175 635.63 328 636 328C636.37 328 636.718 328.175 636.939 328.471L648.194 343.555C650.183 346.206 651.234 349.364 651.234 352.688C651.234 361.131 644.4 368 636 368ZM646.318 344.958L636 331.131C636 331.131 625.681 344.96 625.681 344.961C623.999 347.204 623.109 349.875 623.109 352.688C623.109 359.839 628.892 365.656 636 365.656C643.108 365.656 648.891 359.839 648.891 352.688C648.891 349.875 648.001 347.204 646.318 344.958Z" fill="url(#paint13_linear)"/>
</g>
<g clip-path="url(#clip14)">
<path d="M711 368C702.6 368 695.766 361.131 695.766 352.688C695.766 349.365 696.816 346.208 698.804 343.557L710.061 328.471C710.282 328.175 710.63 328 711 328C711.37 328 711.718 328.175 711.939 328.471L723.194 343.555C725.183 346.206 726.234 349.364 726.234 352.688C726.234 361.131 719.4 368 711 368ZM721.318 344.958L711 331.131C711 331.131 700.681 344.96 700.681 344.961C698.999 347.204 698.109 349.875 698.109 352.688C698.109 359.839 703.892 365.656 711 365.656C718.108 365.656 723.891 359.839 723.891 352.688C723.891 349.875 723.001 347.204 721.318 344.958Z" fill="url(#paint14_linear)"/>
</g>
<g clip-path="url(#clip15)">
<path d="M523 428C514.6 428 507.766 421.131 507.766 412.688C507.766 409.365 508.816 406.208 510.804 403.557L522.061 388.471C522.282 388.175 522.63 388 523 388C523.37 388 523.718 388.175 523.939 388.471L535.194 403.555C537.183 406.206 538.234 409.364 538.234 412.688C538.234 421.131 531.4 428 523 428ZM533.318 404.958L523 391.131C523 391.131 512.681 404.96 512.681 404.961C510.999 407.204 510.109 409.875 510.109 412.688C510.109 419.839 515.892 425.656 523 425.656C530.108 425.656 535.891 419.839 535.891 412.688C535.891 409.875 535.001 407.204 533.318 404.958Z" fill="url(#paint15_linear)"/>
</g>
<g clip-path="url(#clip16)">
<path d="M599 428C590.6 428 583.766 421.131 583.766 412.688C583.766 409.365 584.816 406.208 586.804 403.557L598.061 388.471C598.282 388.175 598.63 388 599 388C599.37 388 599.718 388.175 599.939 388.471L611.194 403.555C613.183 406.206 614.234 409.364 614.234 412.688C614.234 421.131 607.4 428 599 428ZM609.318 404.958L599 391.131C599 391.131 588.681 404.96 588.681 404.961C586.999 407.204 586.109 409.875 586.109 412.688C586.109 419.839 591.892 425.656 599 425.656C606.108 425.656 611.891 419.839 611.891 412.688C611.891 409.875 611.001 407.204 609.318 404.958Z" fill="url(#paint16_linear)"/>
</g>
<g clip-path="url(#clip17)">
<path d="M674 428C665.6 428 658.766 421.131 658.766 412.688C658.766 409.365 659.816 406.208 661.804 403.557L673.061 388.471C673.282 388.175 673.63 388 674 388C674.37 388 674.718 388.175 674.939 388.471L686.194 403.555C688.183 406.206 689.234 409.364 689.234 412.688C689.234 421.131 682.4 428 674 428ZM684.318 404.958L674 391.131C674 391.131 663.681 404.96 663.681 404.961C661.999 407.204 661.109 409.875 661.109 412.688C661.109 419.839 666.892 425.656 674 425.656C681.108 425.656 686.891 419.839 686.891 412.688C686.891 409.875 686.001 407.204 684.318 404.958Z" fill="url(#paint17_linear)"/>
</g>
<g clip-path="url(#clip18)">
<path d="M785 368C776.6 368 769.766 361.131 769.766 352.688C769.766 349.365 770.816 346.208 772.804 343.557L784.061 328.471C784.282 328.175 784.63 328 785 328C785.37 328 785.718 328.175 785.939 328.471L797.194 343.555C799.183 346.206 800.234 349.364 800.234 352.688C800.234 361.131 793.4 368 785 368ZM795.318 344.958L785 331.131C785 331.131 774.681 344.96 774.681 344.961C772.999 347.204 772.109 349.875 772.109 352.688C772.109 359.839 777.892 365.656 785 365.656C792.108 365.656 797.891 359.839 797.891 352.688C797.891 349.875 797.001 347.204 795.318 344.958Z" fill="url(#paint18_linear)"/>
</g>
<g clip-path="url(#clip19)">
<path d="M861 368C852.6 368 845.766 361.131 845.766 352.688C845.766 349.365 846.816 346.208 848.804 343.557L860.061 328.471C860.282 328.175 860.63 328 861 328C861.37 328 861.718 328.175 861.939 328.471L873.194 343.555C875.183 346.206 876.234 349.364 876.234 352.688C876.234 361.131 869.4 368 861 368ZM871.318 344.958L861 331.131C861 331.131 850.681 344.96 850.681 344.961C848.999 347.204 848.109 349.875 848.109 352.688C848.109 359.839 853.892 365.656 861 365.656C868.108 365.656 873.891 359.839 873.891 352.688C873.891 349.875 873.001 347.204 871.318 344.958Z" fill="url(#paint19_linear)"/>
</g>
<g clip-path="url(#clip20)">
<path d="M936 368C927.6 368 920.766 361.131 920.766 352.688C920.766 349.365 921.816 346.208 923.804 343.557L935.061 328.471C935.282 328.175 935.63 328 936 328C936.37 328 936.718 328.175 936.939 328.471L948.194 343.555C950.183 346.206 951.234 349.364 951.234 352.688C951.234 361.131 944.4 368 936 368ZM946.318 344.958L936 331.131C936 331.131 925.681 344.96 925.681 344.961C923.999 347.204 923.109 349.875 923.109 352.688C923.109 359.839 928.892 365.656 936 365.656C943.108 365.656 948.891 359.839 948.891 352.688C948.891 349.875 948.001 347.204 946.318 344.958Z" fill="url(#paint20_linear)"/>
</g>
<g clip-path="url(#clip21)">
<path d="M748 428C739.6 428 732.766 421.131 732.766 412.688C732.766 409.365 733.816 406.208 735.804 403.557L747.061 388.471C747.282 388.175 747.63 388 748 388C748.37 388 748.718 388.175 748.939 388.471L760.194 403.555C762.183 406.206 763.234 409.364 763.234 412.688C763.234 421.131 756.4 428 748 428ZM758.318 404.958L748 391.131C748 391.131 737.681 404.96 737.681 404.961C735.999 407.204 735.109 409.875 735.109 412.688C735.109 419.839 740.892 425.656 748 425.656C755.108 425.656 760.891 419.839 760.891 412.688C760.891 409.875 760.001 407.204 758.318 404.958Z" fill="url(#paint21_linear)"/>
</g>
<g clip-path="url(#clip22)">
<path d="M824 428C815.6 428 808.766 421.131 808.766 412.688C808.766 409.365 809.816 406.208 811.804 403.557L823.061 388.471C823.282 388.175 823.63 388 824 388C824.37 388 824.718 388.175 824.939 388.471L836.194 403.555C838.183 406.206 839.234 409.364 839.234 412.688C839.234 421.131 832.4 428 824 428ZM834.318 404.958L824 391.131C824 391.131 813.681 404.96 813.681 404.961C811.999 407.204 811.109 409.875 811.109 412.688C811.109 419.839 816.892 425.656 824 425.656C831.108 425.656 836.891 419.839 836.891 412.688C836.891 409.875 836.001 407.204 834.318 404.958Z" fill="url(#paint22_linear)"/>
</g>
<g clip-path="url(#clip23)">
<path d="M899 428C890.6 428 883.766 421.131 883.766 412.688C883.766 409.365 884.816 406.208 886.804 403.557L898.061 388.471C898.282 388.175 898.63 388 899 388C899.37 388 899.718 388.175 899.939 388.471L911.194 403.555C913.183 406.206 914.234 409.364 914.234 412.688C914.234 421.131 907.4 428 899 428ZM909.318 404.958L899 391.131C899 391.131 888.681 404.96 888.681 404.961C886.999 407.204 886.109 409.875 886.109 412.688C886.109 419.839 891.892 425.656 899 425.656C906.108 425.656 911.891 419.839 911.891 412.688C911.891 409.875 911.001 407.204 909.318 404.958Z" fill="url(#paint23_linear)"/>
</g>
<g clip-path="url(#clip24)">
<path d="M91 248C82.5998 248 75.7656 241.131 75.7656 232.688C75.7656 229.365 76.8163 226.208 78.804 223.557L90.0608 208.471C90.282 208.175 90.6302 208 91 208C91.3698 208 91.718 208.175 91.9392 208.471L103.194 223.555C105.183 226.206 106.234 229.364 106.234 232.688C106.234 241.131 99.4002 248 91 248ZM101.318 224.958L91 211.131C91 211.131 80.6812 224.96 80.6807 224.961C78.9985 227.204 78.1094 229.875 78.1094 232.688C78.1094 239.839 83.8921 245.656 91 245.656C98.1079 245.656 103.891 239.839 103.891 232.688C103.891 229.875 103.001 227.204 101.318 224.958Z" fill="url(#paint24_linear)"/>
</g>
<g clip-path="url(#clip25)">
<path d="M167 248C158.6 248 151.766 241.131 151.766 232.688C151.766 229.365 152.816 226.208 154.804 223.557L166.061 208.471C166.282 208.175 166.63 208 167 208C167.37 208 167.718 208.175 167.939 208.471L179.194 223.555C181.183 226.206 182.234 229.364 182.234 232.688C182.234 241.131 175.4 248 167 248ZM177.318 224.958L167 211.131C167 211.131 156.681 224.96 156.681 224.961C154.999 227.204 154.109 229.875 154.109 232.688C154.109 239.839 159.892 245.656 167 245.656C174.108 245.656 179.891 239.839 179.891 232.688C179.891 229.875 179.001 227.204 177.318 224.958Z" fill="url(#paint25_linear)"/>
</g>
<g clip-path="url(#clip26)">
<path d="M242 248C233.6 248 226.766 241.131 226.766 232.688C226.766 229.365 227.816 226.208 229.804 223.557L241.061 208.471C241.282 208.175 241.63 208 242 208C242.37 208 242.718 208.175 242.939 208.471L254.194 223.555C256.183 226.206 257.234 229.364 257.234 232.688C257.234 241.131 250.4 248 242 248ZM252.318 224.958L242 211.131C242 211.131 231.681 224.96 231.681 224.961C229.999 227.204 229.109 229.875 229.109 232.688C229.109 239.839 234.892 245.656 242 245.656C249.108 245.656 254.891 239.839 254.891 232.688C254.891 229.875 254.001 227.204 252.318 224.958Z" fill="url(#paint26_linear)"/>
</g>
<g clip-path="url(#clip27)">
<path d="M54 308C45.5998 308 38.7656 301.131 38.7656 292.688C38.7656 289.365 39.8163 286.208 41.804 283.557L53.0608 268.471C53.282 268.175 53.6302 268 54 268C54.3698 268 54.718 268.175 54.9392 268.471L66.1943 283.555C68.1831 286.206 69.2344 289.364 69.2344 292.688C69.2344 301.131 62.4002 308 54 308ZM64.3176 284.958L54 271.131C54 271.131 43.6812 284.96 43.6807 284.961C41.9985 287.204 41.1094 289.875 41.1094 292.688C41.1094 299.839 46.8921 305.656 54 305.656C61.1079 305.656 66.8906 299.839 66.8906 292.688C66.8906 289.875 66.0015 287.204 64.3176 284.958Z" fill="url(#paint27_linear)"/>
</g>
<g clip-path="url(#clip28)">
<path d="M130 308C121.6 308 114.766 301.131 114.766 292.688C114.766 289.365 115.816 286.208 117.804 283.557L129.061 268.471C129.282 268.175 129.63 268 130 268C130.37 268 130.718 268.175 130.939 268.471L142.194 283.555C144.183 286.206 145.234 289.364 145.234 292.688C145.234 301.131 138.4 308 130 308ZM140.318 284.958L130 271.131C130 271.131 119.681 284.96 119.681 284.961C117.999 287.204 117.109 289.875 117.109 292.688C117.109 299.839 122.892 305.656 130 305.656C137.108 305.656 142.891 299.839 142.891 292.688C142.891 289.875 142.001 287.204 140.318 284.958Z" fill="url(#paint28_linear)"/>
</g>
<g clip-path="url(#clip29)">
<path d="M205 308C196.6 308 189.766 301.131 189.766 292.688C189.766 289.365 190.816 286.208 192.804 283.557L204.061 268.471C204.282 268.175 204.63 268 205 268C205.37 268 205.718 268.175 205.939 268.471L217.194 283.555C219.183 286.206 220.234 289.364 220.234 292.688C220.234 301.131 213.4 308 205 308ZM215.318 284.958L205 271.131C205 271.131 194.681 284.96 194.681 284.961C192.999 287.204 192.109 289.875 192.109 292.688C192.109 299.839 197.892 305.656 205 305.656C212.108 305.656 217.891 299.839 217.891 292.688C217.891 289.875 217.001 287.204 215.318 284.958Z" fill="url(#paint29_linear)"/>
</g>
<g clip-path="url(#clip30)">
<path d="M316 248C307.6 248 300.766 241.131 300.766 232.688C300.766 229.365 301.816 226.208 303.804 223.557L315.061 208.471C315.282 208.175 315.63 208 316 208C316.37 208 316.718 208.175 316.939 208.471L328.194 223.555C330.183 226.206 331.234 229.364 331.234 232.688C331.234 241.131 324.4 248 316 248ZM326.318 224.958L316 211.131C316 211.131 305.681 224.96 305.681 224.961C303.999 227.204 303.109 229.875 303.109 232.688C303.109 239.839 308.892 245.656 316 245.656C323.108 245.656 328.891 239.839 328.891 232.688C328.891 229.875 328.001 227.204 326.318 224.958Z" fill="url(#paint30_linear)"/>
</g>
<g clip-path="url(#clip31)">
<path d="M392 248C383.6 248 376.766 241.131 376.766 232.688C376.766 229.365 377.816 226.208 379.804 223.557L391.061 208.471C391.282 208.175 391.63 208 392 208C392.37 208 392.718 208.175 392.939 208.471L404.194 223.555C406.183 226.206 407.234 229.364 407.234 232.688C407.234 241.131 400.4 248 392 248ZM402.318 224.958L392 211.131C392 211.131 381.681 224.96 381.681 224.961C379.999 227.204 379.109 229.875 379.109 232.688C379.109 239.839 384.892 245.656 392 245.656C399.108 245.656 404.891 239.839 404.891 232.688C404.891 229.875 404.001 227.204 402.318 224.958Z" fill="url(#paint31_linear)"/>
</g>
<g clip-path="url(#clip32)">
<path d="M467 248C458.6 248 451.766 241.131 451.766 232.688C451.766 229.365 452.816 226.208 454.804 223.557L466.061 208.471C466.282 208.175 466.63 208 467 208C467.37 208 467.718 208.175 467.939 208.471L479.194 223.555C481.183 226.206 482.234 229.364 482.234 232.688C482.234 241.131 475.4 248 467 248ZM477.318 224.958L467 211.131C467 211.131 456.681 224.96 456.681 224.961C454.999 227.204 454.109 229.875 454.109 232.688C454.109 239.839 459.892 245.656 467 245.656C474.108 245.656 479.891 239.839 479.891 232.688C479.891 229.875 479.001 227.204 477.318 224.958Z" fill="url(#paint32_linear)"/>
</g>
<g clip-path="url(#clip33)">
<path d="M279 308C270.6 308 263.766 301.131 263.766 292.688C263.766 289.365 264.816 286.208 266.804 283.557L278.061 268.471C278.282 268.175 278.63 268 279 268C279.37 268 279.718 268.175 279.939 268.471L291.194 283.555C293.183 286.206 294.234 289.364 294.234 292.688C294.234 301.131 287.4 308 279 308ZM289.318 284.958L279 271.131C279 271.131 268.681 284.96 268.681 284.961C266.999 287.204 266.109 289.875 266.109 292.688C266.109 299.839 271.892 305.656 279 305.656C286.108 305.656 291.891 299.839 291.891 292.688C291.891 289.875 291.001 287.204 289.318 284.958Z" fill="url(#paint33_linear)"/>
</g>
<g clip-path="url(#clip34)">
<path d="M355 308C346.6 308 339.766 301.131 339.766 292.688C339.766 289.365 340.816 286.208 342.804 283.557L354.061 268.471C354.282 268.175 354.63 268 355 268C355.37 268 355.718 268.175 355.939 268.471L367.194 283.555C369.183 286.206 370.234 289.364 370.234 292.688C370.234 301.131 363.4 308 355 308ZM365.318 284.958L355 271.131C355 271.131 344.681 284.96 344.681 284.961C342.999 287.204 342.109 289.875 342.109 292.688C342.109 299.839 347.892 305.656 355 305.656C362.108 305.656 367.891 299.839 367.891 292.688C367.891 289.875 367.001 287.204 365.318 284.958Z" fill="url(#paint34_linear)"/>
</g>
<g clip-path="url(#clip35)">
<path d="M430 308C421.6 308 414.766 301.131 414.766 292.688C414.766 289.365 415.816 286.208 417.804 283.557L429.061 268.471C429.282 268.175 429.63 268 430 268C430.37 268 430.718 268.175 430.939 268.471L442.194 283.555C444.183 286.206 445.234 289.364 445.234 292.688C445.234 301.131 438.4 308 430 308ZM440.318 284.958L430 271.131C430 271.131 419.681 284.96 419.681 284.961C417.999 287.204 417.109 289.875 417.109 292.688C417.109 299.839 422.892 305.656 430 305.656C437.108 305.656 442.891 299.839 442.891 292.688C442.891 289.875 442.001 287.204 440.318 284.958Z" fill="url(#paint35_linear)"/>
</g>
<g clip-path="url(#clip36)">
<path d="M99 368C90.5998 368 83.7656 361.131 83.7656 352.688C83.7656 349.365 84.8163 346.208 86.804 343.557L98.0608 328.471C98.282 328.175 98.6302 328 99 328C99.3698 328 99.718 328.175 99.9392 328.471L111.194 343.555C113.183 346.206 114.234 349.364 114.234 352.688C114.234 361.131 107.4 368 99 368ZM109.318 344.958L99 331.131C99 331.131 88.6812 344.96 88.6807 344.961C86.9985 347.204 86.1094 349.875 86.1094 352.688C86.1094 359.839 91.8921 365.656 99 365.656C106.108 365.656 111.891 359.839 111.891 352.688C111.891 349.875 111.001 347.204 109.318 344.958Z" fill="url(#paint36_linear)"/>
</g>
<g clip-path="url(#clip37)">
<path d="M175 368C166.6 368 159.766 361.131 159.766 352.688C159.766 349.365 160.816 346.208 162.804 343.557L174.061 328.471C174.282 328.175 174.63 328 175 328C175.37 328 175.718 328.175 175.939 328.471L187.194 343.555C189.183 346.206 190.234 349.364 190.234 352.688C190.234 361.131 183.4 368 175 368ZM185.318 344.958L175 331.131C175 331.131 164.681 344.96 164.681 344.961C162.999 347.204 162.109 349.875 162.109 352.688C162.109 359.839 167.892 365.656 175 365.656C182.108 365.656 187.891 359.839 187.891 352.688C187.891 349.875 187.001 347.204 185.318 344.958Z" fill="url(#paint37_linear)"/>
</g>
<g clip-path="url(#clip38)">
<path d="M250 368C241.6 368 234.766 361.131 234.766 352.688C234.766 349.365 235.816 346.208 237.804 343.557L249.061 328.471C249.282 328.175 249.63 328 250 328C250.37 328 250.718 328.175 250.939 328.471L262.194 343.555C264.183 346.206 265.234 349.364 265.234 352.688C265.234 361.131 258.4 368 250 368ZM260.318 344.958L250 331.131C250 331.131 239.681 344.96 239.681 344.961C237.999 347.204 237.109 349.875 237.109 352.688C237.109 359.839 242.892 365.656 250 365.656C257.108 365.656 262.891 359.839 262.891 352.688C262.891 349.875 262.001 347.204 260.318 344.958Z" fill="url(#paint38_linear)"/>
</g>
<g clip-path="url(#clip39)">
<path d="M62 428C53.5998 428 46.7656 421.131 46.7656 412.688C46.7656 409.365 47.8163 406.208 49.804 403.557L61.0608 388.471C61.282 388.175 61.6302 388 62 388C62.3698 388 62.718 388.175 62.9392 388.471L74.1943 403.555C76.1831 406.206 77.2344 409.364 77.2344 412.688C77.2344 421.131 70.4002 428 62 428ZM72.3176 404.958L62 391.131C62 391.131 51.6812 404.96 51.6807 404.961C49.9985 407.204 49.1094 409.875 49.1094 412.688C49.1094 419.839 54.8921 425.656 62 425.656C69.1079 425.656 74.8906 419.839 74.8906 412.688C74.8906 409.875 74.0015 407.204 72.3176 404.958Z" fill="url(#paint39_linear)"/>
</g>
<g clip-path="url(#clip40)">
<path d="M138 428C129.6 428 122.766 421.131 122.766 412.688C122.766 409.365 123.816 406.208 125.804 403.557L137.061 388.471C137.282 388.175 137.63 388 138 388C138.37 388 138.718 388.175 138.939 388.471L150.194 403.555C152.183 406.206 153.234 409.364 153.234 412.688C153.234 421.131 146.4 428 138 428ZM148.318 404.958L138 391.131C138 391.131 127.681 404.96 127.681 404.961C125.999 407.204 125.109 409.875 125.109 412.688C125.109 419.839 130.892 425.656 138 425.656C145.108 425.656 150.891 419.839 150.891 412.688C150.891 409.875 150.001 407.204 148.318 404.958Z" fill="url(#paint40_linear)"/>
</g>
<g clip-path="url(#clip41)">
<path d="M213 428C204.6 428 197.766 421.131 197.766 412.688C197.766 409.365 198.816 406.208 200.804 403.557L212.061 388.471C212.282 388.175 212.63 388 213 388C213.37 388 213.718 388.175 213.939 388.471L225.194 403.555C227.183 406.206 228.234 409.364 228.234 412.688C228.234 421.131 221.4 428 213 428ZM223.318 404.958L213 391.131C213 391.131 202.681 404.96 202.681 404.961C200.999 407.204 200.109 409.875 200.109 412.688C200.109 419.839 205.892 425.656 213 425.656C220.108 425.656 225.891 419.839 225.891 412.688C225.891 409.875 225.001 407.204 223.318 404.958Z" fill="url(#paint41_linear)"/>
</g>
<g clip-path="url(#clip42)">
<path d="M324 368C315.6 368 308.766 361.131 308.766 352.688C308.766 349.365 309.816 346.208 311.804 343.557L323.061 328.471C323.282 328.175 323.63 328 324 328C324.37 328 324.718 328.175 324.939 328.471L336.194 343.555C338.183 346.206 339.234 349.364 339.234 352.688C339.234 361.131 332.4 368 324 368ZM334.318 344.958L324 331.131C324 331.131 313.681 344.96 313.681 344.961C311.999 347.204 311.109 349.875 311.109 352.688C311.109 359.839 316.892 365.656 324 365.656C331.108 365.656 336.891 359.839 336.891 352.688C336.891 349.875 336.001 347.204 334.318 344.958Z" fill="url(#paint42_linear)"/>
</g>
<g clip-path="url(#clip43)">
<path d="M400 368C391.6 368 384.766 361.131 384.766 352.688C384.766 349.365 385.816 346.208 387.804 343.557L399.061 328.471C399.282 328.175 399.63 328 400 328C400.37 328 400.718 328.175 400.939 328.471L412.194 343.555C414.183 346.206 415.234 349.364 415.234 352.688C415.234 361.131 408.4 368 400 368ZM410.318 344.958L400 331.131C400 331.131 389.681 344.96 389.681 344.961C387.999 347.204 387.109 349.875 387.109 352.688C387.109 359.839 392.892 365.656 400 365.656C407.108 365.656 412.891 359.839 412.891 352.688C412.891 349.875 412.001 347.204 410.318 344.958Z" fill="url(#paint43_linear)"/>
</g>
<g clip-path="url(#clip44)">
<path d="M475 368C466.6 368 459.766 361.131 459.766 352.688C459.766 349.365 460.816 346.208 462.804 343.557L474.061 328.471C474.282 328.175 474.63 328 475 328C475.37 328 475.718 328.175 475.939 328.471L487.194 343.555C489.183 346.206 490.234 349.364 490.234 352.688C490.234 361.131 483.4 368 475 368ZM485.318 344.958L475 331.131C475 331.131 464.681 344.96 464.681 344.961C462.999 347.204 462.109 349.875 462.109 352.688C462.109 359.839 467.892 365.656 475 365.656C482.108 365.656 487.891 359.839 487.891 352.688C487.891 349.875 487.001 347.204 485.318 344.958Z" fill="url(#paint44_linear)"/>
</g>
<g clip-path="url(#clip45)">
<path d="M287 428C278.6 428 271.766 421.131 271.766 412.688C271.766 409.365 272.816 406.208 274.804 403.557L286.061 388.471C286.282 388.175 286.63 388 287 388C287.37 388 287.718 388.175 287.939 388.471L299.194 403.555C301.183 406.206 302.234 409.364 302.234 412.688C302.234 421.131 295.4 428 287 428ZM297.318 404.958L287 391.131C287 391.131 276.681 404.96 276.681 404.961C274.999 407.204 274.109 409.875 274.109 412.688C274.109 419.839 279.892 425.656 287 425.656C294.108 425.656 299.891 419.839 299.891 412.688C299.891 409.875 299.001 407.204 297.318 404.958Z" fill="url(#paint45_linear)"/>
</g>
<g clip-path="url(#clip46)">
<path d="M363 428C354.6 428 347.766 421.131 347.766 412.688C347.766 409.365 348.816 406.208 350.804 403.557L362.061 388.471C362.282 388.175 362.63 388 363 388C363.37 388 363.718 388.175 363.939 388.471L375.194 403.555C377.183 406.206 378.234 409.364 378.234 412.688C378.234 421.131 371.4 428 363 428ZM373.318 404.958L363 391.131C363 391.131 352.681 404.96 352.681 404.961C350.999 407.204 350.109 409.875 350.109 412.688C350.109 419.839 355.892 425.656 363 425.656C370.108 425.656 375.891 419.839 375.891 412.688C375.891 409.875 375.001 407.204 373.318 404.958Z" fill="url(#paint46_linear)"/>
</g>
<g clip-path="url(#clip47)">
<path d="M438 428C429.6 428 422.766 421.131 422.766 412.688C422.766 409.365 423.816 406.208 425.804 403.557L437.061 388.471C437.282 388.175 437.63 388 438 388C438.37 388 438.718 388.175 438.939 388.471L450.194 403.555C452.183 406.206 453.234 409.364 453.234 412.688C453.234 421.131 446.4 428 438 428ZM448.318 404.958L438 391.131C438 391.131 427.681 404.96 427.681 404.961C425.999 407.204 425.109 409.875 425.109 412.688C425.109 419.839 430.892 425.656 438 425.656C445.108 425.656 450.891 419.839 450.891 412.688C450.891 409.875 450.001 407.204 448.318 404.958Z" fill="url(#paint47_linear)"/>
</g>
<g clip-path="url(#clip48)">
<path d="M100 488C91.5998 488 84.7656 481.131 84.7656 472.688C84.7656 469.365 85.8163 466.208 87.804 463.557L99.0608 448.471C99.282 448.175 99.6302 448 100 448C100.37 448 100.718 448.175 100.939 448.471L112.194 463.555C114.183 466.206 115.234 469.364 115.234 472.688C115.234 481.131 108.4 488 100 488ZM110.318 464.958L100 451.131C100 451.131 89.6812 464.96 89.6807 464.961C87.9985 467.204 87.1094 469.875 87.1094 472.688C87.1094 479.839 92.8921 485.656 100 485.656C107.108 485.656 112.891 479.839 112.891 472.688C112.891 469.875 112.001 467.204 110.318 464.958Z" fill="url(#paint48_linear)"/>
</g>
<g clip-path="url(#clip49)">
<path d="M176 488C167.6 488 160.766 481.131 160.766 472.688C160.766 469.365 161.816 466.208 163.804 463.557L175.061 448.471C175.282 448.175 175.63 448 176 448C176.37 448 176.718 448.175 176.939 448.471L188.194 463.555C190.183 466.206 191.234 469.364 191.234 472.688C191.234 481.131 184.4 488 176 488ZM186.318 464.958L176 451.131C176 451.131 165.681 464.96 165.681 464.961C163.999 467.204 163.109 469.875 163.109 472.688C163.109 479.839 168.892 485.656 176 485.656C183.108 485.656 188.891 479.839 188.891 472.688C188.891 469.875 188.001 467.204 186.318 464.958Z" fill="url(#paint49_linear)"/>
</g>
<g clip-path="url(#clip50)">
<path d="M251 488C242.6 488 235.766 481.131 235.766 472.688C235.766 469.365 236.816 466.208 238.804 463.557L250.061 448.471C250.282 448.175 250.63 448 251 448C251.37 448 251.718 448.175 251.939 448.471L263.194 463.555C265.183 466.206 266.234 469.364 266.234 472.688C266.234 481.131 259.4 488 251 488ZM261.318 464.958L251 451.131C251 451.131 240.681 464.96 240.681 464.961C238.999 467.204 238.109 469.875 238.109 472.688C238.109 479.839 243.892 485.656 251 485.656C258.108 485.656 263.891 479.839 263.891 472.688C263.891 469.875 263.001 467.204 261.318 464.958Z" fill="url(#paint50_linear)"/>
</g>
<g clip-path="url(#clip51)">
<path d="M63 548C54.5998 548 47.7656 541.131 47.7656 532.688C47.7656 529.365 48.8163 526.208 50.804 523.557L62.0608 508.471C62.282 508.175 62.6302 508 63 508C63.3698 508 63.718 508.175 63.9392 508.471L75.1943 523.555C77.1831 526.206 78.2344 529.364 78.2344 532.688C78.2344 541.131 71.4002 548 63 548ZM73.3176 524.958L63 511.131C63 511.131 52.6812 524.96 52.6807 524.961C50.9985 527.204 50.1094 529.875 50.1094 532.688C50.1094 539.839 55.8921 545.656 63 545.656C70.1079 545.656 75.8906 539.839 75.8906 532.688C75.8906 529.875 75.0015 527.204 73.3176 524.958Z" fill="url(#paint51_linear)"/>
</g>
<g clip-path="url(#clip52)">
<path d="M139 548C130.6 548 123.766 541.131 123.766 532.688C123.766 529.365 124.816 526.208 126.804 523.557L138.061 508.471C138.282 508.175 138.63 508 139 508C139.37 508 139.718 508.175 139.939 508.471L151.194 523.555C153.183 526.206 154.234 529.364 154.234 532.688C154.234 541.131 147.4 548 139 548ZM149.318 524.958L139 511.131C139 511.131 128.681 524.96 128.681 524.961C126.999 527.204 126.109 529.875 126.109 532.688C126.109 539.839 131.892 545.656 139 545.656C146.108 545.656 151.891 539.839 151.891 532.688C151.891 529.875 151.001 527.204 149.318 524.958Z" fill="url(#paint52_linear)"/>
</g>
<g clip-path="url(#clip53)">
<path d="M214 548C205.6 548 198.766 541.131 198.766 532.688C198.766 529.365 199.816 526.208 201.804 523.557L213.061 508.471C213.282 508.175 213.63 508 214 508C214.37 508 214.718 508.175 214.939 508.471L226.194 523.555C228.183 526.206 229.234 529.364 229.234 532.688C229.234 541.131 222.4 548 214 548ZM224.318 524.958L214 511.131C214 511.131 203.681 524.96 203.681 524.961C201.999 527.204 201.109 529.875 201.109 532.688C201.109 539.839 206.892 545.656 214 545.656C221.108 545.656 226.891 539.839 226.891 532.688C226.891 529.875 226.001 527.204 224.318 524.958Z" fill="url(#paint53_linear)"/>
</g>
<g clip-path="url(#clip54)">
<path d="M325 488C316.6 488 309.766 481.131 309.766 472.688C309.766 469.365 310.816 466.208 312.804 463.557L324.061 448.471C324.282 448.175 324.63 448 325 448C325.37 448 325.718 448.175 325.939 448.471L337.194 463.555C339.183 466.206 340.234 469.364 340.234 472.688C340.234 481.131 333.4 488 325 488ZM335.318 464.958L325 451.131C325 451.131 314.681 464.96 314.681 464.961C312.999 467.204 312.109 469.875 312.109 472.688C312.109 479.839 317.892 485.656 325 485.656C332.108 485.656 337.891 479.839 337.891 472.688C337.891 469.875 337.001 467.204 335.318 464.958Z" fill="url(#paint54_linear)"/>
</g>
<g clip-path="url(#clip55)">
<path d="M401 488C392.6 488 385.766 481.131 385.766 472.688C385.766 469.365 386.816 466.208 388.804 463.557L400.061 448.471C400.282 448.175 400.63 448 401 448C401.37 448 401.718 448.175 401.939 448.471L413.194 463.555C415.183 466.206 416.234 469.364 416.234 472.688C416.234 481.131 409.4 488 401 488ZM411.318 464.958L401 451.131C401 451.131 390.681 464.96 390.681 464.961C388.999 467.204 388.109 469.875 388.109 472.688C388.109 479.839 393.892 485.656 401 485.656C408.108 485.656 413.891 479.839 413.891 472.688C413.891 469.875 413.001 467.204 411.318 464.958Z" fill="url(#paint55_linear)"/>
</g>
<g clip-path="url(#clip56)">
<path d="M476 488C467.6 488 460.766 481.131 460.766 472.688C460.766 469.365 461.816 466.208 463.804 463.557L475.061 448.471C475.282 448.175 475.63 448 476 448C476.37 448 476.718 448.175 476.939 448.471L488.194 463.555C490.183 466.206 491.234 469.364 491.234 472.688C491.234 481.131 484.4 488 476 488ZM486.318 464.958L476 451.131C476 451.131 465.681 464.96 465.681 464.961C463.999 467.204 463.109 469.875 463.109 472.688C463.109 479.839 468.892 485.656 476 485.656C483.108 485.656 488.891 479.839 488.891 472.688C488.891 469.875 488.001 467.204 486.318 464.958Z" fill="url(#paint56_linear)"/>
</g>
<g clip-path="url(#clip57)">
<path d="M288 548C279.6 548 272.766 541.131 272.766 532.688C272.766 529.365 273.816 526.208 275.804 523.557L287.061 508.471C287.282 508.175 287.63 508 288 508C288.37 508 288.718 508.175 288.939 508.471L300.194 523.555C302.183 526.206 303.234 529.364 303.234 532.688C303.234 541.131 296.4 548 288 548ZM298.318 524.958L288 511.131C288 511.131 277.681 524.96 277.681 524.961C275.999 527.204 275.109 529.875 275.109 532.688C275.109 539.839 280.892 545.656 288 545.656C295.108 545.656 300.891 539.839 300.891 532.688C300.891 529.875 300.001 527.204 298.318 524.958Z" fill="url(#paint57_linear)"/>
</g>
<g clip-path="url(#clip58)">
<path d="M364 548C355.6 548 348.766 541.131 348.766 532.688C348.766 529.365 349.816 526.208 351.804 523.557L363.061 508.471C363.282 508.175 363.63 508 364 508C364.37 508 364.718 508.175 364.939 508.471L376.194 523.555C378.183 526.206 379.234 529.364 379.234 532.688C379.234 541.131 372.4 548 364 548ZM374.318 524.958L364 511.131C364 511.131 353.681 524.96 353.681 524.961C351.999 527.204 351.109 529.875 351.109 532.688C351.109 539.839 356.892 545.656 364 545.656C371.108 545.656 376.891 539.839 376.891 532.688C376.891 529.875 376.001 527.204 374.318 524.958Z" fill="url(#paint58_linear)"/>
</g>
<g clip-path="url(#clip59)">
<path d="M439 548C430.6 548 423.766 541.131 423.766 532.688C423.766 529.365 424.816 526.208 426.804 523.557L438.061 508.471C438.282 508.175 438.63 508 439 508C439.37 508 439.718 508.175 439.939 508.471L451.194 523.555C453.183 526.206 454.234 529.364 454.234 532.688C454.234 541.131 447.4 548 439 548ZM449.318 524.958L439 511.131C439 511.131 428.681 524.96 428.681 524.961C426.999 527.204 426.109 529.875 426.109 532.688C426.109 539.839 431.892 545.656 439 545.656C446.108 545.656 451.891 539.839 451.891 532.688C451.891 529.875 451.001 527.204 449.318 524.958Z" fill="url(#paint59_linear)"/>
</g>
<g clip-path="url(#clip60)">
<path d="M565 488C556.6 488 549.766 481.131 549.766 472.688C549.766 469.365 550.816 466.208 552.804 463.557L564.061 448.471C564.282 448.175 564.63 448 565 448C565.37 448 565.718 448.175 565.939 448.471L577.194 463.555C579.183 466.206 580.234 469.364 580.234 472.688C580.234 481.131 573.4 488 565 488ZM575.318 464.958L565 451.131C565 451.131 554.681 464.96 554.681 464.961C552.999 467.204 552.109 469.875 552.109 472.688C552.109 479.839 557.892 485.656 565 485.656C572.108 485.656 577.891 479.839 577.891 472.688C577.891 469.875 577.001 467.204 575.318 464.958Z" fill="url(#paint60_linear)"/>
</g>
<g clip-path="url(#clip61)">
<path d="M641 488C632.6 488 625.766 481.131 625.766 472.688C625.766 469.365 626.816 466.208 628.804 463.557L640.061 448.471C640.282 448.175 640.63 448 641 448C641.37 448 641.718 448.175 641.939 448.471L653.194 463.555C655.183 466.206 656.234 469.364 656.234 472.688C656.234 481.131 649.4 488 641 488ZM651.318 464.958L641 451.131C641 451.131 630.681 464.96 630.681 464.961C628.999 467.204 628.109 469.875 628.109 472.688C628.109 479.839 633.892 485.656 641 485.656C648.108 485.656 653.891 479.839 653.891 472.688C653.891 469.875 653.001 467.204 651.318 464.958Z" fill="url(#paint61_linear)"/>
</g>
<g clip-path="url(#clip62)">
<path d="M716 488C707.6 488 700.766 481.131 700.766 472.688C700.766 469.365 701.816 466.208 703.804 463.557L715.061 448.471C715.282 448.175 715.63 448 716 448C716.37 448 716.718 448.175 716.939 448.471L728.194 463.555C730.183 466.206 731.234 469.364 731.234 472.688C731.234 481.131 724.4 488 716 488ZM726.318 464.958L716 451.131C716 451.131 705.681 464.96 705.681 464.961C703.999 467.204 703.109 469.875 703.109 472.688C703.109 479.839 708.892 485.656 716 485.656C723.108 485.656 728.891 479.839 728.891 472.688C728.891 469.875 728.001 467.204 726.318 464.958Z" fill="url(#paint62_linear)"/>
</g>
<g clip-path="url(#clip63)">
<path d="M528 548C519.6 548 512.766 541.131 512.766 532.688C512.766 529.365 513.816 526.208 515.804 523.557L527.061 508.471C527.282 508.175 527.63 508 528 508C528.37 508 528.718 508.175 528.939 508.471L540.194 523.555C542.183 526.206 543.234 529.364 543.234 532.688C543.234 541.131 536.4 548 528 548ZM538.318 524.958L528 511.131C528 511.131 517.681 524.96 517.681 524.961C515.999 527.204 515.109 529.875 515.109 532.688C515.109 539.839 520.892 545.656 528 545.656C535.108 545.656 540.891 539.839 540.891 532.688C540.891 529.875 540.001 527.204 538.318 524.958Z" fill="url(#paint63_linear)"/>
</g>
<g clip-path="url(#clip64)">
<path d="M604 548C595.6 548 588.766 541.131 588.766 532.688C588.766 529.365 589.816 526.208 591.804 523.557L603.061 508.471C603.282 508.175 603.63 508 604 508C604.37 508 604.718 508.175 604.939 508.471L616.194 523.555C618.183 526.206 619.234 529.364 619.234 532.688C619.234 541.131 612.4 548 604 548ZM614.318 524.958L604 511.131C604 511.131 593.681 524.96 593.681 524.961C591.999 527.204 591.109 529.875 591.109 532.688C591.109 539.839 596.892 545.656 604 545.656C611.108 545.656 616.891 539.839 616.891 532.688C616.891 529.875 616.001 527.204 614.318 524.958Z" fill="url(#paint64_linear)"/>
</g>
<g clip-path="url(#clip65)">
<path d="M679 548C670.6 548 663.766 541.131 663.766 532.688C663.766 529.365 664.816 526.208 666.804 523.557L678.061 508.471C678.282 508.175 678.63 508 679 508C679.37 508 679.718 508.175 679.939 508.471L691.194 523.555C693.183 526.206 694.234 529.364 694.234 532.688C694.234 541.131 687.4 548 679 548ZM689.318 524.958L679 511.131C679 511.131 668.681 524.96 668.681 524.961C666.999 527.204 666.109 529.875 666.109 532.688C666.109 539.839 671.892 545.656 679 545.656C686.108 545.656 691.891 539.839 691.891 532.688C691.891 529.875 691.001 527.204 689.318 524.958Z" fill="url(#paint65_linear)"/>
</g>
<g clip-path="url(#clip66)">
<path d="M790 488C781.6 488 774.766 481.131 774.766 472.688C774.766 469.365 775.816 466.208 777.804 463.557L789.061 448.471C789.282 448.175 789.63 448 790 448C790.37 448 790.718 448.175 790.939 448.471L802.194 463.555C804.183 466.206 805.234 469.364 805.234 472.688C805.234 481.131 798.4 488 790 488ZM800.318 464.958L790 451.131C790 451.131 779.681 464.96 779.681 464.961C777.999 467.204 777.109 469.875 777.109 472.688C777.109 479.839 782.892 485.656 790 485.656C797.108 485.656 802.891 479.839 802.891 472.688C802.891 469.875 802.001 467.204 800.318 464.958Z" fill="url(#paint66_linear)"/>
</g>
<g clip-path="url(#clip67)">
<path d="M866 488C857.6 488 850.766 481.131 850.766 472.688C850.766 469.365 851.816 466.208 853.804 463.557L865.061 448.471C865.282 448.175 865.63 448 866 448C866.37 448 866.718 448.175 866.939 448.471L878.194 463.555C880.183 466.206 881.234 469.364 881.234 472.688C881.234 481.131 874.4 488 866 488ZM876.318 464.958L866 451.131C866 451.131 855.681 464.96 855.681 464.961C853.999 467.204 853.109 469.875 853.109 472.688C853.109 479.839 858.892 485.656 866 485.656C873.108 485.656 878.891 479.839 878.891 472.688C878.891 469.875 878.001 467.204 876.318 464.958Z" fill="url(#paint67_linear)"/>
</g>
<g clip-path="url(#clip68)">
<path d="M941 488C932.6 488 925.766 481.131 925.766 472.688C925.766 469.365 926.816 466.208 928.804 463.557L940.061 448.471C940.282 448.175 940.63 448 941 448C941.37 448 941.718 448.175 941.939 448.471L953.194 463.555C955.183 466.206 956.234 469.364 956.234 472.688C956.234 481.131 949.4 488 941 488ZM951.318 464.958L941 451.131C941 451.131 930.681 464.96 930.681 464.961C928.999 467.204 928.109 469.875 928.109 472.688C928.109 479.839 933.892 485.656 941 485.656C948.108 485.656 953.891 479.839 953.891 472.688C953.891 469.875 953.001 467.204 951.318 464.958Z" fill="url(#paint68_linear)"/>
</g>
<g clip-path="url(#clip69)">
<path d="M753 548C744.6 548 737.766 541.131 737.766 532.688C737.766 529.365 738.816 526.208 740.804 523.557L752.061 508.471C752.282 508.175 752.63 508 753 508C753.37 508 753.718 508.175 753.939 508.471L765.194 523.555C767.183 526.206 768.234 529.364 768.234 532.688C768.234 541.131 761.4 548 753 548ZM763.318 524.958L753 511.131C753 511.131 742.681 524.96 742.681 524.961C740.999 527.204 740.109 529.875 740.109 532.688C740.109 539.839 745.892 545.656 753 545.656C760.108 545.656 765.891 539.839 765.891 532.688C765.891 529.875 765.001 527.204 763.318 524.958Z" fill="url(#paint69_linear)"/>
</g>
<g clip-path="url(#clip70)">
<path d="M829 548C820.6 548 813.766 541.131 813.766 532.688C813.766 529.365 814.816 526.208 816.804 523.557L828.061 508.471C828.282 508.175 828.63 508 829 508C829.37 508 829.718 508.175 829.939 508.471L841.194 523.555C843.183 526.206 844.234 529.364 844.234 532.688C844.234 541.131 837.4 548 829 548ZM839.318 524.958L829 511.131C829 511.131 818.681 524.96 818.681 524.961C816.999 527.204 816.109 529.875 816.109 532.688C816.109 539.839 821.892 545.656 829 545.656C836.108 545.656 841.891 539.839 841.891 532.688C841.891 529.875 841.001 527.204 839.318 524.958Z" fill="url(#paint70_linear)"/>
</g>
<g clip-path="url(#clip71)">
<path d="M904 548C895.6 548 888.766 541.131 888.766 532.688C888.766 529.365 889.816 526.208 891.804 523.557L903.061 508.471C903.282 508.175 903.63 508 904 508C904.37 508 904.718 508.175 904.939 508.471L916.194 523.555C918.183 526.206 919.234 529.364 919.234 532.688C919.234 541.131 912.4 548 904 548ZM914.318 524.958L904 511.131C904 511.131 893.681 524.96 893.681 524.961C891.999 527.204 891.109 529.875 891.109 532.688C891.109 539.839 896.892 545.656 904 545.656C911.108 545.656 916.891 539.839 916.891 532.688C916.891 529.875 916.001 527.204 914.318 524.958Z" fill="url(#paint71_linear)"/>
</g>
<g clip-path="url(#clip72)">
<path d="M571 608C562.6 608 555.766 601.131 555.766 592.688C555.766 589.365 556.816 586.208 558.804 583.557L570.061 568.471C570.282 568.175 570.63 568 571 568C571.37 568 571.718 568.175 571.939 568.471L583.194 583.555C585.183 586.206 586.234 589.364 586.234 592.688C586.234 601.131 579.4 608 571 608ZM581.318 584.958L571 571.131C571 571.131 560.681 584.96 560.681 584.961C558.999 587.204 558.109 589.875 558.109 592.688C558.109 599.839 563.892 605.656 571 605.656C578.108 605.656 583.891 599.839 583.891 592.688C583.891 589.875 583.001 587.204 581.318 584.958Z" fill="url(#paint72_linear)"/>
</g>
<g clip-path="url(#clip73)">
<path d="M647 608C638.6 608 631.766 601.131 631.766 592.688C631.766 589.365 632.816 586.208 634.804 583.557L646.061 568.471C646.282 568.175 646.63 568 647 568C647.37 568 647.718 568.175 647.939 568.471L659.194 583.555C661.183 586.206 662.234 589.364 662.234 592.688C662.234 601.131 655.4 608 647 608ZM657.318 584.958L647 571.131C647 571.131 636.681 584.96 636.681 584.961C634.999 587.204 634.109 589.875 634.109 592.688C634.109 599.839 639.892 605.656 647 605.656C654.108 605.656 659.891 599.839 659.891 592.688C659.891 589.875 659.001 587.204 657.318 584.958Z" fill="url(#paint73_linear)"/>
</g>
<g clip-path="url(#clip74)">
<path d="M722 608C713.6 608 706.766 601.131 706.766 592.688C706.766 589.365 707.816 586.208 709.804 583.557L721.061 568.471C721.282 568.175 721.63 568 722 568C722.37 568 722.718 568.175 722.939 568.471L734.194 583.555C736.183 586.206 737.234 589.364 737.234 592.688C737.234 601.131 730.4 608 722 608ZM732.318 584.958L722 571.131C722 571.131 711.681 584.96 711.681 584.961C709.999 587.204 709.109 589.875 709.109 592.688C709.109 599.839 714.892 605.656 722 605.656C729.108 605.656 734.891 599.839 734.891 592.688C734.891 589.875 734.001 587.204 732.318 584.958Z" fill="url(#paint74_linear)"/>
</g>
<g clip-path="url(#clip75)">
<path d="M534 668C525.6 668 518.766 661.131 518.766 652.688C518.766 649.365 519.816 646.208 521.804 643.557L533.061 628.471C533.282 628.175 533.63 628 534 628C534.37 628 534.718 628.175 534.939 628.471L546.194 643.555C548.183 646.206 549.234 649.364 549.234 652.688C549.234 661.131 542.4 668 534 668ZM544.318 644.958L534 631.131C534 631.131 523.681 644.96 523.681 644.961C521.999 647.204 521.109 649.875 521.109 652.688C521.109 659.839 526.892 665.656 534 665.656C541.108 665.656 546.891 659.839 546.891 652.688C546.891 649.875 546.001 647.204 544.318 644.958Z" fill="url(#paint75_linear)"/>
</g>
<g clip-path="url(#clip76)">
<path d="M610 668C601.6 668 594.766 661.131 594.766 652.688C594.766 649.365 595.816 646.208 597.804 643.557L609.061 628.471C609.282 628.175 609.63 628 610 628C610.37 628 610.718 628.175 610.939 628.471L622.194 643.555C624.183 646.206 625.234 649.364 625.234 652.688C625.234 661.131 618.4 668 610 668ZM620.318 644.958L610 631.131C610 631.131 599.681 644.96 599.681 644.961C597.999 647.204 597.109 649.875 597.109 652.688C597.109 659.839 602.892 665.656 610 665.656C617.108 665.656 622.891 659.839 622.891 652.688C622.891 649.875 622.001 647.204 620.318 644.958Z" fill="url(#paint76_linear)"/>
</g>
<g clip-path="url(#clip77)">
<path d="M685 668C676.6 668 669.766 661.131 669.766 652.688C669.766 649.365 670.816 646.208 672.804 643.557L684.061 628.471C684.282 628.175 684.63 628 685 628C685.37 628 685.718 628.175 685.939 628.471L697.194 643.555C699.183 646.206 700.234 649.364 700.234 652.688C700.234 661.131 693.4 668 685 668ZM695.318 644.958L685 631.131C685 631.131 674.681 644.96 674.681 644.961C672.999 647.204 672.109 649.875 672.109 652.688C672.109 659.839 677.892 665.656 685 665.656C692.108 665.656 697.891 659.839 697.891 652.688C697.891 649.875 697.001 647.204 695.318 644.958Z" fill="url(#paint77_linear)"/>
</g>
<g clip-path="url(#clip78)">
<path d="M796 608C787.6 608 780.766 601.131 780.766 592.688C780.766 589.365 781.816 586.208 783.804 583.557L795.061 568.471C795.282 568.175 795.63 568 796 568C796.37 568 796.718 568.175 796.939 568.471L808.194 583.555C810.183 586.206 811.234 589.364 811.234 592.688C811.234 601.131 804.4 608 796 608ZM806.318 584.958L796 571.131C796 571.131 785.681 584.96 785.681 584.961C783.999 587.204 783.109 589.875 783.109 592.688C783.109 599.839 788.892 605.656 796 605.656C803.108 605.656 808.891 599.839 808.891 592.688C808.891 589.875 808.001 587.204 806.318 584.958Z" fill="url(#paint78_linear)"/>
</g>
<g clip-path="url(#clip79)">
<path d="M872 608C863.6 608 856.766 601.131 856.766 592.688C856.766 589.365 857.816 586.208 859.804 583.557L871.061 568.471C871.282 568.175 871.63 568 872 568C872.37 568 872.718 568.175 872.939 568.471L884.194 583.555C886.183 586.206 887.234 589.364 887.234 592.688C887.234 601.131 880.4 608 872 608ZM882.318 584.958L872 571.131C872 571.131 861.681 584.96 861.681 584.961C859.999 587.204 859.109 589.875 859.109 592.688C859.109 599.839 864.892 605.656 872 605.656C879.108 605.656 884.891 599.839 884.891 592.688C884.891 589.875 884.001 587.204 882.318 584.958Z" fill="url(#paint79_linear)"/>
</g>
<g clip-path="url(#clip80)">
<path d="M947 608C938.6 608 931.766 601.131 931.766 592.688C931.766 589.365 932.816 586.208 934.804 583.557L946.061 568.471C946.282 568.175 946.63 568 947 568C947.37 568 947.718 568.175 947.939 568.471L959.194 583.555C961.183 586.206 962.234 589.364 962.234 592.688C962.234 601.131 955.4 608 947 608ZM957.318 584.958L947 571.131C947 571.131 936.681 584.96 936.681 584.961C934.999 587.204 934.109 589.875 934.109 592.688C934.109 599.839 939.892 605.656 947 605.656C954.108 605.656 959.891 599.839 959.891 592.688C959.891 589.875 959.001 587.204 957.318 584.958Z" fill="url(#paint80_linear)"/>
</g>
<g clip-path="url(#clip81)">
<path d="M759 668C750.6 668 743.766 661.131 743.766 652.688C743.766 649.365 744.816 646.208 746.804 643.557L758.061 628.471C758.282 628.175 758.63 628 759 628C759.37 628 759.718 628.175 759.939 628.471L771.194 643.555C773.183 646.206 774.234 649.364 774.234 652.688C774.234 661.131 767.4 668 759 668ZM769.318 644.958L759 631.131C759 631.131 748.681 644.96 748.681 644.961C746.999 647.204 746.109 649.875 746.109 652.688C746.109 659.839 751.892 665.656 759 665.656C766.108 665.656 771.891 659.839 771.891 652.688C771.891 649.875 771.001 647.204 769.318 644.958Z" fill="url(#paint81_linear)"/>
</g>
<g clip-path="url(#clip82)">
<path d="M835 668C826.6 668 819.766 661.131 819.766 652.688C819.766 649.365 820.816 646.208 822.804 643.557L834.061 628.471C834.282 628.175 834.63 628 835 628C835.37 628 835.718 628.175 835.939 628.471L847.194 643.555C849.183 646.206 850.234 649.364 850.234 652.688C850.234 661.131 843.4 668 835 668ZM845.318 644.958L835 631.131C835 631.131 824.681 644.96 824.681 644.961C822.999 647.204 822.109 649.875 822.109 652.688C822.109 659.839 827.892 665.656 835 665.656C842.108 665.656 847.891 659.839 847.891 652.688C847.891 649.875 847.001 647.204 845.318 644.958Z" fill="url(#paint82_linear)"/>
</g>
<g clip-path="url(#clip83)">
<path d="M910 668C901.6 668 894.766 661.131 894.766 652.688C894.766 649.365 895.816 646.208 897.804 643.557L909.061 628.471C909.282 628.175 909.63 628 910 628C910.37 628 910.718 628.175 910.939 628.471L922.194 643.555C924.183 646.206 925.234 649.364 925.234 652.688C925.234 661.131 918.4 668 910 668ZM920.318 644.958L910 631.131C910 631.131 899.681 644.96 899.681 644.961C897.999 647.204 897.109 649.875 897.109 652.688C897.109 659.839 902.892 665.656 910 665.656C917.108 665.656 922.891 659.839 922.891 652.688C922.891 649.875 922.001 647.204 920.318 644.958Z" fill="url(#paint83_linear)"/>
</g>
<g clip-path="url(#clip84)">
<path d="M651 728C642.6 728 635.766 721.131 635.766 712.688C635.766 709.365 636.816 706.208 638.804 703.557L650.061 688.471C650.282 688.175 650.63 688 651 688C651.37 688 651.718 688.175 651.939 688.471L663.194 703.555C665.183 706.206 666.234 709.364 666.234 712.688C666.234 721.131 659.4 728 651 728ZM661.318 704.958L651 691.131C651 691.131 640.681 704.96 640.681 704.961C638.999 707.204 638.109 709.875 638.109 712.688C638.109 719.839 643.892 725.656 651 725.656C658.108 725.656 663.891 719.839 663.891 712.688C663.891 709.875 663.001 707.204 661.318 704.958Z" fill="url(#paint84_linear)"/>
</g>
<g clip-path="url(#clip85)">
<path d="M650 848C641.6 848 634.766 841.131 634.766 832.688C634.766 829.365 635.816 826.208 637.804 823.557L649.061 808.471C649.282 808.175 649.63 808 650 808C650.37 808 650.718 808.175 650.939 808.471L662.194 823.555C664.183 826.206 665.234 829.364 665.234 832.688C665.234 841.131 658.4 848 650 848ZM660.318 824.958L650 811.131C650 811.131 639.681 824.96 639.681 824.961C637.999 827.204 637.109 829.875 637.109 832.688C637.109 839.839 642.892 845.656 650 845.656C657.108 845.656 662.891 839.839 662.891 832.688C662.891 829.875 662.001 827.204 660.318 824.958Z" fill="url(#paint85_linear)"/>
</g>
<g clip-path="url(#clip86)">
<path d="M872 721C863.6 721 856.766 714.131 856.766 705.688C856.766 702.365 857.816 699.208 859.804 696.557L871.061 681.471C871.282 681.175 871.63 681 872 681C872.37 681 872.718 681.175 872.939 681.471L884.194 696.555C886.183 699.206 887.234 702.364 887.234 705.688C887.234 714.131 880.4 721 872 721ZM882.318 697.958L872 684.131C872 684.131 861.681 697.96 861.681 697.961C859.999 700.204 859.109 702.875 859.109 705.688C859.109 712.839 864.892 718.656 872 718.656C879.108 718.656 884.891 712.839 884.891 705.688C884.891 702.875 884.001 700.204 882.318 697.958Z" fill="url(#paint86_linear)"/>
</g>
<g clip-path="url(#clip87)">
<path d="M947 721C938.6 721 931.766 714.131 931.766 705.688C931.766 702.365 932.816 699.208 934.804 696.557L946.061 681.471C946.282 681.175 946.63 681 947 681C947.37 681 947.718 681.175 947.939 681.471L959.194 696.555C961.183 699.206 962.234 702.364 962.234 705.688C962.234 714.131 955.4 721 947 721ZM957.318 697.958L947 684.131C947 684.131 936.681 697.96 936.681 697.961C934.999 700.204 934.109 702.875 934.109 705.688C934.109 712.839 939.892 718.656 947 718.656C954.108 718.656 959.891 712.839 959.891 705.688C959.891 702.875 959.001 700.204 957.318 697.958Z" fill="url(#paint87_linear)"/>
</g>
<g clip-path="url(#clip88)">
<path d="M907 778C898.6 778 891.766 771.131 891.766 762.688C891.766 759.365 892.816 756.208 894.804 753.557L906.061 738.471C906.282 738.175 906.63 738 907 738C907.37 738 907.718 738.175 907.939 738.471L919.194 753.555C921.183 756.206 922.234 759.364 922.234 762.688C922.234 771.131 915.4 778 907 778ZM917.318 754.958L907 741.131C907 741.131 896.681 754.96 896.681 754.961C894.999 757.204 894.109 759.875 894.109 762.688C894.109 769.839 899.892 775.656 907 775.656C914.108 775.656 919.891 769.839 919.891 762.688C919.891 759.875 919.001 757.204 917.318 754.958Z" fill="url(#paint88_linear)"/>
</g>
<g clip-path="url(#clip89)">
<path d="M496 732C487.6 732 480.766 725.131 480.766 716.688C480.766 713.365 481.816 710.208 483.804 707.557L495.061 692.471C495.282 692.175 495.63 692 496 692C496.37 692 496.718 692.175 496.939 692.471L508.194 707.555C510.183 710.206 511.234 713.364 511.234 716.688C511.234 725.131 504.4 732 496 732ZM506.318 708.958L496 695.131C496 695.131 485.681 708.96 485.681 708.961C483.999 711.204 483.109 713.875 483.109 716.688C483.109 723.839 488.892 729.656 496 729.656C503.108 729.656 508.891 723.839 508.891 716.688C508.891 713.875 508.001 711.204 506.318 708.958Z" fill="url(#paint89_linear)"/>
</g>
<g clip-path="url(#clip90)">
<path d="M532 813C523.6 813 516.766 806.131 516.766 797.688C516.766 794.365 517.816 791.208 519.804 788.557L531.061 773.471C531.282 773.175 531.63 773 532 773C532.37 773 532.718 773.175 532.939 773.471L544.194 788.555C546.183 791.206 547.234 794.364 547.234 797.688C547.234 806.131 540.4 813 532 813ZM542.318 789.958L532 776.131C532 776.131 521.681 789.96 521.681 789.961C519.999 792.204 519.109 794.875 519.109 797.688C519.109 804.839 524.892 810.656 532 810.656C539.108 810.656 544.891 804.839 544.891 797.688C544.891 794.875 544.001 792.204 542.318 789.958Z" fill="url(#paint90_linear)"/>
</g>
<g clip-path="url(#clip91)">
<path d="M869 840C860.6 840 853.766 833.131 853.766 824.688C853.766 821.365 854.816 818.208 856.804 815.557L868.061 800.471C868.282 800.175 868.63 800 869 800C869.37 800 869.718 800.175 869.939 800.471L881.194 815.555C883.183 818.206 884.234 821.364 884.234 824.688C884.234 833.131 877.4 840 869 840ZM879.318 816.958L869 803.131C869 803.131 858.681 816.96 858.681 816.961C856.999 819.204 856.109 821.875 856.109 824.688C856.109 831.839 861.892 837.656 869 837.656C876.108 837.656 881.891 831.839 881.891 824.688C881.891 821.875 881.001 819.204 879.318 816.958Z" fill="url(#paint91_linear)"/>
</g>
<g clip-path="url(#clip92)">
<path d="M944 840C935.6 840 928.766 833.131 928.766 824.688C928.766 821.365 929.816 818.208 931.804 815.557L943.061 800.471C943.282 800.175 943.63 800 944 800C944.37 800 944.718 800.175 944.939 800.471L956.194 815.555C958.183 818.206 959.234 821.364 959.234 824.688C959.234 833.131 952.4 840 944 840ZM954.318 816.958L944 803.131C944 803.131 933.681 816.96 933.681 816.961C931.999 819.204 931.109 821.875 931.109 824.688C931.109 831.839 936.892 837.656 944 837.656C951.108 837.656 956.891 831.839 956.891 824.688C956.891 821.875 956.001 819.204 954.318 816.958Z" fill="url(#paint92_linear)"/>
</g>
<path d="M587.903 826.018C587.399 825.513 586.698 825.223 585.984 825.223C585.27 825.223 584.57 825.513 584.065 826.018C583.56 826.523 583.27 827.223 583.27 827.938C583.27 828.652 583.56 829.352 584.065 829.857C584.57 830.362 585.27 830.652 585.984 830.652C586.698 830.652 587.399 830.362 587.903 829.857C588.409 829.352 588.699 828.652 588.699 827.938C588.699 827.223 588.409 826.523 587.903 826.018Z" fill="#3F0606"/>
<path d="M585.984 835.811C584.485 835.811 583.27 837.026 583.27 838.525V851.285C583.27 852.784 584.485 854 585.984 854C587.484 854 588.699 852.784 588.699 851.285V838.525C588.699 837.026 587.484 835.811 585.984 835.811Z" fill="#3F0606"/>
<path d="M630.508 756.734C632.007 756.734 633.223 755.519 633.223 754.019V730.746C633.223 722.064 626.159 715 617.477 715H567.523C558.841 715 551.777 722.064 551.777 730.746V796.988C551.777 805.671 558.841 812.734 567.523 812.734H583.27V817.35C583.27 818.849 584.485 820.064 585.984 820.064C587.484 820.064 588.699 818.849 588.699 817.35V812.734H596.301V851.285C596.301 852.784 597.516 854 599.016 854C600.515 854 601.73 852.784 601.73 851.285V812.734H617.477C626.159 812.734 633.223 805.671 633.223 796.988V774.184C633.223 772.684 632.007 771.469 630.508 771.469C629.009 771.469 627.793 772.684 627.793 774.184V796.988C627.793 802.677 623.165 807.305 617.477 807.305H567.523C561.835 807.305 557.207 802.677 557.207 796.988V730.746C557.207 725.058 561.835 720.43 567.523 720.43H617.477C623.165 720.43 627.793 725.058 627.793 730.746V754.019C627.793 755.519 629.009 756.734 630.508 756.734Z" fill="#3F0606"/>
<path d="M632.427 762.781C631.922 762.276 631.222 761.986 630.508 761.986C629.794 761.986 629.093 762.276 628.588 762.781C628.083 763.286 627.793 763.986 627.793 764.7C627.793 765.415 628.083 766.115 628.588 766.62C629.093 767.125 629.794 767.415 630.508 767.415C631.225 767.415 631.922 767.125 632.427 766.62C632.932 766.115 633.223 765.415 633.223 764.7C633.223 763.986 632.932 763.286 632.427 762.781Z" fill="#3F0606"/>
<path d="M612.397 729.66H572.603C568.305 729.66 564.809 733.157 564.809 737.455V759.449C564.809 760.948 566.024 762.164 567.523 762.164H570.615C571.736 765.324 574.753 767.594 578.292 767.594C581.831 767.594 584.849 765.324 585.97 762.164H598.94C600.06 765.324 603.078 767.594 606.617 767.594C610.156 767.594 613.174 765.324 614.295 762.164H617.477C618.976 762.164 620.191 760.948 620.191 759.449V737.455C620.191 733.157 616.695 729.66 612.397 729.66ZM587.545 735.09H597.455V743.197H587.545V735.09ZM570.238 737.455C570.238 736.151 571.299 735.09 572.603 735.09H582.116V743.197H570.238V737.455ZM580.989 759.753C580.837 761.107 579.686 762.164 578.292 762.164C576.795 762.164 575.578 760.946 575.578 759.449C575.578 757.952 576.795 756.734 578.292 756.734C579.686 756.734 580.837 757.791 580.989 759.145C580.978 759.245 580.971 759.346 580.971 759.449C580.971 759.552 580.978 759.653 580.989 759.753ZM606.617 762.164C605.12 762.164 603.902 760.946 603.902 759.449C603.902 757.952 605.12 756.734 606.617 756.734C608.114 756.734 609.332 757.952 609.332 759.449C609.332 760.946 608.114 762.164 606.617 762.164ZM614.762 756.734H614.295C613.174 753.574 610.156 751.305 606.617 751.305C603.078 751.305 600.06 753.574 598.94 756.734H585.97C584.849 753.574 581.831 751.305 578.292 751.305C574.753 751.305 571.736 753.574 570.615 756.734H570.238V748.627H614.762V756.734ZM614.762 743.197H602.884V735.09H612.397C613.701 735.09 614.762 736.151 614.762 737.455V743.197Z" fill="#3F0606"/>
<path d="M581.736 782.307C581.736 778.115 578.326 774.705 574.135 774.705H567.523C566.024 774.705 564.809 775.921 564.809 777.42V787.193V796.967C564.809 798.466 566.024 799.682 567.523 799.682H574.135C578.326 799.682 581.736 796.272 581.736 792.08C581.736 790.221 581.064 788.516 579.951 787.193C581.064 785.871 581.736 784.166 581.736 782.307ZM574.135 794.252H570.238V789.908H574.135C575.332 789.908 576.307 790.883 576.307 792.08C576.307 793.278 575.332 794.252 574.135 794.252ZM574.135 784.479H570.238V780.135H574.135C575.332 780.135 576.307 781.109 576.307 782.307C576.307 783.504 575.332 784.479 574.135 784.479Z" fill="#3F0606"/>
<path d="M598.228 774.705C596.729 774.705 595.513 775.921 595.513 777.42V791.537C595.513 793.034 594.296 794.252 592.799 794.252C591.302 794.252 590.084 793.034 590.084 791.537V777.42C590.084 775.921 588.868 774.705 587.369 774.705C585.87 774.705 584.654 775.921 584.654 777.42V791.537C584.654 796.028 588.308 799.682 592.799 799.682C597.29 799.682 600.943 796.028 600.943 791.537V777.42C600.943 775.921 599.727 774.705 598.228 774.705Z" fill="#3F0606"/>
<path d="M612.909 784.479H611.184C609.987 784.479 609.013 783.504 609.013 782.307C609.013 781.109 609.987 780.135 611.184 780.135H614.619C616.119 780.135 617.334 778.919 617.334 777.42C617.334 775.921 616.119 774.705 614.619 774.705H611.184C606.993 774.705 603.583 778.115 603.583 782.307C603.583 786.498 606.993 789.908 611.184 789.908H612.909C614.107 789.908 615.081 790.883 615.081 792.08C615.081 793.278 614.107 794.252 612.909 794.252H608.389C606.89 794.252 605.674 795.468 605.674 796.967C605.674 798.466 606.89 799.682 608.389 799.682H612.909C617.101 799.682 620.511 796.272 620.511 792.08C620.511 787.889 617.101 784.479 612.909 784.479Z" fill="#3F0606"/>
<path d="M475.211 648.734C485.571 648.734 494 640.305 494 629.946V592.366C494 582.007 485.571 573.578 475.211 573.578H442.33C437.141 573.578 432.936 577.785 432.936 582.973V780.262C422.575 780.262 414.146 788.691 414.146 799.051V836.633H384.663V836.632V628.328C395.597 624.45 403.452 614.008 403.452 601.76C403.452 586.22 390.809 573.577 375.268 573.577H41.1836C25.6432 573.577 13 586.221 13 601.761V620.55C13 632.797 20.8548 643.24 31.7891 647.118V836.632V836.633H22.3945C17.2059 836.633 13 840.84 13 846.027C13 851.215 17.2059 855.422 22.3945 855.422H484.605C489.794 855.422 494 851.215 494 846.027C494 840.84 489.794 836.633 484.605 836.633H470.514V799.051C470.514 788.691 462.085 780.262 451.725 780.262V648.733H475.211V648.734ZM302.171 799.052V836.633H208.228V799.052H302.171ZM320.96 799.052H330.355C335.543 799.052 339.749 794.845 339.749 789.657C339.749 784.47 335.543 780.263 330.355 780.263H180.042C174.854 780.263 170.648 784.47 170.648 789.657C170.648 794.845 174.854 799.052 180.042 799.052H189.437V836.633H116.34V817.837C131.88 817.837 144.523 805.194 144.523 789.653V761.469H365.872V836.632V836.633H320.958V799.052H320.96ZM69.3681 714.498V742.681H50.5781V667.525H165.947C171.135 667.525 175.341 663.318 175.341 658.13C175.341 652.942 171.135 648.736 165.947 648.736H50.5781V647.106C58.571 644.269 64.9236 637.938 67.757 629.945H365.874V648.736H250.498C245.31 648.736 241.104 652.942 241.104 658.13C241.104 663.318 245.31 667.525 250.498 667.525H365.874V742.681H144.525V714.498C144.525 698.958 131.882 686.315 116.342 686.315H97.5527C82.0113 686.315 69.3681 698.958 69.3681 714.498ZM88.1572 714.498C88.1572 709.318 92.3716 705.104 97.5517 705.104H116.341C121.521 705.104 125.735 709.318 125.735 714.498V789.654C125.735 794.835 121.521 799.049 116.341 799.049H97.5517C92.3716 799.049 88.1572 794.835 88.1572 789.654V714.498ZM31.7891 601.761C31.7891 596.581 36.0034 592.367 41.1836 592.367H375.269C380.449 592.367 384.664 596.582 384.664 601.762C384.664 606.942 380.449 611.156 375.269 611.156H59.9727C54.7841 611.156 50.5781 615.362 50.5781 620.55C50.5781 625.731 46.3637 629.946 41.1836 629.946C36.0034 629.946 31.7891 625.731 31.7891 620.551V601.761ZM50.5781 836.632V761.469H69.3681V789.653C69.3681 805.194 82.0113 817.837 97.5517 817.837V836.633L50.5781 836.632C50.5781 836.633 50.5781 836.633 50.5781 836.632ZM432.936 836.633V799.051H451.725V836.633H432.936ZM451.725 592.367L475.211 592.366V629.945H451.725V592.367Z" fill="#3F0606"/>
<path d="M208.226 667.525C213.414 667.525 217.62 663.318 217.62 658.13C217.62 652.942 213.414 648.735 208.226 648.735H208.219C203.031 648.735 198.828 652.942 198.828 658.13C198.828 663.318 203.037 667.525 208.226 667.525Z" fill="#3F0606"/>
<rect x="692.072" y="752" width="16.689" height="51" rx="8.34452" transform="rotate(36.1318 692.072 752)" fill="#3F0606"/>
<path fill-rule="evenodd" clip-rule="evenodd" d="M693.312 730.391C693.312 719.129 701.455 710 711.5 710C721.545 710 729.687 719.129 729.687 730.391C729.687 741.652 721.545 750.781 711.5 750.781C701.455 750.781 693.312 741.652 693.312 730.391ZM757.632 730.779C754.476 727.24 749.358 727.24 746.201 730.779L724.318 755.312H698.681L698.5 755.109V755.5H692L689.5 756.5V755.5H689.5V770.5L688.644 769.692L689.271 770.394V845.938C689.271 850.943 692.89 855 697.354 855H701.396C705.86 855 709.479 850.943 709.479 845.938V814.219H713.521V845.938C713.521 850.943 717.14 855 721.604 855H725.646C730.11 855 733.729 850.943 733.729 845.938V770.394L757.632 743.596C760.789 740.056 760.789 734.319 757.632 730.779Z" fill="#3F0606"/>
<path fill-rule="evenodd" clip-rule="evenodd" d="M759.556 622.793C787.252 625.794 813.177 645.149 819.93 677.361C820.449 679.748 817.946 682.418 815.514 680.055C803.355 667.199 790.109 667.648 778.067 688.799C776.816 691.044 774.549 690.832 773.416 688.799C773.375 688.727 773.303 688.583 773.201 688.376C771.823 685.589 764.858 671.5 752.001 671.5C741.187 671.5 735.355 680.433 730.585 688.799C729.452 690.832 727.185 691.044 725.934 688.799C713.916 667.671 700.764 667.057 688.487 680.055C686.078 682.395 683.552 679.748 684.071 677.361C690.966 645.149 716.655 625.794 744.445 622.793V618.562C744.445 614.379 747.821 611 752.001 611C756.18 611 759.556 614.379 759.556 618.562V622.793Z" fill="#711212"/>
<rect x="744" y="681" width="15" height="63" rx="7" fill="#711212"/>
<path fill-rule="evenodd" clip-rule="evenodd" d="M48.8638 175H956.295C957.405 172.936 958 170.755 958 168.5C958 155.521 938.301 145 914 145C912.519 145 911.054 145.039 909.611 145.115C916.051 141.174 920 135.854 920 130C920 117.85 902.987 108 882 108C863.602 108 848.258 115.569 844.752 125.622C842.568 124.903 840.304 124.281 837.972 123.766C837.239 107.77 822.309 95 804 95C791.839 95 781.169 100.633 775.16 109.104C764.772 103.963 752.563 101 739.5 101C732.981 101 726.675 101.738 720.701 103.116C713.036 96.276 702.117 92 690 92C673.482 92 659.192 99.9458 652.332 111.501C644.197 107.59 634.947 105.046 625.062 104.26C621.259 96.9312 614.147 92 606 92C597.671 92 590.423 97.1545 586.688 104.755C581.125 104.26 575.379 104 569.5 104C560.88 104 552.544 104.558 544.655 105.6C535.239 94.5482 516.313 87 494.5 87C471.016 87 450.878 95.7487 442.351 108.2C440.579 108.088 438.788 108.022 436.981 108.005C436.994 107.837 437 107.669 437 107.5C437 95.6259 405.884 86 367.5 86C341.076 86 318.096 90.5618 306.341 97.2785C296.055 90.3287 281.56 86 265.5 86C254.46 86 244.16 88.0455 235.457 91.5819C225.643 81.443 210.937 75 194.5 75C170.86 75 150.801 88.3263 143.726 106.807C135.258 99.4782 123.937 95 111.5 95C90.277 95 72.3049 108.04 66.2138 126.033C65.6462 126.011 65.0748 126 64.5 126C45.9985 126 31 137.641 31 152C31 161.976 38.2396 170.64 48.8638 175Z" fill="url(#paint93_linear)"/>
<defs>
<linearGradient id="paint0_linear" x1="552" y1="208" x2="552" y2="248" gradientUnits="userSpaceOnUse">
<stop stop-color="#AB2121"/>
<stop offset="1" stop-color="#250B0B"/>
</linearGradient>
<linearGradient id="paint1_linear" x1="628" y1="208" x2="628" y2="248" gradientUnits="userSpaceOnUse">
<stop stop-color="#AB2121"/>
<stop offset="1" stop-color="#250B0B"/>
</linearGradient>
<linearGradient id="paint2_linear" x1="703" y1="208" x2="703" y2="248" gradientUnits="userSpaceOnUse">
<stop stop-color="#AB2121"/>
<stop offset="1" stop-color="#250B0B"/>
</linearGradient>
<linearGradient id="paint3_linear" x1="515" y1="268" x2="515" y2="308" gradientUnits="userSpaceOnUse">
<stop stop-color="#AB2121"/>
<stop offset="1" stop-color="#250B0B"/>
</linearGradient>
<linearGradient id="paint4_linear" x1="591" y1="268" x2="591" y2="308" gradientUnits="userSpaceOnUse">
<stop stop-color="#AB2121"/>
<stop offset="1" stop-color="#250B0B"/>
</linearGradient>
<linearGradient id="paint5_linear" x1="666" y1="268" x2="666" y2="308" gradientUnits="userSpaceOnUse">
<stop stop-color="#AB2121"/>
<stop offset="1" stop-color="#250B0B"/>
</linearGradient>
<linearGradient id="paint6_linear" x1="777" y1="208" x2="777" y2="248" gradientUnits="userSpaceOnUse">
<stop stop-color="#AB2121"/>
<stop offset="1" stop-color="#250B0B"/>
</linearGradient>
<linearGradient id="paint7_linear" x1="853" y1="208" x2="853" y2="248" gradientUnits="userSpaceOnUse">
<stop stop-color="#AB2121"/>
<stop offset="1" stop-color="#250B0B"/>
</linearGradient>
<linearGradient id="paint8_linear" x1="928" y1="208" x2="928" y2="248" gradientUnits="userSpaceOnUse">
<stop stop-color="#AB2121"/>
<stop offset="1" stop-color="#250B0B"/>
</linearGradient>
<linearGradient id="paint9_linear" x1="740" y1="268" x2="740" y2="308" gradientUnits="userSpaceOnUse">
<stop stop-color="#AB2121"/>
<stop offset="1" stop-color="#250B0B"/>
</linearGradient>
<linearGradient id="paint10_linear" x1="816" y1="268" x2="816" y2="308" gradientUnits="userSpaceOnUse">
<stop stop-color="#AB2121"/>
<stop offset="1" stop-color="#250B0B"/>
</linearGradient>
<linearGradient id="paint11_linear" x1="891" y1="268" x2="891" y2="308" gradientUnits="userSpaceOnUse">
<stop stop-color="#AB2121"/>
<stop offset="1" stop-color="#250B0B"/>
</linearGradient>
<linearGradient id="paint12_linear" x1="560" y1="328" x2="560" y2="368" gradientUnits="userSpaceOnUse">
<stop stop-color="#AB2121"/>
<stop offset="1" stop-color="#250B0B"/>
</linearGradient>
<linearGradient id="paint13_linear" x1="636" y1="328" x2="636" y2="368" gradientUnits="userSpaceOnUse">
<stop stop-color="#AB2121"/>
<stop offset="1" stop-color="#250B0B"/>
</linearGradient>
<linearGradient id="paint14_linear" x1="711" y1="328" x2="711" y2="368" gradientUnits="userSpaceOnUse">
<stop stop-color="#AB2121"/>
<stop offset="1" stop-color="#250B0B"/>
</linearGradient>
<linearGradient id="paint15_linear" x1="523" y1="388" x2="523" y2="428" gradientUnits="userSpaceOnUse">
<stop stop-color="#AB2121"/>
<stop offset="1" stop-color="#250B0B"/>
</linearGradient>
<linearGradient id="paint16_linear" x1="599" y1="388" x2="599" y2="428" gradientUnits="userSpaceOnUse">
<stop stop-color="#AB2121"/>
<stop offset="1" stop-color="#250B0B"/>
</linearGradient>
<linearGradient id="paint17_linear" x1="674" y1="388" x2="674" y2="428" gradientUnits="userSpaceOnUse">
<stop stop-color="#AB2121"/>
<stop offset="1" stop-color="#250B0B"/>
</linearGradient>
<linearGradient id="paint18_linear" x1="785" y1="328" x2="785" y2="368" gradientUnits="userSpaceOnUse">
<stop stop-color="#AB2121"/>
<stop offset="1" stop-color="#250B0B"/>
</linearGradient>
<linearGradient id="paint19_linear" x1="861" y1="328" x2="861" y2="368" gradientUnits="userSpaceOnUse">
<stop stop-color="#AB2121"/>
<stop offset="1" stop-color="#250B0B"/>
</linearGradient>
<linearGradient id="paint20_linear" x1="936" y1="328" x2="936" y2="368" gradientUnits="userSpaceOnUse">
<stop stop-color="#AB2121"/>
<stop offset="1" stop-color="#250B0B"/>
</linearGradient>
<linearGradient id="paint21_linear" x1="748" y1="388" x2="748" y2="428" gradientUnits="userSpaceOnUse">
<stop stop-color="#AB2121"/>
<stop offset="1" stop-color="#250B0B"/>
</linearGradient>
<linearGradient id="paint22_linear" x1="824" y1="388" x2="824" y2="428" gradientUnits="userSpaceOnUse">
<stop stop-color="#AB2121"/>
<stop offset="1" stop-color="#250B0B"/>
</linearGradient>
<linearGradient id="paint23_linear" x1="899" y1="388" x2="899" y2="428" gradientUnits="userSpaceOnUse">
<stop stop-color="#AB2121"/>
<stop offset="1" stop-color="#250B0B"/>
</linearGradient>
<linearGradient id="paint24_linear" x1="91" y1="208" x2="91" y2="248" gradientUnits="userSpaceOnUse">
<stop stop-color="#AB2121"/>
<stop offset="1" stop-color="#250B0B"/>
</linearGradient>
<linearGradient id="paint25_linear" x1="167" y1="208" x2="167" y2="248" gradientUnits="userSpaceOnUse">
<stop stop-color="#AB2121"/>
<stop offset="1" stop-color="#250B0B"/>
</linearGradient>
<linearGradient id="paint26_linear" x1="242" y1="208" x2="242" y2="248" gradientUnits="userSpaceOnUse">
<stop stop-color="#AB2121"/>
<stop offset="1" stop-color="#250B0B"/>
</linearGradient>
<linearGradient id="paint27_linear" x1="54" y1="268" x2="54" y2="308" gradientUnits="userSpaceOnUse">
<stop stop-color="#AB2121"/>
<stop offset="1" stop-color="#250B0B"/>
</linearGradient>
<linearGradient id="paint28_linear" x1="130" y1="268" x2="130" y2="308" gradientUnits="userSpaceOnUse">
<stop stop-color="#AB2121"/>
<stop offset="1" stop-color="#250B0B"/>
</linearGradient>
<linearGradient id="paint29_linear" x1="205" y1="268" x2="205" y2="308" gradientUnits="userSpaceOnUse">
<stop stop-color="#AB2121"/>
<stop offset="1" stop-color="#250B0B"/>
</linearGradient>
<linearGradient id="paint30_linear" x1="316" y1="208" x2="316" y2="248" gradientUnits="userSpaceOnUse">
<stop stop-color="#AB2121"/>
<stop offset="1" stop-color="#250B0B"/>
</linearGradient>
<linearGradient id="paint31_linear" x1="392" y1="208" x2="392" y2="248" gradientUnits="userSpaceOnUse">
<stop stop-color="#AB2121"/>
<stop offset="1" stop-color="#250B0B"/>
</linearGradient>
<linearGradient id="paint32_linear" x1="467" y1="208" x2="467" y2="248" gradientUnits="userSpaceOnUse">
<stop stop-color="#AB2121"/>
<stop offset="1" stop-color="#250B0B"/>
</linearGradient>
<linearGradient id="paint33_linear" x1="279" y1="268" x2="279" y2="308" gradientUnits="userSpaceOnUse">
<stop stop-color="#AB2121"/>
<stop offset="1" stop-color="#250B0B"/>
</linearGradient>
<linearGradient id="paint34_linear" x1="355" y1="268" x2="355" y2="308" gradientUnits="userSpaceOnUse">
<stop stop-color="#AB2121"/>
<stop offset="1" stop-color="#250B0B"/>
</linearGradient>
<linearGradient id="paint35_linear" x1="430" y1="268" x2="430" y2="308" gradientUnits="userSpaceOnUse">
<stop stop-color="#AB2121"/>
<stop offset="1" stop-color="#250B0B"/>
</linearGradient>
<linearGradient id="paint36_linear" x1="99" y1="328" x2="99" y2="368" gradientUnits="userSpaceOnUse">
<stop stop-color="#AB2121"/>
<stop offset="1" stop-color="#250B0B"/>
</linearGradient>
<linearGradient id="paint37_linear" x1="175" y1="328" x2="175" y2="368" gradientUnits="userSpaceOnUse">
<stop stop-color="#AB2121"/>
<stop offset="1" stop-color="#250B0B"/>
</linearGradient>
<linearGradient id="paint38_linear" x1="250" y1="328" x2="250" y2="368" gradientUnits="userSpaceOnUse">
<stop stop-color="#AB2121"/>
<stop offset="1" stop-color="#250B0B"/>
</linearGradient>
<linearGradient id="paint39_linear" x1="62" y1="388" x2="62" y2="428" gradientUnits="userSpaceOnUse">
<stop stop-color="#AB2121"/>
<stop offset="1" stop-color="#250B0B"/>
</linearGradient>
<linearGradient id="paint40_linear" x1="138" y1="388" x2="138" y2="428" gradientUnits="userSpaceOnUse">
<stop stop-color="#AB2121"/>
<stop offset="1" stop-color="#250B0B"/>
</linearGradient>
<linearGradient id="paint41_linear" x1="213" y1="388" x2="213" y2="428" gradientUnits="userSpaceOnUse">
<stop stop-color="#AB2121"/>
<stop offset="1" stop-color="#250B0B"/>
</linearGradient>
<linearGradient id="paint42_linear" x1="324" y1="328" x2="324" y2="368" gradientUnits="userSpaceOnUse">
<stop stop-color="#AB2121"/>
<stop offset="1" stop-color="#250B0B"/>
</linearGradient>
<linearGradient id="paint43_linear" x1="400" y1="328" x2="400" y2="368" gradientUnits="userSpaceOnUse">
<stop stop-color="#AB2121"/>
<stop offset="1" stop-color="#250B0B"/>
</linearGradient>
<linearGradient id="paint44_linear" x1="475" y1="328" x2="475" y2="368" gradientUnits="userSpaceOnUse">
<stop stop-color="#AB2121"/>
<stop offset="1" stop-color="#250B0B"/>
</linearGradient>
<linearGradient id="paint45_linear" x1="287" y1="388" x2="287" y2="428" gradientUnits="userSpaceOnUse">
<stop stop-color="#AB2121"/>
<stop offset="1" stop-color="#250B0B"/>
</linearGradient>
<linearGradient id="paint46_linear" x1="363" y1="388" x2="363" y2="428" gradientUnits="userSpaceOnUse">
<stop stop-color="#AB2121"/>
<stop offset="1" stop-color="#250B0B"/>
</linearGradient>
<linearGradient id="paint47_linear" x1="438" y1="388" x2="438" y2="428" gradientUnits="userSpaceOnUse">
<stop stop-color="#AB2121"/>
<stop offset="1" stop-color="#250B0B"/>
</linearGradient>
<linearGradient id="paint48_linear" x1="100" y1="448" x2="100" y2="488" gradientUnits="userSpaceOnUse">
<stop stop-color="#AB2121"/>
<stop offset="1" stop-color="#250B0B"/>
</linearGradient>
<linearGradient id="paint49_linear" x1="176" y1="448" x2="176" y2="488" gradientUnits="userSpaceOnUse">
<stop stop-color="#AB2121"/>
<stop offset="1" stop-color="#250B0B"/>
</linearGradient>
<linearGradient id="paint50_linear" x1="251" y1="448" x2="251" y2="488" gradientUnits="userSpaceOnUse">
<stop stop-color="#AB2121"/>
<stop offset="1" stop-color="#250B0B"/>
</linearGradient>
<linearGradient id="paint51_linear" x1="63" y1="508" x2="63" y2="548" gradientUnits="userSpaceOnUse">
<stop stop-color="#AB2121"/>
<stop offset="1" stop-color="#250B0B"/>
</linearGradient>
<linearGradient id="paint52_linear" x1="139" y1="508" x2="139" y2="548" gradientUnits="userSpaceOnUse">
<stop stop-color="#AB2121"/>
<stop offset="1" stop-color="#250B0B"/>
</linearGradient>
<linearGradient id="paint53_linear" x1="214" y1="508" x2="214" y2="548" gradientUnits="userSpaceOnUse">
<stop stop-color="#AB2121"/>
<stop offset="1" stop-color="#250B0B"/>
</linearGradient>
<linearGradient id="paint54_linear" x1="325" y1="448" x2="325" y2="488" gradientUnits="userSpaceOnUse">
<stop stop-color="#AB2121"/>
<stop offset="1" stop-color="#250B0B"/>
</linearGradient>
<linearGradient id="paint55_linear" x1="401" y1="448" x2="401" y2="488" gradientUnits="userSpaceOnUse">
<stop stop-color="#AB2121"/>
<stop offset="1" stop-color="#250B0B"/>
</linearGradient>
<linearGradient id="paint56_linear" x1="476" y1="448" x2="476" y2="488" gradientUnits="userSpaceOnUse">
<stop stop-color="#AB2121"/>
<stop offset="1" stop-color="#250B0B"/>
</linearGradient>
<linearGradient id="paint57_linear" x1="288" y1="508" x2="288" y2="548" gradientUnits="userSpaceOnUse">
<stop stop-color="#AB2121"/>
<stop offset="1" stop-color="#250B0B"/>
</linearGradient>
<linearGradient id="paint58_linear" x1="364" y1="508" x2="364" y2="548" gradientUnits="userSpaceOnUse">
<stop stop-color="#AB2121"/>
<stop offset="1" stop-color="#250B0B"/>
</linearGradient>
<linearGradient id="paint59_linear" x1="439" y1="508" x2="439" y2="548" gradientUnits="userSpaceOnUse">
<stop stop-color="#AB2121"/>
<stop offset="1" stop-color="#250B0B"/>
</linearGradient>
<linearGradient id="paint60_linear" x1="565" y1="448" x2="565" y2="488" gradientUnits="userSpaceOnUse">
<stop stop-color="#AB2121"/>
<stop offset="1" stop-color="#250B0B"/>
</linearGradient>
<linearGradient id="paint61_linear" x1="641" y1="448" x2="641" y2="488" gradientUnits="userSpaceOnUse">
<stop stop-color="#AB2121"/>
<stop offset="1" stop-color="#250B0B"/>
</linearGradient>
<linearGradient id="paint62_linear" x1="716" y1="448" x2="716" y2="488" gradientUnits="userSpaceOnUse">
<stop stop-color="#AB2121"/>
<stop offset="1" stop-color="#250B0B"/>
</linearGradient>
<linearGradient id="paint63_linear" x1="528" y1="508" x2="528" y2="548" gradientUnits="userSpaceOnUse">
<stop stop-color="#AB2121"/>
<stop offset="1" stop-color="#250B0B"/>
</linearGradient>
<linearGradient id="paint64_linear" x1="604" y1="508" x2="604" y2="548" gradientUnits="userSpaceOnUse">
<stop stop-color="#AB2121"/>
<stop offset="1" stop-color="#250B0B"/>
</linearGradient>
<linearGradient id="paint65_linear" x1="679" y1="508" x2="679" y2="548" gradientUnits="userSpaceOnUse">
<stop stop-color="#AB2121"/>
<stop offset="1" stop-color="#250B0B"/>
</linearGradient>
<linearGradient id="paint66_linear" x1="790" y1="448" x2="790" y2="488" gradientUnits="userSpaceOnUse">
<stop stop-color="#AB2121"/>
<stop offset="1" stop-color="#250B0B"/>
</linearGradient>
<linearGradient id="paint67_linear" x1="866" y1="448" x2="866" y2="488" gradientUnits="userSpaceOnUse">
<stop stop-color="#AB2121"/>
<stop offset="1" stop-color="#250B0B"/>
</linearGradient>
<linearGradient id="paint68_linear" x1="941" y1="448" x2="941" y2="488" gradientUnits="userSpaceOnUse">
<stop stop-color="#AB2121"/>
<stop offset="1" stop-color="#250B0B"/>
</linearGradient>
<linearGradient id="paint69_linear" x1="753" y1="508" x2="753" y2="548" gradientUnits="userSpaceOnUse">
<stop stop-color="#AB2121"/>
<stop offset="1" stop-color="#250B0B"/>
</linearGradient>
<linearGradient id="paint70_linear" x1="829" y1="508" x2="829" y2="548" gradientUnits="userSpaceOnUse">
<stop stop-color="#AB2121"/>
<stop offset="1" stop-color="#250B0B"/>
</linearGradient>
<linearGradient id="paint71_linear" x1="904" y1="508" x2="904" y2="548" gradientUnits="userSpaceOnUse">
<stop stop-color="#AB2121"/>
<stop offset="1" stop-color="#250B0B"/>
</linearGradient>
<linearGradient id="paint72_linear" x1="571" y1="568" x2="571" y2="608" gradientUnits="userSpaceOnUse">
<stop stop-color="#AB2121"/>
<stop offset="1" stop-color="#250B0B"/>
</linearGradient>
<linearGradient id="paint73_linear" x1="647" y1="568" x2="647" y2="608" gradientUnits="userSpaceOnUse">
<stop stop-color="#AB2121"/>
<stop offset="1" stop-color="#250B0B"/>
</linearGradient>
<linearGradient id="paint74_linear" x1="722" y1="568" x2="722" y2="608" gradientUnits="userSpaceOnUse">
<stop stop-color="#AB2121"/>
<stop offset="1" stop-color="#250B0B"/>
</linearGradient>
<linearGradient id="paint75_linear" x1="534" y1="628" x2="534" y2="668" gradientUnits="userSpaceOnUse">
<stop stop-color="#AB2121"/>
<stop offset="1" stop-color="#250B0B"/>
</linearGradient>
<linearGradient id="paint76_linear" x1="610" y1="628" x2="610" y2="668" gradientUnits="userSpaceOnUse">
<stop stop-color="#AB2121"/>
<stop offset="1" stop-color="#250B0B"/>
</linearGradient>
<linearGradient id="paint77_linear" x1="685" y1="628" x2="685" y2="668" gradientUnits="userSpaceOnUse">
<stop stop-color="#AB2121"/>
<stop offset="1" stop-color="#250B0B"/>
</linearGradient>
<linearGradient id="paint78_linear" x1="796" y1="568" x2="796" y2="608" gradientUnits="userSpaceOnUse">
<stop stop-color="#AB2121"/>
<stop offset="1" stop-color="#250B0B"/>
</linearGradient>
<linearGradient id="paint79_linear" x1="872" y1="568" x2="872" y2="608" gradientUnits="userSpaceOnUse">
<stop stop-color="#AB2121"/>
<stop offset="1" stop-color="#250B0B"/>
</linearGradient>
<linearGradient id="paint80_linear" x1="947" y1="568" x2="947" y2="608" gradientUnits="userSpaceOnUse">
<stop stop-color="#AB2121"/>
<stop offset="1" stop-color="#250B0B"/>
</linearGradient>
<linearGradient id="paint81_linear" x1="759" y1="628" x2="759" y2="668" gradientUnits="userSpaceOnUse">
<stop stop-color="#AB2121"/>
<stop offset="1" stop-color="#250B0B"/>
</linearGradient>
<linearGradient id="paint82_linear" x1="835" y1="628" x2="835" y2="668" gradientUnits="userSpaceOnUse">
<stop stop-color="#AB2121"/>
<stop offset="1" stop-color="#250B0B"/>
</linearGradient>
<linearGradient id="paint83_linear" x1="910" y1="628" x2="910" y2="668" gradientUnits="userSpaceOnUse">
<stop stop-color="#AB2121"/>
<stop offset="1" stop-color="#250B0B"/>
</linearGradient>
<linearGradient id="paint84_linear" x1="651" y1="688" x2="651" y2="728" gradientUnits="userSpaceOnUse">
<stop stop-color="#AB2121"/>
<stop offset="1" stop-color="#250B0B"/>
</linearGradient>
<linearGradient id="paint85_linear" x1="650" y1="808" x2="650" y2="848" gradientUnits="userSpaceOnUse">
<stop stop-color="#AB2121"/>
<stop offset="1" stop-color="#250B0B"/>
</linearGradient>
<linearGradient id="paint86_linear" x1="872" y1="681" x2="872" y2="721" gradientUnits="userSpaceOnUse">
<stop stop-color="#AB2121"/>
<stop offset="1" stop-color="#250B0B"/>
</linearGradient>
<linearGradient id="paint87_linear" x1="947" y1="681" x2="947" y2="721" gradientUnits="userSpaceOnUse">
<stop stop-color="#AB2121"/>
<stop offset="1" stop-color="#250B0B"/>
</linearGradient>
<linearGradient id="paint88_linear" x1="907" y1="738" x2="907" y2="778" gradientUnits="userSpaceOnUse">
<stop stop-color="#AB2121"/>
<stop offset="1" stop-color="#250B0B"/>
</linearGradient>
<linearGradient id="paint89_linear" x1="496" y1="692" x2="496" y2="732" gradientUnits="userSpaceOnUse">
<stop stop-color="#AB2121"/>
<stop offset="1" stop-color="#250B0B"/>
</linearGradient>
<linearGradient id="paint90_linear" x1="532" y1="773" x2="532" y2="813" gradientUnits="userSpaceOnUse">
<stop stop-color="#AB2121"/>
<stop offset="1" stop-color="#250B0B"/>
</linearGradient>
<linearGradient id="paint91_linear" x1="869" y1="800" x2="869" y2="840" gradientUnits="userSpaceOnUse">
<stop stop-color="#AB2121"/>
<stop offset="1" stop-color="#250B0B"/>
</linearGradient>
<linearGradient id="paint92_linear" x1="944" y1="800" x2="944" y2="840" gradientUnits="userSpaceOnUse">
<stop stop-color="#AB2121"/>
<stop offset="1" stop-color="#250B0B"/>
</linearGradient>
<linearGradient id="paint93_linear" x1="494.5" y1="75" x2="494.5" y2="175" gradientUnits="userSpaceOnUse">
<stop stop-color="#CC1E1E"/>
<stop offset="1" stop-color="#560404"/>
</linearGradient>
<clipPath id="clip0">
<rect width="40" height="40" fill="white" transform="matrix(-1 0 0 1 572 208)"/>
</clipPath>
<clipPath id="clip1">
<rect width="40" height="40" fill="white" transform="matrix(-1 0 0 1 648 208)"/>
</clipPath>
<clipPath id="clip2">
<rect width="40" height="40" fill="white" transform="matrix(-1 0 0 1 723 208)"/>
</clipPath>
<clipPath id="clip3">
<rect width="40" height="40" fill="white" transform="matrix(-1 0 0 1 535 268)"/>
</clipPath>
<clipPath id="clip4">
<rect width="40" height="40" fill="white" transform="matrix(-1 0 0 1 611 268)"/>
</clipPath>
<clipPath id="clip5">
<rect width="40" height="40" fill="white" transform="matrix(-1 0 0 1 686 268)"/>
</clipPath>
<clipPath id="clip6">
<rect width="40" height="40" fill="white" transform="matrix(-1 0 0 1 797 208)"/>
</clipPath>
<clipPath id="clip7">
<rect width="40" height="40" fill="white" transform="matrix(-1 0 0 1 873 208)"/>
</clipPath>
<clipPath id="clip8">
<rect width="40" height="40" fill="white" transform="matrix(-1 0 0 1 948 208)"/>
</clipPath>
<clipPath id="clip9">
<rect width="40" height="40" fill="white" transform="matrix(-1 0 0 1 760 268)"/>
</clipPath>
<clipPath id="clip10">
<rect width="40" height="40" fill="white" transform="matrix(-1 0 0 1 836 268)"/>
</clipPath>
<clipPath id="clip11">
<rect width="40" height="40" fill="white" transform="matrix(-1 0 0 1 911 268)"/>
</clipPath>
<clipPath id="clip12">
<rect width="40" height="40" fill="white" transform="matrix(-1 0 0 1 580 328)"/>
</clipPath>
<clipPath id="clip13">
<rect width="40" height="40" fill="white" transform="matrix(-1 0 0 1 656 328)"/>
</clipPath>
<clipPath id="clip14">
<rect width="40" height="40" fill="white" transform="matrix(-1 0 0 1 731 328)"/>
</clipPath>
<clipPath id="clip15">
<rect width="40" height="40" fill="white" transform="matrix(-1 0 0 1 543 388)"/>
</clipPath>
<clipPath id="clip16">
<rect width="40" height="40" fill="white" transform="matrix(-1 0 0 1 619 388)"/>
</clipPath>
<clipPath id="clip17">
<rect width="40" height="40" fill="white" transform="matrix(-1 0 0 1 694 388)"/>
</clipPath>
<clipPath id="clip18">
<rect width="40" height="40" fill="white" transform="matrix(-1 0 0 1 805 328)"/>
</clipPath>
<clipPath id="clip19">
<rect width="40" height="40" fill="white" transform="matrix(-1 0 0 1 881 328)"/>
</clipPath>
<clipPath id="clip20">
<rect width="40" height="40" fill="white" transform="matrix(-1 0 0 1 956 328)"/>
</clipPath>
<clipPath id="clip21">
<rect width="40" height="40" fill="white" transform="matrix(-1 0 0 1 768 388)"/>
</clipPath>
<clipPath id="clip22">
<rect width="40" height="40" fill="white" transform="matrix(-1 0 0 1 844 388)"/>
</clipPath>
<clipPath id="clip23">
<rect width="40" height="40" fill="white" transform="matrix(-1 0 0 1 919 388)"/>
</clipPath>
<clipPath id="clip24">
<rect width="40" height="40" fill="white" transform="matrix(-1 0 0 1 111 208)"/>
</clipPath>
<clipPath id="clip25">
<rect width="40" height="40" fill="white" transform="matrix(-1 0 0 1 187 208)"/>
</clipPath>
<clipPath id="clip26">
<rect width="40" height="40" fill="white" transform="matrix(-1 0 0 1 262 208)"/>
</clipPath>
<clipPath id="clip27">
<rect width="40" height="40" fill="white" transform="matrix(-1 0 0 1 74 268)"/>
</clipPath>
<clipPath id="clip28">
<rect width="40" height="40" fill="white" transform="matrix(-1 0 0 1 150 268)"/>
</clipPath>
<clipPath id="clip29">
<rect width="40" height="40" fill="white" transform="matrix(-1 0 0 1 225 268)"/>
</clipPath>
<clipPath id="clip30">
<rect width="40" height="40" fill="white" transform="matrix(-1 0 0 1 336 208)"/>
</clipPath>
<clipPath id="clip31">
<rect width="40" height="40" fill="white" transform="matrix(-1 0 0 1 412 208)"/>
</clipPath>
<clipPath id="clip32">
<rect width="40" height="40" fill="white" transform="matrix(-1 0 0 1 487 208)"/>
</clipPath>
<clipPath id="clip33">
<rect width="40" height="40" fill="white" transform="matrix(-1 0 0 1 299 268)"/>
</clipPath>
<clipPath id="clip34">
<rect width="40" height="40" fill="white" transform="matrix(-1 0 0 1 375 268)"/>
</clipPath>
<clipPath id="clip35">
<rect width="40" height="40" fill="white" transform="matrix(-1 0 0 1 450 268)"/>
</clipPath>
<clipPath id="clip36">
<rect width="40" height="40" fill="white" transform="matrix(-1 0 0 1 119 328)"/>
</clipPath>
<clipPath id="clip37">
<rect width="40" height="40" fill="white" transform="matrix(-1 0 0 1 195 328)"/>
</clipPath>
<clipPath id="clip38">
<rect width="40" height="40" fill="white" transform="matrix(-1 0 0 1 270 328)"/>
</clipPath>
<clipPath id="clip39">
<rect width="40" height="40" fill="white" transform="matrix(-1 0 0 1 82 388)"/>
</clipPath>
<clipPath id="clip40">
<rect width="40" height="40" fill="white" transform="matrix(-1 0 0 1 158 388)"/>
</clipPath>
<clipPath id="clip41">
<rect width="40" height="40" fill="white" transform="matrix(-1 0 0 1 233 388)"/>
</clipPath>
<clipPath id="clip42">
<rect width="40" height="40" fill="white" transform="matrix(-1 0 0 1 344 328)"/>
</clipPath>
<clipPath id="clip43">
<rect width="40" height="40" fill="white" transform="matrix(-1 0 0 1 420 328)"/>
</clipPath>
<clipPath id="clip44">
<rect width="40" height="40" fill="white" transform="matrix(-1 0 0 1 495 328)"/>
</clipPath>
<clipPath id="clip45">
<rect width="40" height="40" fill="white" transform="matrix(-1 0 0 1 307 388)"/>
</clipPath>
<clipPath id="clip46">
<rect width="40" height="40" fill="white" transform="matrix(-1 0 0 1 383 388)"/>
</clipPath>
<clipPath id="clip47">
<rect width="40" height="40" fill="white" transform="matrix(-1 0 0 1 458 388)"/>
</clipPath>
<clipPath id="clip48">
<rect width="40" height="40" fill="white" transform="matrix(-1 0 0 1 120 448)"/>
</clipPath>
<clipPath id="clip49">
<rect width="40" height="40" fill="white" transform="matrix(-1 0 0 1 196 448)"/>
</clipPath>
<clipPath id="clip50">
<rect width="40" height="40" fill="white" transform="matrix(-1 0 0 1 271 448)"/>
</clipPath>
<clipPath id="clip51">
<rect width="40" height="40" fill="white" transform="matrix(-1 0 0 1 83 508)"/>
</clipPath>
<clipPath id="clip52">
<rect width="40" height="40" fill="white" transform="matrix(-1 0 0 1 159 508)"/>
</clipPath>
<clipPath id="clip53">
<rect width="40" height="40" fill="white" transform="matrix(-1 0 0 1 234 508)"/>
</clipPath>
<clipPath id="clip54">
<rect width="40" height="40" fill="white" transform="matrix(-1 0 0 1 345 448)"/>
</clipPath>
<clipPath id="clip55">
<rect width="40" height="40" fill="white" transform="matrix(-1 0 0 1 421 448)"/>
</clipPath>
<clipPath id="clip56">
<rect width="40" height="40" fill="white" transform="matrix(-1 0 0 1 496 448)"/>
</clipPath>
<clipPath id="clip57">
<rect width="40" height="40" fill="white" transform="matrix(-1 0 0 1 308 508)"/>
</clipPath>
<clipPath id="clip58">
<rect width="40" height="40" fill="white" transform="matrix(-1 0 0 1 384 508)"/>
</clipPath>
<clipPath id="clip59">
<rect width="40" height="40" fill="white" transform="matrix(-1 0 0 1 459 508)"/>
</clipPath>
<clipPath id="clip60">
<rect width="40" height="40" fill="white" transform="matrix(-1 0 0 1 585 448)"/>
</clipPath>
<clipPath id="clip61">
<rect width="40" height="40" fill="white" transform="matrix(-1 0 0 1 661 448)"/>
</clipPath>
<clipPath id="clip62">
<rect width="40" height="40" fill="white" transform="matrix(-1 0 0 1 736 448)"/>
</clipPath>
<clipPath id="clip63">
<rect width="40" height="40" fill="white" transform="matrix(-1 0 0 1 548 508)"/>
</clipPath>
<clipPath id="clip64">
<rect width="40" height="40" fill="white" transform="matrix(-1 0 0 1 624 508)"/>
</clipPath>
<clipPath id="clip65">
<rect width="40" height="40" fill="white" transform="matrix(-1 0 0 1 699 508)"/>
</clipPath>
<clipPath id="clip66">
<rect width="40" height="40" fill="white" transform="matrix(-1 0 0 1 810 448)"/>
</clipPath>
<clipPath id="clip67">
<rect width="40" height="40" fill="white" transform="matrix(-1 0 0 1 886 448)"/>
</clipPath>
<clipPath id="clip68">
<rect width="40" height="40" fill="white" transform="matrix(-1 0 0 1 961 448)"/>
</clipPath>
<clipPath id="clip69">
<rect width="40" height="40" fill="white" transform="matrix(-1 0 0 1 773 508)"/>
</clipPath>
<clipPath id="clip70">
<rect width="40" height="40" fill="white" transform="matrix(-1 0 0 1 849 508)"/>
</clipPath>
<clipPath id="clip71">
<rect width="40" height="40" fill="white" transform="matrix(-1 0 0 1 924 508)"/>
</clipPath>
<clipPath id="clip72">
<rect width="40" height="40" fill="white" transform="matrix(-1 0 0 1 591 568)"/>
</clipPath>
<clipPath id="clip73">
<rect width="40" height="40" fill="white" transform="matrix(-1 0 0 1 667 568)"/>
</clipPath>
<clipPath id="clip74">
<rect width="40" height="40" fill="white" transform="matrix(-1 0 0 1 742 568)"/>
</clipPath>
<clipPath id="clip75">
<rect width="40" height="40" fill="white" transform="matrix(-1 0 0 1 554 628)"/>
</clipPath>
<clipPath id="clip76">
<rect width="40" height="40" fill="white" transform="matrix(-1 0 0 1 630 628)"/>
</clipPath>
<clipPath id="clip77">
<rect width="40" height="40" fill="white" transform="matrix(-1 0 0 1 705 628)"/>
</clipPath>
<clipPath id="clip78">
<rect width="40" height="40" fill="white" transform="matrix(-1 0 0 1 816 568)"/>
</clipPath>
<clipPath id="clip79">
<rect width="40" height="40" fill="white" transform="matrix(-1 0 0 1 892 568)"/>
</clipPath>
<clipPath id="clip80">
<rect width="40" height="40" fill="white" transform="matrix(-1 0 0 1 967 568)"/>
</clipPath>
<clipPath id="clip81">
<rect width="40" height="40" fill="white" transform="matrix(-1 0 0 1 779 628)"/>
</clipPath>
<clipPath id="clip82">
<rect width="40" height="40" fill="white" transform="matrix(-1 0 0 1 855 628)"/>
</clipPath>
<clipPath id="clip83">
<rect width="40" height="40" fill="white" transform="matrix(-1 0 0 1 930 628)"/>
</clipPath>
<clipPath id="clip84">
<rect width="40" height="40" fill="white" transform="matrix(-1 0 0 1 671 688)"/>
</clipPath>
<clipPath id="clip85">
<rect width="40" height="40" fill="white" transform="matrix(-1 0 0 1 670 808)"/>
</clipPath>
<clipPath id="clip86">
<rect width="40" height="40" fill="white" transform="matrix(-1 0 0 1 892 681)"/>
</clipPath>
<clipPath id="clip87">
<rect width="40" height="40" fill="white" transform="matrix(-1 0 0 1 967 681)"/>
</clipPath>
<clipPath id="clip88">
<rect width="40" height="40" fill="white" transform="matrix(-1 0 0 1 927 738)"/>
</clipPath>
<clipPath id="clip89">
<rect width="40" height="40" fill="white" transform="matrix(-1 0 0 1 516 692)"/>
</clipPath>
<clipPath id="clip90">
<rect width="40" height="40" fill="white" transform="matrix(-1 0 0 1 552 773)"/>
</clipPath>
<clipPath id="clip91">
<rect width="40" height="40" fill="white" transform="matrix(-1 0 0 1 889 800)"/>
</clipPath>
<clipPath id="clip92">
<rect width="40" height="40" fill="white" transform="matrix(-1 0 0 1 964 800)"/>
</clipPath>
</defs>
</svg>
