<svg width="1440" height="1024" viewBox="0 0 1440 1024" fill="none" xmlns="http://www.w3.org/2000/svg">
<rect width="1440" height="1024" fill="#AAD5FD"/>
<rect y="854" width="1440" height="170" fill="#001A74"/>
<circle cx="813" cy="760" r="94" fill="white"/>
<circle cx="813" cy="617" r="60" fill="white"/>
<ellipse cx="794" cy="597.5" rx="10" ry="10.5" fill="#010000"/>
<ellipse cx="812" cy="719.5" rx="8" ry="8.5" fill="#4F0A0A"/>
<ellipse cx="812" cy="749.5" rx="8" ry="8.5" fill="#4F0A0A"/>
<ellipse cx="812" cy="779.5" rx="8" ry="8.5" fill="#4F0A0A"/>
<ellipse cx="834" cy="597.5" rx="10" ry="10.5" fill="#010000"/>
<rect x="868.068" y="701.385" width="98" height="14" rx="5" transform="rotate(-46.0357 868.068 701.385)" fill="#9D7305"/>
<rect x="931.242" y="641.439" width="37.8589" height="8.39921" rx="4.19961" transform="rotate(-94.9126 931.242 641.439)" fill="#9D7305"/>
<rect x="933.775" y="638.881" width="37.8589" height="8.39921" rx="4.19961" transform="rotate(-15.3927 933.775 638.881)" fill="#9D7305"/>
<rect x="651.242" y="681.439" width="37.8589" height="8.39921" rx="4.19961" transform="rotate(-94.9126 651.242 681.439)" fill="#9D7305"/>
<rect x="657.738" y="685.395" width="37.8589" height="8.39921" rx="4.19961" transform="rotate(-175.421 657.738 685.395)" fill="#9D7305"/>
<rect x="752.647" y="723.804" width="111.652" height="14" rx="5" transform="rotate(-159.255 752.647 723.804)" fill="#9D7305"/>
<path d="M888.497 620.104L817.243 640.448L814.436 617.66L888.497 620.104Z" fill="#FF9D29"/>
<path d="M373.56 132.168C375.7 126.588 376.9 120.487 376.9 114.125C376.9 86.4863 354.459 64.0625 326.8 64.0625C316.519 64.0625 306.917 67.1914 298.984 72.5105C284.528 47.4793 257.547 30.6875 226.6 30.6875C180.466 30.6875 143.1 68.0258 143.1 114.125C143.1 115.533 143.152 116.941 143.204 118.349C113.979 128.622 93 156.47 93 189.219C93 230.677 126.661 264.312 168.15 264.312H360.2C397.097 264.312 427 234.431 427 197.562C427 165.283 404.038 138.322 373.56 132.168Z" fill="url(#paint0_linear)"/>
<g clip-path="url(#clip0)">
<path d="M92.2071 639.075L88.2696 636.739L91.6948 635.795C92.5386 635.561 93.0408 634.667 92.8098 633.804L92.398 632.23C92.177 631.366 91.3031 630.848 90.4593 631.082L82.4538 633.286L75.2417 629L82.4638 624.714L90.4694 626.918C91.3131 627.152 92.177 626.634 92.408 625.77L92.8198 624.196C93.0408 623.333 92.5486 622.439 91.7049 622.205L88.2796 621.261L92.2171 618.925C92.9705 618.478 93.2317 617.483 92.7997 616.701L92.0062 615.289C91.5743 614.507 90.6 614.243 89.8466 614.69L85.9091 617.026L86.8232 613.502C87.0442 612.638 86.552 611.745 85.7082 611.511L84.1814 611.095C83.3377 610.861 82.4738 611.379 82.2428 612.242L80.1033 620.469L72.8812 624.755V616.173L78.7372 610.15C79.35 609.52 79.35 608.484 78.7372 607.855L77.6223 606.707C77.0096 606.077 76.0051 606.077 75.3924 606.707L72.8913 609.287V604.625C72.8913 603.731 72.1881 603 71.3142 603H69.7372C68.8634 603 68.1602 603.731 68.1602 604.625V609.307L65.6591 606.727C65.0464 606.098 64.0419 606.098 63.4292 606.727L62.2741 607.875C61.6613 608.505 61.6613 609.541 62.2741 610.17L68.1301 616.193V624.775L60.908 620.489L58.7685 612.262C58.5475 611.399 57.6736 610.881 56.8299 611.115L55.3031 611.531C54.4593 611.765 53.9571 612.659 54.1881 613.522L55.1022 617.046L51.1647 614.71C50.4113 614.263 49.4471 614.527 49.0051 615.309L48.2116 616.721C47.7796 617.503 48.0308 618.488 48.7942 618.945L52.7317 621.281L49.3064 622.205C48.4627 622.439 47.9604 623.333 48.1915 624.196L48.6033 625.77C48.8243 626.634 49.6982 627.152 50.5419 626.918L58.5475 624.714L65.7696 629L58.5475 633.286L50.5419 631.082C49.6982 630.848 48.8343 631.366 48.6033 632.23L48.1915 633.804C47.9705 634.667 48.4627 635.561 49.3064 635.795L52.7317 636.739L48.7942 639.075C48.0408 639.522 47.7796 640.517 48.2116 641.299L49.0051 642.711C49.437 643.493 50.4113 643.757 51.1647 643.31L55.1022 640.974L54.1881 644.498C53.9671 645.362 54.4593 646.255 55.3031 646.489L56.8299 646.905C57.6736 647.139 58.5375 646.621 58.7685 645.758L60.908 637.531L68.1301 633.245V641.827L62.2741 647.85C61.6613 648.48 61.6613 649.516 62.2741 650.145L63.389 651.293C64.0017 651.923 65.0062 651.923 65.6189 651.293L68.12 648.713V653.375C68.12 654.269 68.8232 655 69.6971 655H71.2741C72.148 655 72.8511 654.269 72.8511 653.375V648.693L75.3522 651.273C75.9649 651.902 76.9694 651.902 77.5821 651.273L78.6971 650.125C79.3098 649.495 79.3098 648.459 78.6971 647.83L72.841 641.807V633.225L80.0631 637.511L82.2026 645.737C82.4236 646.601 83.2975 647.119 84.1413 646.885L85.668 646.469C86.5118 646.235 87.014 645.341 86.783 644.478L85.8689 640.954L89.8064 643.29C90.5598 643.737 91.5241 643.473 91.966 642.691L92.7596 641.279C93.2216 640.517 92.9705 639.522 92.2071 639.075V639.075Z" fill="url(#paint1_linear)"/>
</g>
<g clip-path="url(#clip1)">
<path d="M143.101 524.238L138.639 521.632L142.521 520.579C143.477 520.318 144.046 519.321 143.784 518.358L143.318 516.602C143.067 515.639 142.077 515.062 141.12 515.322L132.047 517.78L123.874 513L132.059 508.22L141.132 510.678C142.088 510.938 143.067 510.361 143.329 509.398L143.796 507.642C144.046 506.679 143.488 505.682 142.532 505.421L138.65 504.368L143.113 501.763C143.966 501.264 144.262 500.154 143.773 499.282L142.874 497.707C142.384 496.835 141.28 496.54 140.426 497.039L135.964 499.644L136.999 495.713C137.25 494.75 136.692 493.754 135.736 493.493L134.005 493.029C133.049 492.768 132.07 493.346 131.808 494.309L129.384 503.484L121.199 508.265V498.693L127.835 491.975C128.53 491.273 128.53 490.117 127.835 489.415L126.572 488.135C125.877 487.432 124.739 487.432 124.045 488.135L121.21 491.012V485.812C121.21 484.816 120.413 484 119.423 484H117.635C116.645 484 115.848 484.816 115.848 485.812V491.035L113.014 488.157C112.319 487.455 111.181 487.455 110.486 488.157L109.177 489.438C108.483 490.14 108.483 491.295 109.177 491.998L115.814 498.715V508.287L107.629 503.507L105.204 494.331C104.954 493.368 103.963 492.791 103.007 493.051L101.277 493.516C100.32 493.776 99.7513 494.773 100.013 495.736L101.049 499.667L96.5865 497.061C95.7327 496.563 94.6399 496.857 94.139 497.73L93.2396 499.304C92.7501 500.177 93.0347 501.275 93.8999 501.785L98.3624 504.391L94.4805 505.421C93.5242 505.682 92.955 506.679 93.2169 507.642L93.6836 509.398C93.9341 510.361 94.9245 510.938 95.8807 510.678L104.954 508.22L113.139 513L104.954 517.78L95.8807 515.322C94.9245 515.062 93.9454 515.639 93.6836 516.602L93.2169 518.358C92.9664 519.321 93.5242 520.318 94.4805 520.579L98.3624 521.632L93.8999 524.238C93.0461 524.736 92.7501 525.846 93.2396 526.718L94.139 528.293C94.6285 529.165 95.7327 529.46 96.5865 528.961L101.049 526.356L100.013 530.287C99.7626 531.25 100.32 532.246 101.277 532.507L103.007 532.971C103.963 533.232 104.942 532.654 105.204 531.691L107.629 522.516L115.814 517.735V527.307L109.177 534.025C108.483 534.727 108.483 535.883 109.177 536.585L110.441 537.865C111.135 538.568 112.274 538.568 112.968 537.865L115.803 534.988V540.188C115.803 541.184 116.599 542 117.59 542H119.377C120.368 542 121.164 541.184 121.164 540.188V534.965L123.999 537.843C124.693 538.545 125.832 538.545 126.526 537.843L127.79 536.562C128.484 535.86 128.484 534.705 127.79 534.002L121.153 527.285V517.713L129.338 522.493L131.763 531.669C132.013 532.632 133.004 533.209 133.96 532.949L135.69 532.484C136.647 532.224 137.216 531.227 136.954 530.264L135.918 526.333L140.38 528.939C141.234 529.437 142.327 529.143 142.828 528.27L143.727 526.696C144.251 525.846 143.966 524.736 143.101 524.238V524.238Z" fill="url(#paint2_linear)"/>
</g>
<g clip-path="url(#clip2)">
<path d="M265.101 537.238L260.639 534.632L264.521 533.579C265.477 533.318 266.046 532.321 265.784 531.358L265.318 529.602C265.067 528.639 264.077 528.062 263.12 528.322L254.047 530.78L245.874 526L254.059 521.22L263.132 523.678C264.088 523.938 265.067 523.361 265.329 522.398L265.796 520.642C266.046 519.679 265.488 518.682 264.532 518.421L260.65 517.368L265.113 514.763C265.966 514.264 266.262 513.154 265.773 512.282L264.874 510.707C264.384 509.835 263.28 509.54 262.426 510.039L257.964 512.644L258.999 508.713C259.25 507.75 258.692 506.754 257.736 506.493L256.005 506.029C255.049 505.768 254.07 506.346 253.808 507.309L251.384 516.484L243.199 521.265V511.693L249.835 504.975C250.53 504.273 250.53 503.117 249.835 502.415L248.572 501.135C247.877 500.432 246.739 500.432 246.045 501.135L243.21 504.012V498.812C243.21 497.816 242.413 497 241.423 497H239.635C238.645 497 237.848 497.816 237.848 498.812V504.035L235.014 501.157C234.319 500.455 233.181 500.455 232.486 501.157L231.177 502.438C230.483 503.14 230.483 504.295 231.177 504.998L237.814 511.715V521.287L229.629 516.507L227.204 507.331C226.954 506.368 225.963 505.791 225.007 506.051L223.277 506.516C222.32 506.776 221.751 507.773 222.013 508.736L223.049 512.667L218.587 510.061C217.733 509.563 216.64 509.857 216.139 510.73L215.24 512.304C214.75 513.177 215.035 514.275 215.9 514.785L220.362 517.391L216.48 518.421C215.524 518.682 214.955 519.679 215.217 520.642L215.684 522.398C215.934 523.361 216.924 523.938 217.881 523.678L226.954 521.22L235.139 526L226.954 530.78L217.881 528.322C216.924 528.062 215.945 528.639 215.684 529.602L215.217 531.358C214.966 532.321 215.524 533.318 216.48 533.579L220.362 534.632L215.9 537.238C215.046 537.736 214.75 538.846 215.24 539.718L216.139 541.293C216.628 542.165 217.733 542.46 218.587 541.961L223.049 539.356L222.013 543.287C221.763 544.25 222.32 545.246 223.277 545.507L225.007 545.971C225.963 546.232 226.942 545.654 227.204 544.691L229.629 535.516L237.814 530.735V540.307L231.177 547.025C230.483 547.727 230.483 548.883 231.177 549.585L232.441 550.865C233.135 551.568 234.274 551.568 234.968 550.865L237.803 547.988V553.188C237.803 554.184 238.599 555 239.59 555H241.377C242.368 555 243.164 554.184 243.164 553.188V547.965L245.999 550.843C246.693 551.545 247.832 551.545 248.526 550.843L249.79 549.562C250.484 548.86 250.484 547.705 249.79 547.002L243.153 540.285V530.713L251.338 535.493L253.763 544.669C254.013 545.632 255.004 546.209 255.96 545.949L257.69 545.484C258.647 545.224 259.216 544.227 258.954 543.264L257.918 539.333L262.38 541.939C263.234 542.437 264.327 542.143 264.828 541.27L265.727 539.696C266.251 538.846 265.966 537.736 265.101 537.238V537.238Z" fill="url(#paint3_linear)"/>
</g>
<g clip-path="url(#clip3)">
<path d="M387.101 495.238L382.639 492.632L386.521 491.579C387.477 491.318 388.046 490.321 387.784 489.358L387.318 487.602C387.067 486.639 386.077 486.062 385.12 486.322L376.047 488.78L367.874 484L376.059 479.22L385.132 481.678C386.088 481.938 387.067 481.361 387.329 480.398L387.796 478.642C388.046 477.679 387.488 476.682 386.532 476.421L382.65 475.368L387.113 472.763C387.966 472.264 388.262 471.154 387.773 470.282L386.874 468.707C386.384 467.835 385.28 467.54 384.426 468.039L379.964 470.644L380.999 466.713C381.25 465.75 380.692 464.754 379.736 464.493L378.005 464.029C377.049 463.768 376.07 464.346 375.808 465.309L373.384 474.484L365.199 479.265V469.693L371.835 462.975C372.53 462.273 372.53 461.117 371.835 460.415L370.572 459.135C369.877 458.432 368.739 458.432 368.045 459.135L365.21 462.012V456.812C365.21 455.816 364.413 455 363.423 455H361.635C360.645 455 359.848 455.816 359.848 456.812V462.035L357.014 459.157C356.319 458.455 355.181 458.455 354.486 459.157L353.177 460.438C352.483 461.14 352.483 462.295 353.177 462.998L359.814 469.715V479.287L351.629 474.507L349.204 465.331C348.954 464.368 347.963 463.791 347.007 464.051L345.277 464.516C344.32 464.776 343.751 465.773 344.013 466.736L345.049 470.667L340.587 468.061C339.733 467.563 338.64 467.857 338.139 468.73L337.24 470.304C336.75 471.177 337.035 472.275 337.9 472.785L342.362 475.391L338.48 476.421C337.524 476.682 336.955 477.679 337.217 478.642L337.684 480.398C337.934 481.361 338.924 481.938 339.881 481.678L348.954 479.22L357.139 484L348.954 488.78L339.881 486.322C338.924 486.062 337.945 486.639 337.684 487.602L337.217 489.358C336.966 490.321 337.524 491.318 338.48 491.579L342.362 492.632L337.9 495.238C337.046 495.736 336.75 496.846 337.24 497.718L338.139 499.293C338.628 500.165 339.733 500.46 340.587 499.961L345.049 497.356L344.013 501.287C343.763 502.25 344.32 503.246 345.277 503.507L347.007 503.971C347.963 504.232 348.942 503.654 349.204 502.691L351.629 493.516L359.814 488.735V498.307L353.177 505.025C352.483 505.727 352.483 506.883 353.177 507.585L354.441 508.865C355.135 509.568 356.274 509.568 356.968 508.865L359.803 505.988V511.188C359.803 512.184 360.599 513 361.59 513H363.377C364.368 513 365.164 512.184 365.164 511.188V505.965L367.999 508.843C368.693 509.545 369.832 509.545 370.526 508.843L371.79 507.562C372.484 506.86 372.484 505.705 371.79 505.002L365.153 498.285V488.713L373.338 493.493L375.763 502.669C376.013 503.632 377.004 504.209 377.96 503.949L379.69 503.484C380.647 503.224 381.216 502.227 380.954 501.264L379.918 497.333L384.38 499.939C385.234 500.437 386.327 500.143 386.828 499.27L387.727 497.696C388.251 496.846 387.966 495.736 387.101 495.238V495.238Z" fill="url(#paint4_linear)"/>
</g>
<g clip-path="url(#clip4)">
<path d="M258.413 369.456L250.538 364.829L257.389 362.958C259.076 362.496 260.081 360.725 259.619 359.015L258.795 355.897C258.353 354.187 256.605 353.161 254.918 353.624L238.907 357.989L224.482 349.5L238.927 341.011L254.938 345.376C256.625 345.839 258.353 344.813 258.815 343.103L259.639 339.985C260.081 338.275 259.096 336.504 257.409 336.042L250.558 334.171L258.433 329.544C259.94 328.659 260.462 326.687 259.599 325.138L258.011 322.342C257.148 320.793 255.199 320.27 253.692 321.155L245.817 325.782L247.645 318.801C248.087 317.091 247.103 315.321 245.415 314.858L242.362 314.033C240.674 313.571 238.947 314.597 238.485 316.307L234.206 332.602L219.761 341.091V324.092L231.473 312.163C232.699 310.915 232.699 308.863 231.473 307.616L229.244 305.343C228.018 304.096 226.009 304.096 224.784 305.343L219.782 310.453V301.219C219.782 299.448 218.375 298 216.628 298H213.473C211.726 298 210.319 299.448 210.319 301.219V310.493L205.317 305.383C204.092 304.136 202.083 304.136 200.857 305.383L198.547 307.656C197.322 308.904 197.322 310.955 198.547 312.203L210.259 324.132V341.131L195.815 332.642L191.536 316.347C191.094 314.637 189.346 313.611 187.659 314.074L184.605 314.898C182.918 315.361 181.913 317.131 182.375 318.841L184.203 325.822L176.328 321.195C174.822 320.31 172.893 320.833 172.009 322.382L170.422 325.178C169.558 326.727 170.061 328.679 171.587 329.584L179.462 334.211L172.612 336.042C170.924 336.504 169.92 338.275 170.382 339.985L171.206 343.103C171.648 344.813 173.395 345.839 175.083 345.376L191.094 341.011L205.538 349.5L191.094 357.989L175.083 353.624C173.395 353.161 171.668 354.187 171.206 355.897L170.382 359.015C169.94 360.725 170.924 362.496 172.612 362.958L179.462 364.829L171.587 369.456C170.081 370.341 169.558 372.313 170.422 373.862L172.009 376.658C172.873 378.207 174.822 378.73 176.328 377.845L184.203 373.218L182.375 380.199C181.933 381.909 182.918 383.679 184.605 384.142L187.659 384.967C189.346 385.429 191.074 384.403 191.536 382.693L195.815 366.398L210.259 357.909V374.908L198.547 386.838C197.322 388.085 197.322 390.137 198.547 391.384L200.777 393.657C202.003 394.904 204.011 394.904 205.237 393.657L210.239 388.547V397.781C210.239 399.552 211.645 401 213.393 401H216.547C218.295 401 219.701 399.552 219.701 397.781V388.507L224.703 393.617C225.929 394.864 227.938 394.864 229.163 393.617L231.393 391.344C232.619 390.096 232.619 388.045 231.393 386.797L219.681 374.868V357.869L234.125 366.358L238.404 382.653C238.846 384.363 240.594 385.389 242.282 384.926L245.335 384.102C247.023 383.639 248.027 381.869 247.565 380.159L245.737 373.178L253.612 377.805C255.119 378.69 257.047 378.167 257.931 376.618L259.518 373.822C260.442 372.313 259.94 370.341 258.413 369.456V369.456Z" fill="url(#paint5_linear)"/>
</g>
<g clip-path="url(#clip5)">
<path d="M364.995 364.094L360.008 361.174L364.347 359.993C365.415 359.701 366.051 358.584 365.759 357.505L365.237 355.537C364.957 354.458 363.85 353.811 362.782 354.103L352.641 356.857L343.506 351.5L352.654 346.143L362.794 348.897C363.863 349.189 364.957 348.542 365.25 347.463L365.772 345.495C366.051 344.416 365.428 343.299 364.359 343.007L360.021 341.826L365.008 338.906C365.962 338.348 366.293 337.104 365.746 336.126L364.741 334.361C364.194 333.384 362.96 333.054 362.005 333.612L357.018 336.532L358.176 332.127C358.456 331.048 357.832 329.931 356.763 329.639L354.83 329.118C353.761 328.826 352.667 329.474 352.374 330.553L349.664 340.836L340.516 346.193V335.466L347.934 327.938C348.71 327.15 348.71 325.855 347.934 325.068L346.521 323.634C345.745 322.847 344.473 322.847 343.697 323.634L340.529 326.858V321.031C340.529 319.914 339.638 319 338.531 319H336.534C335.427 319 334.536 319.914 334.536 321.031V326.884L331.368 323.659C330.592 322.872 329.32 322.872 328.543 323.659L327.08 325.094C326.304 325.881 326.304 327.176 327.08 327.963L334.498 335.491V346.219L325.35 340.861L322.64 330.578C322.36 329.499 321.253 328.852 320.184 329.144L318.25 329.664C317.182 329.956 316.545 331.073 316.838 332.152L317.996 336.558L313.008 333.638C312.054 333.079 310.833 333.409 310.273 334.387L309.268 336.151C308.721 337.129 309.039 338.36 310.006 338.932L314.993 341.852L310.655 343.007C309.586 343.299 308.95 344.416 309.242 345.495L309.764 347.463C310.044 348.542 311.151 349.189 312.22 348.897L322.36 346.143L331.508 351.5L322.36 356.857L312.22 354.103C311.151 353.811 310.057 354.458 309.764 355.537L309.242 357.505C308.962 358.584 309.586 359.701 310.655 359.993L314.993 361.174L310.006 364.094C309.051 364.652 308.721 365.896 309.268 366.874L310.273 368.639C310.82 369.616 312.054 369.946 313.008 369.388L317.996 366.468L316.838 370.873C316.558 371.952 317.182 373.069 318.25 373.361L320.184 373.882C321.253 374.174 322.347 373.526 322.64 372.447L325.35 362.164L334.498 356.807V367.534L327.08 375.063C326.304 375.85 326.304 377.145 327.08 377.932L328.493 379.366C329.269 380.153 330.541 380.153 331.317 379.366L334.485 376.142V381.969C334.485 383.086 335.376 384 336.483 384H338.48C339.587 384 340.478 383.086 340.478 381.969V376.116L343.646 379.341C344.422 380.128 345.694 380.128 346.47 379.341L347.883 377.906C348.659 377.119 348.659 375.824 347.883 375.037L340.465 367.509V356.781L349.613 362.139L352.323 372.422C352.603 373.501 353.71 374.148 354.779 373.856L356.713 373.336C357.781 373.044 358.418 371.927 358.125 370.848L356.967 366.442L361.955 369.362C362.909 369.921 364.13 369.591 364.69 368.613L365.695 366.849C366.28 365.896 365.962 364.652 364.995 364.094V364.094Z" fill="url(#paint6_linear)"/>
</g>
<g clip-path="url(#clip6)">
<path d="M342.401 662.056L339.426 660.304L342.014 659.596C342.652 659.421 343.031 658.75 342.857 658.103L342.545 656.922C342.378 656.275 341.718 655.886 341.081 656.062L335.032 657.714L329.583 654.5L335.04 651.286L341.088 652.938C341.726 653.114 342.378 652.725 342.553 652.078L342.864 650.897C343.031 650.25 342.659 649.579 342.022 649.404L339.434 648.696L342.409 646.944C342.978 646.609 343.175 645.862 342.849 645.276L342.249 644.217C341.923 643.63 341.187 643.432 340.618 643.767L337.643 645.519L338.333 642.876C338.5 642.229 338.128 641.558 337.491 641.383L336.337 641.071C335.7 640.896 335.047 641.284 334.873 641.932L333.256 648.102L327.799 651.316V644.879L332.224 640.363C332.687 639.89 332.687 639.113 332.224 638.641L331.382 637.78C330.919 637.308 330.16 637.308 329.697 637.78L327.807 639.715V636.219C327.807 635.548 327.276 635 326.615 635H325.424C324.764 635 324.232 635.548 324.232 636.219V639.73L322.343 637.796C321.88 637.323 321.121 637.323 320.658 637.796L319.785 638.656C319.322 639.129 319.322 639.905 319.785 640.378L324.21 644.895V651.331L318.753 648.117L317.136 641.947C316.969 641.299 316.309 640.911 315.672 641.086L314.518 641.398C313.881 641.574 313.501 642.244 313.676 642.891L314.366 645.535L311.391 643.783C310.822 643.447 310.094 643.646 309.76 644.232L309.16 645.291C308.834 645.877 309.023 646.616 309.6 646.959L312.575 648.711L309.987 649.404C309.35 649.579 308.97 650.25 309.145 650.897L309.456 652.078C309.623 652.725 310.283 653.114 310.921 652.938L316.969 651.286L322.426 654.5L316.969 657.714L310.921 656.062C310.283 655.886 309.631 656.275 309.456 656.922L309.145 658.103C308.978 658.75 309.35 659.421 309.987 659.596L312.575 660.304L309.6 662.056C309.031 662.391 308.834 663.138 309.16 663.724L309.76 664.783C310.086 665.37 310.822 665.568 311.391 665.233L314.366 663.481L313.676 666.124C313.509 666.771 313.881 667.442 314.518 667.617L315.672 667.929C316.309 668.104 316.962 667.716 317.136 667.068L318.753 660.898L324.21 657.684V664.121L319.785 668.638C319.322 669.11 319.322 669.887 319.785 670.359L320.628 671.22C321.09 671.692 321.849 671.692 322.312 671.22L324.202 669.285V672.781C324.202 673.452 324.733 674 325.394 674H326.585C327.245 674 327.777 673.452 327.777 672.781V669.27L329.666 671.204C330.129 671.677 330.888 671.677 331.351 671.204L332.194 670.344C332.657 669.871 332.657 669.095 332.194 668.622L327.769 664.105V657.669L333.226 660.883L334.842 667.053C335.009 667.701 335.669 668.089 336.307 667.914L337.461 667.602C338.098 667.426 338.478 666.756 338.303 666.109L337.612 663.465L340.587 665.217C341.157 665.553 341.885 665.354 342.219 664.768L342.819 663.709C343.168 663.138 342.978 662.391 342.401 662.056V662.056Z" fill="url(#paint7_linear)"/>
</g>
<g clip-path="url(#clip7)">
<path d="M203.401 712.056L200.426 710.304L203.014 709.596C203.652 709.421 204.031 708.75 203.857 708.103L203.545 706.922C203.378 706.275 202.718 705.886 202.081 706.062L196.032 707.714L190.583 704.5L196.04 701.286L202.088 702.938C202.726 703.114 203.378 702.725 203.553 702.078L203.864 700.897C204.031 700.25 203.659 699.579 203.022 699.404L200.434 698.696L203.409 696.944C203.978 696.609 204.175 695.862 203.849 695.276L203.249 694.217C202.923 693.63 202.187 693.432 201.618 693.767L198.643 695.519L199.333 692.876C199.5 692.229 199.128 691.558 198.491 691.383L197.337 691.071C196.7 690.896 196.047 691.284 195.873 691.932L194.256 698.102L188.799 701.316V694.879L193.224 690.363C193.687 689.89 193.687 689.113 193.224 688.641L192.382 687.78C191.919 687.308 191.16 687.308 190.697 687.78L188.807 689.715V686.219C188.807 685.548 188.276 685 187.615 685H186.424C185.764 685 185.232 685.548 185.232 686.219V689.73L183.343 687.796C182.88 687.323 182.121 687.323 181.658 687.796L180.785 688.656C180.322 689.129 180.322 689.905 180.785 690.378L185.21 694.895V701.331L179.753 698.117L178.136 691.947C177.969 691.299 177.309 690.911 176.672 691.086L175.518 691.398C174.881 691.574 174.501 692.244 174.676 692.891L175.366 695.535L172.391 693.783C171.822 693.447 171.094 693.646 170.76 694.232L170.16 695.291C169.834 695.877 170.023 696.616 170.6 696.959L173.575 698.711L170.987 699.404C170.35 699.579 169.97 700.25 170.145 700.897L170.456 702.078C170.623 702.725 171.283 703.114 171.921 702.938L177.969 701.286L183.426 704.5L177.969 707.714L171.921 706.062C171.283 705.886 170.631 706.275 170.456 706.922L170.145 708.103C169.978 708.75 170.35 709.421 170.987 709.596L173.575 710.304L170.6 712.056C170.031 712.391 169.834 713.138 170.16 713.724L170.76 714.783C171.086 715.37 171.822 715.568 172.391 715.233L175.366 713.481L174.676 716.124C174.509 716.771 174.881 717.442 175.518 717.617L176.672 717.929C177.309 718.104 177.962 717.716 178.136 717.068L179.753 710.898L185.21 707.684V714.121L180.785 718.638C180.322 719.11 180.322 719.887 180.785 720.359L181.628 721.22C182.09 721.692 182.849 721.692 183.312 721.22L185.202 719.285V722.781C185.202 723.452 185.733 724 186.394 724H187.585C188.245 724 188.777 723.452 188.777 722.781V719.27L190.666 721.204C191.129 721.677 191.888 721.677 192.351 721.204L193.194 720.344C193.657 719.871 193.657 719.095 193.194 718.622L188.769 714.105V707.669L194.226 710.883L195.842 717.053C196.009 717.701 196.669 718.089 197.307 717.914L198.461 717.602C199.098 717.426 199.478 716.756 199.303 716.109L198.612 713.465L201.587 715.217C202.157 715.553 202.885 715.354 203.219 714.768L203.819 713.709C204.168 713.138 203.978 712.391 203.401 712.056V712.056Z" fill="url(#paint8_linear)"/>
</g>
<g clip-path="url(#clip8)">
<path d="M460.401 684.056L457.426 682.304L460.014 681.596C460.652 681.421 461.031 680.75 460.857 680.103L460.545 678.922C460.378 678.275 459.718 677.886 459.081 678.062L453.032 679.714L447.583 676.5L453.04 673.286L459.088 674.938C459.726 675.114 460.378 674.725 460.553 674.078L460.864 672.897C461.031 672.25 460.659 671.579 460.022 671.404L457.434 670.696L460.409 668.944C460.978 668.609 461.175 667.862 460.849 667.276L460.249 666.217C459.923 665.63 459.187 665.432 458.618 665.767L455.643 667.519L456.333 664.876C456.5 664.229 456.128 663.558 455.491 663.383L454.337 663.071C453.7 662.896 453.047 663.284 452.873 663.932L451.256 670.102L445.799 673.316V666.879L450.224 662.363C450.687 661.89 450.687 661.113 450.224 660.641L449.382 659.78C448.919 659.308 448.16 659.308 447.697 659.78L445.807 661.715V658.219C445.807 657.548 445.276 657 444.615 657H443.424C442.764 657 442.232 657.548 442.232 658.219V661.73L440.343 659.796C439.88 659.323 439.121 659.323 438.658 659.796L437.785 660.656C437.322 661.129 437.322 661.905 437.785 662.378L442.21 666.895V673.331L436.753 670.117L435.136 663.947C434.969 663.299 434.309 662.911 433.672 663.086L432.518 663.398C431.881 663.574 431.501 664.244 431.676 664.891L432.366 667.535L429.391 665.783C428.822 665.447 428.094 665.646 427.76 666.232L427.16 667.291C426.834 667.877 427.023 668.616 427.6 668.959L430.575 670.711L427.987 671.404C427.35 671.579 426.97 672.25 427.145 672.897L427.456 674.078C427.623 674.725 428.283 675.114 428.921 674.938L434.969 673.286L440.426 676.5L434.969 679.714L428.921 678.062C428.283 677.886 427.631 678.275 427.456 678.922L427.145 680.103C426.978 680.75 427.35 681.421 427.987 681.596L430.575 682.304L427.6 684.056C427.031 684.391 426.834 685.138 427.16 685.724L427.76 686.783C428.086 687.37 428.822 687.568 429.391 687.233L432.366 685.481L431.676 688.124C431.509 688.771 431.881 689.442 432.518 689.617L433.672 689.929C434.309 690.104 434.962 689.716 435.136 689.068L436.753 682.898L442.21 679.684V686.121L437.785 690.638C437.322 691.11 437.322 691.887 437.785 692.359L438.628 693.22C439.09 693.692 439.849 693.692 440.312 693.22L442.202 691.285V694.781C442.202 695.452 442.733 696 443.394 696H444.585C445.245 696 445.777 695.452 445.777 694.781V691.27L447.666 693.204C448.129 693.677 448.888 693.677 449.351 693.204L450.194 692.344C450.657 691.871 450.657 691.095 450.194 690.622L445.769 686.105V679.669L451.226 682.883L452.842 689.053C453.009 689.701 453.669 690.089 454.307 689.914L455.461 689.602C456.098 689.426 456.478 688.756 456.303 688.109L455.612 685.465L458.587 687.217C459.157 687.553 459.885 687.354 460.219 686.768L460.819 685.709C461.168 685.138 460.978 684.391 460.401 684.056V684.056Z" fill="url(#paint9_linear)"/>
</g>
<g clip-path="url(#clip9)">
<path d="M203.401 712.056L200.426 710.304L203.014 709.596C203.652 709.421 204.031 708.75 203.857 708.103L203.545 706.922C203.378 706.275 202.718 705.886 202.081 706.062L196.032 707.714L190.583 704.5L196.04 701.286L202.088 702.938C202.726 703.114 203.378 702.725 203.553 702.078L203.864 700.897C204.031 700.25 203.659 699.579 203.022 699.404L200.434 698.696L203.409 696.944C203.978 696.609 204.175 695.862 203.849 695.276L203.249 694.217C202.923 693.63 202.187 693.432 201.618 693.767L198.643 695.519L199.333 692.876C199.5 692.229 199.128 691.558 198.491 691.383L197.337 691.071C196.7 690.896 196.047 691.284 195.873 691.932L194.256 698.102L188.799 701.316V694.879L193.224 690.363C193.687 689.89 193.687 689.113 193.224 688.641L192.382 687.78C191.919 687.308 191.16 687.308 190.697 687.78L188.807 689.715V686.219C188.807 685.548 188.276 685 187.615 685H186.424C185.764 685 185.232 685.548 185.232 686.219V689.73L183.343 687.796C182.88 687.323 182.121 687.323 181.658 687.796L180.785 688.656C180.322 689.129 180.322 689.905 180.785 690.378L185.21 694.895V701.331L179.753 698.117L178.136 691.947C177.969 691.299 177.309 690.911 176.672 691.086L175.518 691.398C174.881 691.574 174.501 692.244 174.676 692.891L175.366 695.535L172.391 693.783C171.822 693.447 171.094 693.646 170.76 694.232L170.16 695.291C169.834 695.877 170.023 696.616 170.6 696.959L173.575 698.711L170.987 699.404C170.35 699.579 169.97 700.25 170.145 700.897L170.456 702.078C170.623 702.725 171.283 703.114 171.921 702.938L177.969 701.286L183.426 704.5L177.969 707.714L171.921 706.062C171.283 705.886 170.631 706.275 170.456 706.922L170.145 708.103C169.978 708.75 170.35 709.421 170.987 709.596L173.575 710.304L170.6 712.056C170.031 712.391 169.834 713.138 170.16 713.724L170.76 714.783C171.086 715.37 171.822 715.568 172.391 715.233L175.366 713.481L174.676 716.124C174.509 716.771 174.881 717.442 175.518 717.617L176.672 717.929C177.309 718.104 177.962 717.716 178.136 717.068L179.753 710.898L185.21 707.684V714.121L180.785 718.638C180.322 719.11 180.322 719.887 180.785 720.359L181.628 721.22C182.09 721.692 182.849 721.692 183.312 721.22L185.202 719.285V722.781C185.202 723.452 185.733 724 186.394 724H187.585C188.245 724 188.777 723.452 188.777 722.781V719.27L190.666 721.204C191.129 721.677 191.888 721.677 192.351 721.204L193.194 720.344C193.657 719.871 193.657 719.095 193.194 718.622L188.769 714.105V707.669L194.226 710.883L195.842 717.053C196.009 717.701 196.669 718.089 197.307 717.914L198.461 717.602C199.098 717.426 199.478 716.756 199.303 716.109L198.612 713.465L201.587 715.217C202.157 715.553 202.885 715.354 203.219 714.768L203.819 713.709C204.168 713.138 203.978 712.391 203.401 712.056V712.056Z" fill="url(#paint10_linear)"/>
</g>
<defs>
<linearGradient id="paint0_linear" x1="260" y1="30.6875" x2="260" y2="264.312" gradientUnits="userSpaceOnUse">
<stop stop-color="#F32C2C"/>
<stop offset="1" stop-color="#DBA7A7"/>
</linearGradient>
<linearGradient id="paint1_linear" x1="70.5046" y1="603" x2="70.5046" y2="655" gradientUnits="userSpaceOnUse">
<stop stop-color="#F32C2C"/>
<stop offset="1" stop-color="#D19393"/>
</linearGradient>
<linearGradient id="paint2_linear" x1="118.505" y1="484" x2="118.505" y2="542" gradientUnits="userSpaceOnUse">
<stop stop-color="#F32C2C"/>
<stop offset="1" stop-color="#D19393"/>
</linearGradient>
<linearGradient id="paint3_linear" x1="240.505" y1="497" x2="240.505" y2="555" gradientUnits="userSpaceOnUse">
<stop stop-color="#F32C2C"/>
<stop offset="1" stop-color="#D19393"/>
</linearGradient>
<linearGradient id="paint4_linear" x1="362.505" y1="455" x2="362.505" y2="513" gradientUnits="userSpaceOnUse">
<stop stop-color="#F32C2C"/>
<stop offset="1" stop-color="#D19393"/>
</linearGradient>
<linearGradient id="paint5_linear" x1="215.008" y1="298" x2="215.008" y2="401" gradientUnits="userSpaceOnUse">
<stop stop-color="#F32C2C"/>
<stop offset="1" stop-color="#D19393"/>
</linearGradient>
<linearGradient id="paint6_linear" x1="337.506" y1="319" x2="337.506" y2="384" gradientUnits="userSpaceOnUse">
<stop stop-color="#F32C2C"/>
<stop offset="1" stop-color="#D19393"/>
</linearGradient>
<linearGradient id="paint7_linear" x1="326.004" y1="635" x2="326.004" y2="674" gradientUnits="userSpaceOnUse">
<stop stop-color="#F32C2C"/>
<stop offset="1" stop-color="#D19393"/>
</linearGradient>
<linearGradient id="paint8_linear" x1="187.004" y1="685" x2="187.004" y2="724" gradientUnits="userSpaceOnUse">
<stop stop-color="#F32C2C"/>
<stop offset="1" stop-color="#D19393"/>
</linearGradient>
<linearGradient id="paint9_linear" x1="444.004" y1="657" x2="444.004" y2="696" gradientUnits="userSpaceOnUse">
<stop stop-color="#F32C2C"/>
<stop offset="1" stop-color="#D19393"/>
</linearGradient>
<linearGradient id="paint10_linear" x1="187.004" y1="685" x2="187.004" y2="724" gradientUnits="userSpaceOnUse">
<stop stop-color="#F32C2C"/>
<stop offset="1" stop-color="#D19393"/>
</linearGradient>
<clipPath id="clip0">
<rect width="45" height="52" fill="white" transform="translate(48 603)"/>
</clipPath>
<clipPath id="clip1">
<rect width="51" height="58" fill="white" transform="translate(93 484)"/>
</clipPath>
<clipPath id="clip2">
<rect width="51" height="58" fill="white" transform="translate(215 497)"/>
</clipPath>
<clipPath id="clip3">
<rect width="51" height="58" fill="white" transform="translate(337 455)"/>
</clipPath>
<clipPath id="clip4">
<rect width="90" height="103" fill="white" transform="translate(170 298)"/>
</clipPath>
<clipPath id="clip5">
<rect width="57" height="65" fill="white" transform="translate(309 319)"/>
</clipPath>
<clipPath id="clip6">
<rect width="34" height="39" fill="white" transform="translate(309 635)"/>
</clipPath>
<clipPath id="clip7">
<rect width="34" height="39" fill="white" transform="translate(170 685)"/>
</clipPath>
<clipPath id="clip8">
<rect width="34" height="39" fill="white" transform="translate(427 657)"/>
</clipPath>
<clipPath id="clip9">
<rect width="34" height="39" fill="white" transform="translate(170 685)"/>
</clipPath>
</defs>
</svg>
