<svg width="1440" height="1024" viewBox="0 0 1440 1024" fill="none" xmlns="http://www.w3.org/2000/svg">
<rect width="1440" height="1024" fill="#EAFFCF"/>
<rect y="854" width="1440" height="170" fill="#0D5E00"/>
<path d="M1158.22 450.936C1143.68 455.157 1143.82 442.996 1143.3 441.273L1140 439.11L1140.79 438.88L1143.66 440.767C1144.81 440.274 1147.1 438.451 1150.57 440.175C1154.05 441.897 1154.77 444.958 1158.22 450.936ZM1155.32 450.019C1157.08 450.408 1155.39 449.649 1155.39 449.649C1153.69 448.949 1152.63 447.636 1151.42 446.222C1149.84 444.379 1147.58 441.997 1145.31 441.587C1143.05 441.175 1144.14 441.449 1145.21 441.94C1146.29 442.437 1148.18 444.402 1149.32 445.723C1150.9 447.557 1152.39 449.363 1155.32 450.019Z" fill="#8A0CB7"/>
<path d="M1062.66 526.588L1130.73 577.424L1137.71 566.397L1062.66 526.588Z" fill="#8A0CB7"/>
<path d="M1178.9 538.179L1126.12 583.319L1133.4 590.647L1178.9 538.179Z" fill="#8A0CB7"/>
<path d="M1132.33 336L1118.88 854H1145.77L1132.33 336Z" fill="#8A0CB7"/>
<path d="M1032.2 657.976L1124.97 680.407L1127.38 665.086L1032.2 657.976Z" fill="#8A0CB7"/>
<path d="M1103.25 425.166L1129.71 451.339L1133.6 446.708L1103.25 425.166Z" fill="#8A0CB7"/>
<path d="M1270.74 587.064L1127.16 644.001L1133.59 658.113L1270.74 587.064Z" fill="#8A0CB7"/>
<path d="M1148.8 429.374L1128.19 446.756L1133.44 451.531L1148.8 429.374Z" fill="#8A0CB7"/>
<path d="M1204.47 653.995C1182.04 660.508 1182.24 641.743 1181.45 639.085L1176.36 635.746L1177.58 635.392L1182.01 638.303C1183.77 637.543 1187.31 634.731 1192.66 637.391C1198.03 640.048 1199.14 644.77 1204.47 653.995ZM1200 652.58C1202.71 653.18 1200.1 652.009 1200.1 652.009C1197.49 650.929 1195.84 648.902 1193.97 646.72C1191.54 643.877 1188.06 640.202 1184.55 639.569C1181.06 638.933 1182.75 639.356 1184.4 640.113C1186.06 640.881 1188.98 643.913 1190.73 645.951C1193.17 648.781 1195.47 651.567 1200 652.58Z" fill="#8A0CB7"/>
<path d="M1075.26 883.431C1075.03 882.855 1075.51 882.309 1076.11 882.455C1078.86 883.108 1081.71 882.315 1083.72 880.211L1086.24 877.556C1089.59 874.037 1095.13 873.868 1098.6 877.176C1098.83 877.395 1099.03 877.631 1099.23 877.866C1095.72 878.557 1091.54 880.403 1087.41 884.737C1087.13 885.029 1087.14 885.493 1087.43 885.768C1087.72 886.043 1088.18 886.028 1088.46 885.736C1096.4 877.392 1104.82 878.664 1107.47 879.688C1108.21 879.978 1108.57 880.818 1108.28 881.568C1107.98 882.324 1107.14 882.695 1106.39 882.415C1106.23 882.353 1104.16 881.614 1101.15 881.973C1101.57 884.419 1101 887.772 1098.16 890.188C1092.83 895.043 1084.72 894.316 1079.06 888.934C1077.42 887.367 1076.05 885.386 1075.26 883.431Z" fill="#55BE24"/>
<path d="M1075.26 883.431C1075.03 882.855 1075.51 882.309 1076.11 882.455C1078.86 883.108 1081.71 882.315 1083.72 880.211L1086.24 877.556C1089.59 874.037 1095.13 873.868 1098.6 877.176C1098.83 877.395 1099.03 877.631 1099.23 877.866C1095.72 878.557 1091.54 880.403 1087.41 884.737C1087.13 885.029 1087.14 885.493 1087.43 885.768C1087.72 886.043 1088.18 886.028 1088.46 885.736C1096.4 877.392 1104.82 878.664 1107.47 879.688C1108.21 879.978 1108.57 880.818 1108.28 881.568C1107.98 882.324 1107.14 882.695 1106.39 882.415C1106.23 882.353 1104.16 881.614 1101.15 881.973C1101.57 884.419 1101 887.772 1098.16 890.188C1092.83 895.043 1084.72 894.316 1079.06 888.934C1077.42 887.367 1076.05 885.386 1075.26 883.431Z" fill="#55BE24"/>
<path d="M1007.12 925.361C1006.91 924.85 1007.34 924.365 1007.88 924.494C1010.31 925.074 1012.85 924.37 1014.63 922.502L1016.87 920.145C1019.84 917.022 1024.75 916.872 1027.84 919.809C1028.05 920.003 1028.22 920.212 1028.4 920.421C1025.28 921.034 1021.57 922.673 1017.91 926.52C1017.66 926.78 1017.67 927.191 1017.92 927.435C1018.18 927.679 1018.59 927.666 1018.84 927.407C1025.88 920 1033.36 921.13 1035.71 922.039C1036.37 922.296 1036.69 923.041 1036.43 923.707C1036.17 924.379 1035.42 924.708 1034.75 924.459C1034.61 924.404 1032.77 923.748 1030.1 924.067C1030.47 926.238 1029.96 929.214 1027.45 931.359C1022.71 935.669 1015.52 935.023 1010.49 930.246C1009.03 928.855 1007.82 927.096 1007.12 925.361Z" fill="#55BE24"/>
<path d="M1007.12 925.361C1006.91 924.85 1007.34 924.365 1007.88 924.494C1010.31 925.074 1012.85 924.37 1014.63 922.502L1016.87 920.145C1019.84 917.022 1024.75 916.872 1027.84 919.809C1028.05 920.003 1028.22 920.212 1028.4 920.421C1025.28 921.034 1021.57 922.673 1017.91 926.52C1017.66 926.78 1017.67 927.191 1017.92 927.435C1018.18 927.679 1018.59 927.666 1018.84 927.407C1025.88 920 1033.36 921.13 1035.71 922.039C1036.37 922.296 1036.69 923.041 1036.43 923.707C1036.17 924.379 1035.42 924.708 1034.75 924.459C1034.61 924.404 1032.77 923.748 1030.1 924.067C1030.47 926.238 1029.96 929.214 1027.45 931.359C1022.71 935.669 1015.52 935.023 1010.49 930.246C1009.03 928.855 1007.82 927.096 1007.12 925.361Z" fill="#55BE24"/>
<path d="M1266.18 889.363C1266.75 889.079 1266.74 888.364 1266.16 888.099C1263.53 886.869 1261.8 884.49 1261.63 881.665L1261.42 878.101C1261.14 873.378 1256.85 869.787 1251.84 870.084C1251.51 870.104 1251.19 870.158 1250.87 870.208C1253.2 872.923 1255.28 876.918 1255.62 882.737C1255.65 883.129 1255.33 883.47 1254.91 883.494C1254.49 883.519 1254.13 883.218 1254.11 882.826C1253.45 871.625 1245.88 867.307 1243.09 866.418C1242.3 866.17 1241.44 866.569 1241.17 867.314C1240.89 868.064 1241.31 868.871 1242.09 869.128C1242.27 869.185 1244.41 869.925 1246.57 872.078C1244.58 873.644 1242.76 876.506 1243.38 880.087C1244.33 887.05 1251.28 891.579 1259.42 891.096C1261.8 890.955 1264.23 890.328 1266.18 889.363Z" fill="#55BE24"/>
<path d="M1180.74 923.999C1181.26 923.743 1181.24 923.098 1180.72 922.858C1178.35 921.747 1176.78 919.599 1176.63 917.048L1176.44 913.83C1176.18 909.565 1172.31 906.323 1167.79 906.591C1167.49 906.609 1167.2 906.658 1166.92 906.703C1169.02 909.154 1170.89 912.762 1171.2 918.016C1171.23 918.37 1170.94 918.678 1170.56 918.7C1170.18 918.722 1169.86 918.451 1169.84 918.097C1169.24 907.983 1162.41 904.083 1159.88 903.28C1159.17 903.056 1158.4 903.417 1158.15 904.09C1157.9 904.767 1158.28 905.495 1158.99 905.728C1159.15 905.779 1161.08 906.447 1163.03 908.391C1161.23 909.806 1159.59 912.39 1160.15 915.623C1161.01 921.91 1167.28 926 1174.64 925.564C1176.78 925.437 1178.97 924.871 1180.74 923.999Z" fill="#55BE24"/>
<path d="M779 897H774C774 906.664 781.836 914.5 791.5 914.5V925.75C791.5 926.438 792.062 927 792.75 927H795.25C795.938 927 796.5 926.438 796.5 925.75V914.5C796.5 904.836 788.664 897 779 897ZM809 892C802.422 892 796.703 895.633 793.711 901C795.875 903.359 797.477 906.227 798.32 909.406C807.125 908.492 814 901.055 814 892H809Z" fill="#55BE24"/>
<path d="M520 893H515C515 902.664 522.836 910.5 532.5 910.5V921.75C532.5 922.438 533.062 923 533.75 923H536.25C536.938 923 537.5 922.438 537.5 921.75V910.5C537.5 900.836 529.664 893 520 893ZM550 888C543.422 888 537.703 891.633 534.711 897C536.875 899.359 538.477 902.227 539.32 905.406C548.125 904.492 555 897.055 555 888H550Z" fill="#55BE24"/>
<path d="M230 962H225C225 971.664 232.836 979.5 242.5 979.5V990.75C242.5 991.438 243.062 992 243.75 992H246.25C246.938 992 247.5 991.438 247.5 990.75V979.5C247.5 969.836 239.664 962 230 962ZM260 957C253.422 957 247.703 960.633 244.711 966C246.875 968.359 248.477 971.227 249.32 974.406C258.125 973.492 265 966.055 265 957H260Z" fill="#55BE24"/>
<path d="M337 893H332C332 902.664 339.836 910.5 349.5 910.5V921.75C349.5 922.438 350.062 923 350.75 923H353.25C353.938 923 354.5 922.438 354.5 921.75V910.5C354.5 900.836 346.664 893 337 893ZM367 888C360.422 888 354.703 891.633 351.711 897C353.875 899.359 355.477 902.227 356.32 905.406C365.125 904.492 372 897.055 372 888H367Z" fill="#55BE24"/>
<path d="M87 897H82C82 906.664 89.8359 914.5 99.5 914.5V925.75C99.5 926.438 100.062 927 100.75 927H103.25C103.938 927 104.5 926.438 104.5 925.75V914.5C104.5 904.836 96.6641 897 87 897ZM117 892C110.422 892 104.703 895.633 101.711 901C103.875 903.359 105.477 906.227 106.32 909.406C115.125 908.492 122 901.055 122 892H117Z" fill="#55BE24"/>
<path d="M655 962H650C650 971.664 657.836 979.5 667.5 979.5V990.75C667.5 991.438 668.062 992 668.75 992H671.25C671.938 992 672.5 991.438 672.5 990.75V979.5C672.5 969.836 664.664 962 655 962ZM685 957C678.422 957 672.703 960.633 669.711 966C671.875 968.359 673.477 971.227 674.32 974.406C683.125 973.492 690 966.055 690 957H685Z" fill="#55BE24"/>
<g clip-path="url(#clip0)">
<path d="M333.848 194.42C333.697 194.133 333.545 193.842 333.395 193.546C332.874 192.525 333.28 191.27 334.301 190.747C335.011 190.382 351.882 181.893 369.224 187.509C373.102 188.764 376.273 191.447 378.109 195.097C379.96 198.735 380.287 202.883 379.028 206.773C377.769 210.663 375.076 213.832 371.444 215.695C367.868 217.531 363.804 217.884 359.978 216.695C357.976 216.392 343.991 213.618 333.848 194.42ZM367.943 191.467C355.435 187.417 342.834 191.644 338.121 193.586C347.766 210.911 360.548 212.579 360.68 212.593C360.816 212.608 360.949 212.637 361.079 212.68C363.903 213.594 366.915 213.35 369.56 211.993C372.205 210.636 374.166 208.328 375.082 205.495C375.999 202.662 375.762 199.643 374.413 196.993C373.068 194.333 370.765 192.38 367.943 191.467Z" fill="url(#paint0_linear)"/>
<path d="M247.772 162.389C247.575 162.016 247.489 161.576 247.554 161.124C247.716 159.988 248.767 159.194 249.901 159.356C250.309 159.413 290.764 165.532 302.985 201.529C315.11 237.232 321.437 248.19 337.381 247.2C345.717 246.682 350.595 242.143 350.427 235.06C350.262 228.126 344.742 220.587 336.112 220.495C334.968 220.483 334.05 219.544 334.064 218.392C334.079 217.244 335.019 216.323 336.165 216.335C347.265 216.456 354.363 226.092 354.573 234.954C354.742 242.022 350.405 250.557 337.63 251.35C318.029 252.567 310.825 237.514 299.059 202.873C287.643 169.283 249.695 163.528 249.313 163.472C248.629 163.378 248.072 162.957 247.772 162.389Z" fill="url(#paint1_linear)"/>
<path d="M268.572 154.641C268.355 154.23 268.275 153.742 268.375 153.25C268.606 152.125 269.7 151.401 270.821 151.628C272.156 151.899 303.65 158.673 317.785 191.809C318.235 192.863 317.746 194.086 316.693 194.539C315.639 194.992 314.419 194.509 313.97 193.448C300.728 162.345 270.293 155.767 269.986 155.703C269.357 155.573 268.852 155.171 268.572 154.641Z" fill="url(#paint2_linear)"/>
<path d="M270.135 246.095C269.687 245.247 269.335 244.343 269.088 243.395C267.881 238.752 269.289 234.153 273.273 229.728C274.042 228.875 275.353 228.806 276.203 229.576C277.054 230.341 277.119 231.658 276.349 232.514C273.319 235.878 272.258 239.091 273.102 242.339C273.756 244.853 275.528 246.904 277.974 247.977C280.579 249.122 283.629 249.01 286.135 247.676C290.296 245.46 292.922 241.226 292.989 236.626C293.066 231.328 291.833 222.181 285.507 208.689C273.308 182.645 254.847 187.572 254.663 187.626C253.561 187.939 252.41 187.306 252.102 186.194C251.79 185.091 252.431 183.939 253.533 183.624C253.752 183.561 275.602 177.717 289.262 206.913C294.611 218.323 297.26 228.337 297.138 236.679C297.048 242.798 293.575 248.42 288.075 251.348C284.405 253.303 280.112 253.462 276.303 251.787C273.606 250.602 271.455 248.594 270.135 246.095Z" fill="url(#paint3_linear)"/>
<path d="M346.953 199.356C346.816 199.096 346.731 198.8 346.716 198.488C346.66 197.341 347.54 196.363 348.683 196.304C349.706 196.251 373.927 195.157 389.762 208.969C390.625 209.719 390.715 211.033 389.963 211.903C389.21 212.77 387.9 212.863 387.036 212.108C372.481 199.414 349.124 200.446 348.89 200.458C348.058 200.499 347.318 200.047 346.953 199.356Z" fill="url(#paint4_linear)"/>
</g>
<path d="M117.377 161.913C117.152 161.556 117.034 161.124 117.065 160.668C117.141 159.523 118.129 158.652 119.272 158.729C119.683 158.756 160.483 161.821 175.371 196.799C190.142 231.491 197.273 241.944 213.098 239.76C221.372 238.618 225.895 233.726 225.196 226.676C224.512 219.774 218.441 212.67 209.828 213.226C208.686 213.299 207.701 212.432 207.628 211.283C207.557 210.136 208.425 209.148 209.569 209.073C220.647 208.361 228.448 217.437 229.323 226.259C230.022 233.293 226.337 242.13 213.657 243.88C194.203 246.564 185.889 232.095 171.557 198.434C157.653 165.795 119.38 162.905 118.995 162.878C118.306 162.835 117.718 162.457 117.377 161.913Z" fill="url(#paint5_linear)"/>
<path d="M113.844 177.463C113.597 177.07 113.48 176.589 113.543 176.091C113.689 174.952 114.726 174.148 115.861 174.29C117.212 174.46 149.125 178.851 165.708 210.833C166.235 211.851 165.84 213.106 164.823 213.637C163.807 214.168 162.554 213.778 162.027 212.754C146.488 182.732 115.645 178.457 115.334 178.416C114.697 178.334 114.163 177.97 113.844 177.463Z" fill="url(#paint6_linear)"/>
<path d="M138.971 245.245C138.225 244.643 137.545 243.951 136.945 243.177C134.004 239.387 133.484 234.605 135.4 228.967C135.77 227.881 136.948 227.3 138.033 227.672C139.116 228.04 139.696 229.225 139.326 230.314C137.868 234.601 138.16 237.972 140.217 240.624C141.809 242.676 144.247 243.862 146.917 243.883C149.763 243.908 152.522 242.602 154.298 240.388C157.248 236.71 157.991 231.784 156.239 227.531C154.22 222.631 149.479 214.713 138.345 204.808C116.862 185.687 101.841 197.496 101.693 197.618C100.804 198.341 99.4962 198.213 98.7754 197.313C98.0537 196.421 98.188 195.111 99.0767 194.387C99.2535 194.242 117.027 180.254 141.095 201.695C150.51 210.071 156.894 218.229 160.072 225.943C162.402 231.601 161.428 238.137 157.529 242.997C154.927 246.241 151.046 248.081 146.884 248.043C143.938 248.018 141.171 247.022 138.971 245.245Z" fill="url(#paint7_linear)"/>
<path fill-rule="evenodd" clip-rule="evenodd" d="M37.5516 133.685L336 134C333.755 96.8814 306.627 67.5644 273.49 67.5644C270.299 67.5644 267.163 67.8364 264.1 68.3611C249.809 36.6888 220.685 15 187.08 15C158.814 15 133.718 30.3458 117.952 54.0711C112.605 52.4379 106.98 51.5666 101.176 51.5666C65.7325 51.5666 37 84.0536 37 124.128C37 127.368 37.1878 130.558 37.5516 133.685Z" fill="url(#paint8_linear)"/>
<path d="M374.312 731.391C374.312 720.129 382.455 711 392.5 711C402.545 711 410.688 720.129 410.688 731.391C410.688 742.652 402.545 751.781 392.5 751.781C382.455 751.781 374.312 742.652 374.312 731.391ZM438.632 731.779C435.476 728.24 430.358 728.24 427.201 731.779L405.318 756.312H379.681L357.799 731.779C354.642 728.24 349.524 728.24 346.368 731.779C343.211 735.319 343.211 741.057 346.368 744.596L370.271 771.394V846.938C370.271 851.943 373.89 856 378.354 856H382.396C386.86 856 390.479 851.943 390.479 846.938V815.219H394.521V846.938C394.521 851.943 398.14 856 402.604 856H406.646C411.11 856 414.729 851.943 414.729 846.938V771.394L438.632 744.596C441.789 741.056 441.789 735.319 438.632 731.779Z" fill="url(#paint9_linear)"/>
<path d="M649.481 510H611.154C608.557 510 606.343 511.769 605.771 514.303L593.394 569.115L589.113 573.397L587.785 572.069L582.473 562.506C581.913 561.499 580.937 560.829 579.796 560.669C578.655 560.509 577.532 560.885 576.717 561.7L569.612 568.805C568.797 569.621 568.421 570.743 568.581 571.884C568.741 573.026 569.411 574.001 570.418 574.561L579.981 579.874L581.281 581.174C576.834 585.209 572.001 587.025 559.305 587.025C551.347 587.025 544.922 591.206 540.724 599.116C536.979 606.171 535 616.242 535 628.239C535 629.211 535.789 630 536.761 630C537.734 630 538.523 629.211 538.523 628.239C538.523 616.816 540.36 607.316 543.836 600.767C547.434 593.986 552.639 590.548 559.305 590.548C571.942 590.548 578.007 588.907 583.772 583.664L584.946 584.838L590.259 594.402C590.818 595.409 591.794 596.079 592.936 596.239C593.108 596.263 593.281 596.275 593.451 596.275C594.41 596.275 595.322 595.9 596.014 595.208L603.119 588.103C603.934 587.288 604.31 586.165 604.15 585.024C603.99 583.882 603.321 582.907 602.313 582.347L592.75 577.034L591.603 575.887L595.885 571.606L650.697 559.229C653.231 558.657 655 556.443 655 553.846V515.519C655 512.476 652.524 510 649.481 510ZM583.543 578.454L586.366 575.631L589.189 578.454L586.366 581.277L583.543 578.454ZM572.069 571.395C572.061 571.337 572.089 571.309 572.103 571.296L579.208 564.191C579.22 564.179 579.243 564.156 579.287 564.156C579.293 564.156 579.3 564.157 579.307 564.158C579.365 564.166 579.384 564.2 579.394 564.217L584.181 572.834L580.746 576.269L572.129 571.482C572.112 571.473 572.078 571.453 572.069 571.395ZM600.662 585.513C600.67 585.571 600.642 585.599 600.629 585.612L593.524 592.717C593.51 592.73 593.481 592.759 593.424 592.75C593.366 592.742 593.347 592.708 593.338 592.691L588.551 584.074L591.985 580.639L600.603 585.426C600.619 585.435 600.654 585.455 600.662 585.513ZM633.185 534.305L651.477 516.013V552.597L633.185 534.305ZM649.734 555.835L600.55 566.941L630.695 536.796L649.734 555.835ZM630.695 531.815L612.403 513.523H648.987L630.695 531.815ZM609.165 515.266L628.204 534.305L598.059 564.45L609.165 515.266Z" fill="#8A0CB7"/>
<defs>
<linearGradient id="paint0_linear" x1="375.921" y1="190.95" x2="341.594" y2="209.083" gradientUnits="userSpaceOnUse">
<stop stop-color="#0CB7AD"/>
<stop offset="1" stop-color="#9AF6F1"/>
</linearGradient>
<linearGradient id="paint1_linear" x1="331.158" y1="186.426" x2="275.891" y2="215.621" gradientUnits="userSpaceOnUse">
<stop stop-color="#0CB7AD"/>
<stop offset="1" stop-color="#9AF6F1"/>
</linearGradient>
<linearGradient id="paint2_linear" x1="304.902" y1="166.886" x2="281.555" y2="179.219" gradientUnits="userSpaceOnUse">
<stop stop-color="#0CB7AD"/>
<stop offset="1" stop-color="#9AF6F1"/>
</linearGradient>
<linearGradient id="paint3_linear" x1="289.628" y1="207.437" x2="258.422" y2="223.921" gradientUnits="userSpaceOnUse">
<stop stop-color="#0CB7AD"/>
<stop offset="1" stop-color="#9AF6F1"/>
</linearGradient>
<linearGradient id="paint4_linear" x1="383.379" y1="196.587" x2="353.756" y2="212.235" gradientUnits="userSpaceOnUse">
<stop stop-color="#0CB7AD"/>
<stop offset="1" stop-color="#9AF6F1"/>
</linearGradient>
<linearGradient id="paint5_linear" x1="202.332" y1="179.625" x2="149.411" y2="212.884" gradientUnits="userSpaceOnUse">
<stop stop-color="#0CB7AD"/>
<stop offset="1" stop-color="#9AF6F1"/>
</linearGradient>
<linearGradient id="paint6_linear" x1="150.99" y1="186.947" x2="128.634" y2="200.997" gradientUnits="userSpaceOnUse">
<stop stop-color="#0CB7AD"/>
<stop offset="1" stop-color="#9AF6F1"/>
</linearGradient>
<linearGradient id="paint7_linear" x1="141.638" y1="202.033" x2="119.463" y2="229.489" gradientUnits="userSpaceOnUse">
<stop stop-color="#0CB7AD"/>
<stop offset="1" stop-color="#9AF6F1"/>
</linearGradient>
<linearGradient id="paint8_linear" x1="186.5" y1="15" x2="186.5" y2="134" gradientUnits="userSpaceOnUse">
<stop stop-color="#0CB7AD"/>
<stop offset="1" stop-color="#9AF6F1"/>
</linearGradient>
<linearGradient id="paint9_linear" x1="392.5" y1="711" x2="392.5" y2="856" gradientUnits="userSpaceOnUse">
<stop stop-color="#EBB3FF"/>
<stop offset="1" stop-color="#7C00A8"/>
</linearGradient>
<clipPath id="clip0">
<rect width="124.966" height="124.956" fill="white" transform="matrix(0.467077 0.884217 -0.882671 0.469991 339.549 111.171)"/>
</clipPath>
</defs>
</svg>
